<?xml version="1.0" encoding="utf-8"?>
<!-- Generator: Adobe Illustrator 16.0.0, SVG Export Plug-In . SVG Version: 6.00 Build 0)  -->
<!DOCTYPE svg PUBLIC "-//W3C//DTD SVG 1.1//EN" "http://www.w3.org/Graphics/SVG/1.1/DTD/svg11.dtd">
<svg version="1.1" id="Layer_1" xmlns="http://www.w3.org/2000/svg" xmlns:xlink="http://www.w3.org/1999/xlink" x="0px" y="0px"
	 width="1247.493px" height="243.514px" viewBox="0 0 1247.493 243.514" enable-background="new 0 0 1247.493 243.514"
	 xml:space="preserve">
<g>
	<g>
		<path fill="#FFFFFF" d="M5.652,62.813c0.4-0.399,7.2-0.3,7.2-0.3l-1.4-41.402c0,0-5.8,0.2-6.3-0.3s0.4-14.601,0.4-14.601
			l32.902-0.5l0.7,14.201l-9,1.699l1.3,40.402c0.5,0,8.701,0,8.701,0.7s0.7,13.201,0.2,13.399c-0.5,0.2-33.402,1.101-34.502-0.5
			C4.752,74.014,5.252,63.213,5.652,62.813z"/>
		<path d="M20.76,79.547c-15.845,0-16.39-0.793-17.38-2.233c-0.446-0.648-1.275-1.855-1.19-8.588
			c0.086-6.776,0.667-7.358,1.34-8.032c0.872-0.871,1.671-1.146,6.219-1.186L8.553,24.149c-3.426-0.02-4.593-0.288-5.521-1.217
			C1.939,21.84,1.572,21.473,2.558,6.019l0.177-2.767l38.573-0.586l0.972,19.708l-9.044,1.708l1.124,34.939
			c5.699,0.061,8.795,0.497,8.795,3.691c0.003,0.155,0.03,0.717,0.066,1.513c0.581,12.687,0.628,13.723-1.753,14.673
			C39.972,79.499,20.951,79.547,20.76,79.547z M8.316,73.168c1.522,0.167,4.932,0.379,12.444,0.379
			c6.566,0,13.276-0.161,16.774-0.286c-0.021-1.733-0.114-4.437-0.278-8.089c-1.374-0.091-3.422-0.159-5.803-0.159h-2.905
			L27.072,19.14l8.957-1.691L35.6,8.753L8.379,9.167c-0.192,3.411-0.343,6.847-0.375,8.974c0.286,0.006,0.614,0.009,0.989,0.009
			c1.25,0,2.337-0.037,2.356-0.038l3-0.103l1.608,47.549l-3.148-0.046c-0.01,0-0.745-0.011-1.736-0.011
			c-1.203,0-2.1,0.015-2.764,0.036C8.172,67.762,8.125,71.261,8.316,73.168z"/>
	</g>
	<g>
		<path fill="#FFFFFF" d="M48.651,62.513l8.6-1.4l-0.3-41.901c-0.2-0.2-6.4-1.101-6.601-1.101c-0.1,0-1.6-13.101-1.6-13.601
			s20.102-2.5,26.902-0.9v58.204l8.201,0.7l0.2,13.602c-0.5,0.5-33.802,0.199-33.702,0.199
			C50.351,76.314,48.551,68.914,48.651,62.513z"/>
		<path d="M69.25,79.403c-4.532,0-9.264-0.021-12.862-0.044l-4.38-0.03c-1.757-0.015-4.366-0.034-4.634-2.571
			c-0.333-1.434-1.817-8.203-1.722-14.291l0.039-2.511l8.542-1.392l-0.264-36.891c-1.473-0.239-3.266-0.503-3.807-0.568
			c-2.508-0.104-2.786-2.328-3.081-4.678c-0.156-1.243-0.354-2.906-0.548-4.584c-0.52-4.473-0.783-6.94-0.783-7.334
			c0-3.063,2.463-3.285,9.044-3.878C59.242,0.23,63.937,0,67.676,0c3.859,0,6.694,0.226,8.664,0.688l2.313,0.544v57.825l8.161,0.697
			l0.258,17.583l-0.897,0.896C85.073,79.337,85.006,79.403,69.25,79.403z M52.784,73.334c3.454,0.025,10.115,0.068,16.465,0.068
			c6.291,0,9.803-0.044,11.762-0.092l-0.118-8.04l-8.241-0.704V6.188C71.463,6.079,69.852,6,67.676,6
			C61.853,6,55.4,6.542,52.016,6.95c0.274,2.476,0.697,6.128,0.982,8.433c2.231,0.29,5.197,0.828,6.075,1.707l0.87,0.87
			l0.327,45.702l-8.564,1.395C51.875,68.185,52.392,71.307,52.784,73.334z M50.351,15.11c0.01,0,0.181,0.013,0.467,0.037
			C50.667,15.123,50.511,15.11,50.351,15.11z"/>
	</g>
	<g>
		<path fill="#FFFFFF" d="M91.751,63.313l6.1-1l0.1-20.4c-0.2-0.2-6.8-0.5-7-0.5c-0.1,0-2-14.401-2-14.901s19.801-4.3,19.801-4.3
			l2.6,6.601c0,0,4.3-5.5,12.201-5.5c5.8,0,13.001,0.8,16.701,7c2.9-4.3,8.9-6.5,16.801-6.5c9.5,0,20.901,4.8,20.901,25.502
			c0,5.4-0.7,13-0.7,13l5.3,0.9c0,0,0.7,9.7,0,12.9l-27.802,0.1c0,0-0.6-10.9-0.4-12.601l4.101-1.301l-0.1-11.5
			c0-6.601-1.7-9.201-6.201-9.201c-2.9,0-6.1,2.5-6.3,7.5c-0.1,2.601-0.1,13.201-0.1,13.201l4.3,0.601c0,0,0.6,10.4,0,13.601
			l-25.801-0.7c0,0-0.6-10.9-0.4-12.601l4.701-0.9l-0.1-11.5c0-6.601-1.9-10-6.4-10c-3.601,0-6.201,4.101-6.201,10l0.1,11.802
			l4.2,1.3l0.2,11.9c-0.4,0.5-28.002,0.4-27.902,0.4C92.451,76.214,91.651,69.615,91.751,63.313z"/>
		<path d="M152.531,79.583l-31.122-0.846l-0.006-0.114c-1.812,0.555-6.652,0.6-23.527,0.6l-3.918-0.004
			c-1.644-0.003-4.367-0.009-4.502-2.786c-0.12-1.033-0.799-7.173-0.704-13.167l0.04-2.507l6.073-0.996l0.074-15.141
			c-1.66-0.104-3.634-0.199-4.047-0.21h-0.001c-2.58,0-2.882-2.136-3.264-4.837c-0.193-1.365-0.441-3.189-0.686-5.03
			c-0.989-7.428-0.989-7.854-0.989-8.034c0-2.561,2.041-3.03,5.422-3.807c1.666-0.384,3.98-0.877,6.877-1.471
			c4.968-1.016,9.937-1.97,9.937-1.97l2.444-0.469l1.947,4.943c2.461-1.697,6.154-3.429,10.975-3.429
			c5.15,0,12.103,0.624,16.87,5.367c3.77-3.198,9.43-4.867,16.632-4.867c7.187,0,23.901,2.777,23.901,28.502
			c0,3.475-0.275,7.756-0.484,10.504l4.907,0.833l0.169,2.349c0.122,1.691,0.693,10.308-0.062,13.757l-0.514,2.35l-32.374,0.117
			L152.531,79.583z M127.105,72.89l20.193,0.548c0.061-2.236-0.011-5.301-0.119-7.896l-4.426-0.618v-2.61
			c0-0.435,0.001-10.688,0.103-13.315c0.27-6.747,4.992-10.386,9.298-10.386c9.201,0,9.201,8.864,9.201,12.201l0.119,13.69
			l-4.151,1.315c0.035,1.793,0.144,4.573,0.28,7.385l22.24-0.08c0.071-2.092-0.011-4.938-0.136-7.352l-5.693-0.967l0.255-2.767
			c0.007-0.075,0.688-7.529,0.688-12.727c0-18.598-9.735-22.502-17.901-22.502c-6.979,0-12.062,1.839-14.313,5.178l-2.642,3.919
			l-2.421-4.059c-2.316-3.882-6.541-5.538-14.125-5.538c-6.263,0-9.803,4.306-9.837,4.349l-3.231,4.134l-3.609-9.163
			c-5.77,1.125-11.615,2.325-14.649,3.034c0.343,2.706,0.923,7.097,1.301,9.793c3.597,0.137,5.794,0.583,6.544,1.331l0.888,0.885
			l-0.119,24.189l-6.083,0.997c0.052,2.802,0.243,5.481,0.408,7.36c0.779,0.001,1.696,0.002,2.711,0.002
			c10.237,0,16.356-0.078,19.43-0.175l-0.116-6.911l-4.219-1.306l-0.119-13.993c0-7.68,3.784-13.026,9.201-13.026
			c4.289,0,9.4,2.255,9.4,13l0.122,13.977l-4.748,0.909C126.867,67.513,126.974,70.191,127.105,72.89z M118.934,60.396l2.151,0.666
			l0.044-0.38l4.402-0.843l-0.079-8.999c0-7.027-2.212-7.027-3.4-7.027c-1.539,0-3.201,2.677-3.201,7L118.934,60.396z
			 M148.757,59.703l4.15,0.579l0.037,0.631l2.492-0.791l-0.081-9.284c0-6.228-1.413-6.228-3.201-6.228
			c-1.253,0-3.167,1.23-3.303,4.621C148.786,50.951,148.764,56.406,148.757,59.703z"/>
	</g>
	<g>
		<path fill="#FFFFFF" d="M189.45,40.612l-4.2-0.399c0,0-1.6-10.201-0.9-13.401l22.901-1.6c0,0,0,6.7,0.1,24.102
			c0,6.7,2.3,10.102,7.101,10.102c3.9,0,6.5-4.102,6.5-10.102l-0.1-7.101l-6.601-0.3l-0.8-14.201l24.801-1.9v34.302
			c0.2,0.2,6.201,1.301,6.4,1.301c0.1,0,0.1,14.601,0.1,15.101s-18.801,0.601-18.801,0.601l-1.7-4.4c0,0-5.4,4.9-13.9,4.9
			c-10.201,0-21.001-4.801-21.001-25.603L189.45,40.612z"/>
		<path d="M210.352,80.615c-8.964,0-24.001-3.717-24.001-28.603l0.076-8.675l-3.779-0.36l-0.361-2.301
			c-0.282-1.796-1.647-10.938-0.867-14.506l0.48-2.195l28.352-1.98v3.217c0,0.066,0.001,6.895,0.1,24.084
			c0,7.118,2.667,7.118,4.101,7.118c2.028,0,3.5-2.986,3.5-7.102l-0.06-4.231l-6.483-0.295l-1.118-19.842l30.962-2.371V57.74
			c1.393,0.277,3.082,0.591,3.645,0.679c2.761,0.143,2.788,2.739,2.813,5.252c0.014,1.382,0.023,3.229,0.03,5.094
			c0.013,3.718,0.013,7.498,0.013,7.748c0,3.04-2.818,3.167-5.802,3.302c-1.586,0.071-3.787,0.135-6.542,0.186
			c-4.72,0.088-9.44,0.113-9.44,0.113l-2.069,0.011l-1.084-2.808C220.051,78.873,215.75,80.615,210.352,80.615z M187.882,37.449
			l4.592,0.438L192.35,52.04c0,15.182,5.888,22.575,18.001,22.575c7.143,0,11.839-4.081,11.884-4.122l3.238-2.938l2.53,6.546
			c5.308-0.043,10.745-0.145,13.748-0.277c-0.004-3.833-0.017-7.53-0.038-9.825c-2.135-0.366-4.784-0.963-5.583-1.763l-0.879-0.878
			V29.05l-18.641,1.428l0.482,8.562l6.718,0.305l0.14,9.927c0,7.756-3.906,13.144-9.5,13.144c-3.772,0-10.101-1.702-10.101-13.102
			c-0.062-10.649-0.085-17.329-0.094-20.885l-17.08,1.193C187.226,31.666,187.508,34.633,187.882,37.449z M243.931,64.328
			c0.227,0.055,0.469,0.085,0.722,0.085C244.641,64.413,244.371,64.384,243.931,64.328z"/>
	</g>
	<g>
		<path fill="#FFFFFF" d="M286.147,62.013c1.1-0.6,7-0.5,7-0.5s-0.9-38.803-1.2-38.902c-0.3-0.1-6.8,0.2-6.8,0.2
			s-1.1-16.201-0.4-16.4c0.7-0.2,16.901-0.5,25.101-0.5c14.301,0,28.502,3.3,28.302,22.4c-0.2,20.701-18.201,22.603-27.901,22.603
			c-0.1,5.8,0.1,9.899,0.1,10.101c0,0.2,9.4,1.7,9.7,1.7c0.3,0,0.7,13.201,0.2,13.801c-0.5,0.601-33.002-0.2-33.002-0.2
			C287.147,76.314,285.047,62.613,286.147,62.013z M320.95,28.311c0-7-11.001-5.399-11.001-5.399l0.4,12.4
			C310.349,35.412,320.95,35.912,320.95,28.311z"/>
		<path d="M314.011,79.737c-9.496,0-26.665-0.42-26.837-0.424l-2.272-0.056l-0.578-2.249c-0.192-0.754-0.76-4.598-1.098-7.647
			c-0.733-6.594-0.624-8.832,1.485-9.981c0.518-0.282,1.337-0.729,5.366-0.845c-0.273-11.439-0.679-26.808-0.932-32.887
			c-1.803,0.064-3.829,0.157-3.86,0.158l-2.933,0.135l-0.199-2.929c-0.003-0.041-0.279-4.13-0.466-8.19
			c-0.381-8.292-0.484-10.521,2.235-11.298c1.686-0.481,25.688-0.615,25.926-0.615c7.563,0,18.394,0.786,25.126,7.591
			c4.178,4.221,6.255,10.224,6.176,17.841c-0.108,11.193-5.132,24.452-27.929,25.503c-0.003,1.596,0.015,3.178,0.053,4.734
			c2.363,0.423,6.042,1.017,6.937,1.133h1.746l0.832,1.752c0.232,0.495,0.521,1.111,0.666,8.117c0.157,7.583-0.196,8.007-0.9,8.852
			C321.503,79.695,320.73,79.737,314.011,79.737z M289.789,73.373c5.156,0.116,16.966,0.363,24.223,0.363
			c1.54,0,2.66-0.012,3.471-0.027c0.032-2.348-0.051-6.048-0.17-8.367c-0.704-0.112-1.594-0.257-2.721-0.446
			c-1.218-0.204-2.426-0.415-3.33-0.587c-1.558-0.297-3.912-0.745-3.912-3.297l-0.007-0.171c-0.12-3.232-0.151-6.591-0.092-9.981
			l0.051-2.947h2.949c16.629,0,24.774-6.421,24.901-19.63c0.063-6.042-1.389-10.479-4.44-13.562
			c-3.923-3.965-10.552-5.812-20.861-5.812c-6.813,0-17.581,0.188-22.336,0.348c0.022,2.405,0.203,6.447,0.441,10.432
			c1.328-0.051,2.765-0.099,3.521-0.099c0.509,0,0.937,0.013,1.422,0.175c1.998,0.663,2.08,2.312,2.184,4.396
			c0.054,1.082,0.114,2.621,0.178,4.466c0.127,3.658,0.269,8.525,0.399,13.391c0.263,9.719,0.488,19.425,0.488,19.425l0.073,3.121
			l-3.123-0.052c-0.012,0-0.358-0.006-0.89-0.006c-1.479,0-2.583,0.039-3.373,0.09C288.934,66.885,289.42,70.837,289.789,73.373z
			 M319.509,65.666c0.165,0.029,0.338,0.046,0.52,0.047C319.966,65.713,319.848,65.708,319.509,65.666z M311.123,38.355
			L311.123,38.355c-3.501,0-3.773-2.33-3.773-3.044l-0.485-14.982l2.653-0.387c0.133-0.02,1.345-0.188,3.001-0.188
			c7.158,0,11.432,3.199,11.432,8.558c0,3.896-2.048,6.964-5.767,8.638C315.36,38.218,312.305,38.355,311.123,38.355z
			 M313.042,25.76l0.207,6.418c0.845-0.137,1.718-0.362,2.471-0.701c1.964-0.884,2.229-2.096,2.229-3.166
			C317.95,26.698,316.299,25.841,313.042,25.76z"/>
	</g>
	<g>
		<path fill="#FFFFFF" d="M365.448,24.111c12.101,0,21.701,10.302,22.001,14.602l-2.7,10.201l-19.301,10.601
			c1.4,1.7,11.301,1.8,17.701,1.8c-0.2,6.602-2.2,16.102-2.2,16.102c-25.603,1.899-41.104-9.701-41.104-27.803
			C339.846,31.411,352.047,24.111,365.448,24.111z M369.948,40.312c-0.4-1-2.3-2.601-4.3-2.601c-7,0-9.7,5.899-7.9,10.101
			L369.948,40.312z"/>
		<path d="M375.6,80.617c-23.542,0-38.753-12.17-38.753-31.006c0-21.014,14.775-28.501,28.602-28.501
			c13.738,0,24.579,11.438,24.994,17.393l0.035,0.496l-3.156,11.924l-13.148,7.221c2.24,0.104,5.166,0.169,8.977,0.169h3.092
			l-0.094,3.091c-0.206,6.789-2.179,16.229-2.263,16.629l-0.464,2.207l-2.249,0.167C379.282,80.546,377.407,80.617,375.6,80.617z
			 M365.448,27.111c-6.795,0-22.603,2.192-22.603,22.501c0,16.137,13.751,25.866,35.604,24.943c0.456-2.446,1.151-6.515,1.5-10.258
			c-12.302-0.13-15.326-1.064-16.819-2.876l-2.301-2.794l21.347-11.726l2.208-8.34C383.563,35.781,375.872,27.111,365.448,27.111z
			 M356.358,52.188l-1.368-3.193c-1.296-3.024-0.953-6.645,0.895-9.446c2.027-3.074,5.585-4.836,9.763-4.836
			c3.166,0,6.22,2.32,7.086,4.487l0.938,2.346L356.358,52.188z"/>
	</g>
	<g>
		<path fill="#FFFFFF" d="M392.646,63.513l6.601-0.4l0.1-23.9c-0.2-0.2-5.8,0.3-6,0.3c-0.1,0-1.6-13.501-1.6-14.001
			s19.801-2.6,19.801-2.6l3.2,7.2c0,0,4.6-6.301,13.101-6.301c10.201,0,20.502,4.8,20.502,25.603l-0.101,13.101l4.2,0.9
			c0,0,0.7,9.801,0,13.001l-25.901-0.3c0,0-0.7-11-0.5-12.701l4.9-0.9l-0.101-10.701c0-6.701-2.8-10.101-7.601-10.101
			c-3.9,0-7.5,4.1-7.5,10.101l0.1,11l6,1.3l0.2,12c-0.5,0.5-28.802,0.2-28.702,0.2C393.347,76.314,392.546,69.914,392.646,63.513z"
			/>
		<path d="M454.858,79.442l-31.127-0.36l-0.027-0.426c-0.941,0.684-2.731,0.747-14.299,0.747c-3.857,0-7.88-0.021-10.938-0.044
			l-3.722-0.03c-1.497-0.015-4.25-0.04-4.393-2.787c-0.122-1.023-0.8-6.997-0.705-13.075l0.043-2.779l6.568-0.397l0.076-17.994
			c-0.772,0.055-1.523,0.114-1.994,0.15c-0.561,0.045-0.938,0.065-0.994,0.065c-2.692,0-2.96-2.204-3.271-4.755
			c-0.155-1.281-0.354-2.993-0.548-4.722c-0.519-4.601-0.781-7.132-0.781-7.524c0-2.771,2.377-3.113,5.667-3.586
			c1.667-0.24,3.982-0.536,6.88-0.88c4.969-0.589,9.938-1.117,9.938-1.117l2.171-0.229l2.348,5.282
			c2.61-2.008,6.678-4.169,12.098-4.169c10.722,0,23.501,4.962,23.501,28.603l-0.082,10.68l4.015,0.86l0.159,2.248
			c0.123,1.709,0.693,10.407-0.062,13.855L454.858,79.442z M396.056,73.339c3.066,0.026,8.326,0.063,13.35,0.063
			c4.961,0,7.88-0.037,9.596-0.08l-0.113-6.781l-6.019-1.305l-0.122-13.396c0-7.374,4.612-13.128,10.5-13.128
			c6.638,0,10.601,4.896,10.601,13.101l0.123,13.196l-4.935,0.906c0.054,1.826,0.183,4.52,0.338,7.231l20.362,0.236
			c0.069-2.14-0.016-5.061-0.144-7.513l-4.362-0.936l0.118-15.545c0-20.236-9.987-22.579-17.501-22.579
			c-6.792,0-10.533,4.878-10.688,5.085l-3.066,4.083l-4.398-9.853c-5.718,0.622-11.562,1.317-14.697,1.772
			c0.259,2.409,0.659,5.98,0.948,8.408c1.155-0.082,2.221-0.143,2.9-0.143c0.551,0,1.696,0,2.622,0.926l0.884,0.884l-0.117,27.963
			l-6.579,0.398C395.714,69.034,395.896,71.557,396.056,73.339z M418.826,60.389l4.444,0.963l0.059-0.49l4.597-0.844l-0.075-8.178
			c0-7.128-3.343-7.128-4.602-7.128c-2.173,0-4.5,2.853-4.5,7.101L418.826,60.389z"/>
	</g>
	<g>
		<path fill="#FFFFFF" d="M481.647,83.615c7.9,0,9.4-9.102,8-12.302c0,0-3.601,5.102-13.801,5.102
			c-9.199,0-22.201-6.102-22.201-26.702c0-19.001,12.302-24.603,22.502-24.603c8.5,0,14.801,5,14.801,5v-5
			c0,0,21.201-0.699,21.201-0.199s0.699,15.301,0.6,15.301c-0.2,0-6.2,1.5-6.4,1.7c0.4,5.601,1.5,18.2,1.5,33.701
			c0,8.5-5,24.902-24.9,24.902c-13.701,0-18.301-6-18.301-6l5.7-14.4C470.348,80.115,474.348,83.615,481.647,83.615z
			 M487.449,50.313c0-5.3-3.3-9.701-7.4-9.701c-5,0-8.301,3.5-8.301,9.5c0,5.801,3.899,9.5,7.899,9.5
			C484.147,59.613,487.449,55.913,487.449,50.313z"/>
		<path d="M482.948,103.516c-14.755,0-20.119-6.44-20.683-7.175l-1.034-1.349l6.675-16.86c-9.439-3.166-17.259-12.291-17.259-28.419
			c0-20.352,13.173-27.603,25.5-27.603c4.739,0,8.849,1.367,11.802,2.757v-2.659l2.9-0.097c0.473-0.016,11.632-0.382,17.671-0.382
			c3.703,0,6.63,0,6.63,3.181c0.005,0.229,0.073,1.772,0.163,3.776c0.556,12.604,0.556,12.604-0.395,13.599l-0.886,0.926h-0.989
			c-0.626,0.141-2.203,0.534-3.523,0.882c0.472,6.291,1.33,17.837,1.33,31.52C510.85,85.265,505.019,103.516,482.948,103.516z
			 M468.188,93.721c1.905,1.419,6.353,3.794,14.76,3.794c21.651,0,21.9-21.007,21.9-21.902c0-13.584-0.862-25.071-1.326-31.243
			l-0.264-3.613l0.973-0.969c0.728-0.727,3.325-1.452,5.464-1.948c-0.095-2.48-0.269-6.415-0.376-8.887
			c-0.021-0.457-0.038-0.862-0.055-1.221c-0.226-0.001-0.474-0.002-0.744-0.002c-4.087,0-10.764,0.178-14.571,0.29v8.303
			l-4.865-3.861c-0.047-0.037-5.646-4.351-12.937-4.351c-5.862,0-19.5,2.105-19.5,21.603c0,22.559,15.994,23.702,19.2,23.702
			c8.275,0,11.323-3.792,11.352-3.831l3.066-4.347l2.132,4.874c1.181,2.697,1.056,7.673-1.5,11.58
			c-2.077,3.175-5.361,4.924-9.248,4.924c-4.242,0-7.556-1.056-9.812-2.113L468.188,93.721z M475.108,79.403
			c1.558,0.63,3.752,1.212,6.539,1.212c1.873,0,3.256-0.723,4.228-2.208c0.226-0.346,0.416-0.711,0.573-1.083
			c-2.521,1.155-5.983,2.09-10.602,2.09C475.601,79.414,475.354,79.411,475.108,79.403z M512.75,37.212
			c-0.396,0-0.765,0.075-1.098,0.206C512.31,37.287,512.736,37.212,512.75,37.212z M479.647,62.613
			c-5.357,0-10.899-4.676-10.899-12.5c0-7.477,4.542-12.5,11.301-12.5c5.735,0,10.4,5.697,10.4,12.701
			C490.449,57.44,485.906,62.613,479.647,62.613z M480.048,43.612c-4.611,0-5.301,4.073-5.301,6.5c0,4.069,2.492,6.5,4.9,6.5
			c2.916,0,4.801-2.473,4.801-6.3C484.449,46.743,482.394,43.612,480.048,43.612z"/>
	</g>
	<g>
		<path fill="#FFFFFF" d="M542.348,24.111c12.102,0,21.701,10.302,22.001,14.602l-2.699,10.201l-19.302,10.601
			c1.4,1.7,11.302,1.8,17.701,1.8c-0.2,6.602-2.2,16.102-2.2,16.102c-25.602,1.899-41.103-9.701-41.103-27.803
			C516.746,31.411,528.947,24.111,542.348,24.111z M546.848,40.312c-0.399-1-2.3-2.601-4.3-2.601c-7,0-9.7,5.899-7.9,10.101
			L546.848,40.312z"/>
		<path d="M552.5,80.617c-23.542,0-38.753-12.17-38.753-31.006c0-21.014,14.775-28.501,28.602-28.501
			c13.738,0,24.579,11.438,24.994,17.393l0.035,0.496l-3.156,11.924l-13.147,7.221c2.239,0.104,5.166,0.169,8.977,0.169h3.092
			l-0.094,3.091c-0.206,6.789-2.179,16.229-2.263,16.629l-0.464,2.207l-2.249,0.167C556.182,80.546,554.307,80.617,552.5,80.617z
			 M542.348,27.111c-6.795,0-22.602,2.192-22.602,22.501c0,16.137,13.75,25.866,35.604,24.943c0.455-2.446,1.15-6.515,1.5-10.258
			c-12.303-0.13-15.326-1.064-16.819-2.876l-2.302-2.794l21.348-11.726l2.208-8.34C560.462,35.781,552.771,27.111,542.348,27.111z
			 M533.258,52.188l-1.368-3.193c-1.296-3.024-0.953-6.645,0.896-9.446c2.026-3.074,5.585-4.836,9.763-4.836
			c3.166,0,6.221,2.32,7.086,4.487l0.938,2.346L533.258,52.188z"/>
	</g>
	<g>
		<path fill="#FFFFFF" d="M576.546,41.812c0-0.2-6.9-0.1-7.101-0.3s0.2-14.701,0.2-14.701l7.199-0.8c0,0,1.101-11.601,1.101-11.801
			c2.7-1.9,18.001-2.9,18.001-2.9l0.6,15.301l12.602-0.199c0,0,0.699,9.899-0.602,14.7l-13.2,0.7c0,0-1.1,16.901,2.7,16.901
			c3.1,0,7.4-3.101,7.4-3.101l7.199,14.401c0,0-9.199,8.5-20.2,8.5C575.846,78.514,576.546,60.913,576.546,41.812z"/>
		<path d="M592.447,81.514c-5.134,0-9.261-1.526-12.267-4.537c-6.57-6.581-6.655-19.041-6.638-32.309
			c-0.187-0.003-0.367-0.005-0.534-0.008c-4.186-0.061-4.724-0.067-5.685-1.028c-1.113-1.113-1.113-1.113-0.679-16.904l0.072-2.61
			l7.37-0.819c0.374-3.958,0.797-8.469,0.857-9.195v-1.451l1.272-0.896c3.061-2.152,14.68-3.123,19.532-3.44l3.073-0.2l0.605,15.448
			l12.511-0.197l0.2,2.833c0.074,1.064,0.695,10.555-0.697,15.696l-0.568,2.097l-12.656,0.671c-0.132,4.66,0.172,9.073,0.758,10.903
			c1.502-0.401,3.56-1.559,4.721-2.391l2.857-2.048l9.784,19.559l-1.655,1.529C614.272,72.597,604.483,81.514,592.447,81.514z
			 M572.397,38.651c0.244,0.005,0.481,0.008,0.697,0.012c4.023,0.057,6.451,0.092,6.451,3.149l-0.002,2.235
			c-0.018,12.222-0.034,23.767,4.883,28.689c1.865,1.868,4.489,2.776,8.021,2.776c7.067,0,13.479-4.09,16.44-6.312l-4.665-9.33
			c-1.773,0.928-4.059,1.84-6.176,1.84c-1.197,0-2.332-0.508-3.196-1.43c-3.021-3.225-2.861-13.078-2.498-18.666l0.174-2.66
			l13.511-0.717c0.334-2.664,0.335-6.162,0.254-8.784l-12.627,0.199l-0.593-15.118c-4.902,0.425-9.937,1.095-12.299,1.734
			c-0.147,1.621-0.425,4.575-0.94,10.021l-0.229,2.429l-7.026,0.781C572.489,32.985,572.419,36.413,572.397,38.651z"/>
	</g>
	<g>
		<path fill="#FFFFFF" d="M616.546,50.512c0-19.001,12.201-24.602,22.402-24.602c8.5,0,14.801,5,14.801,5v-5
			c0,0,21.201-0.7,21.201-0.2s0.699,13.301,0.6,13.301c-0.199,0-7.201,1.5-7.398,1.7c-0.303,0.2,0.197,21.101,0.197,21.101
			c0.102,0,8.303-0.1,8.4,0.601c0.201,0.699,0.201,14.001-0.199,14.001c-0.301,0-22.701-0.4-22.701-0.7s-1-5.1-1-5.1
			s-4,6.6-14.199,6.6C629.446,77.214,616.546,71.115,616.546,50.512z M649.948,51.012c0-5.3-3.301-9.7-7.4-9.7
			c-5,0-8.301,3.5-8.301,9.5c0,5.8,3.9,9.5,7.9,9.5C646.647,60.313,649.948,56.613,649.948,51.012z"/>
		<path d="M638.647,80.214c-12.494,0-25.102-9.184-25.102-29.702c0-20.351,13.122-27.602,25.401-27.602
			c4.738,0,8.848,1.366,11.801,2.756v-2.659l2.9-0.096c0.473-0.017,11.629-0.382,17.666-0.382c3.707,0,6.635,0,6.635,3.181
			c0.006,0.232,0.082,1.701,0.176,3.556c0.549,10.813,0.549,10.813-0.398,11.812l-0.889,0.933h-1.037
			c-0.754,0.144-3.061,0.641-4.748,1.031c-0.01,3.265,0.104,10.004,0.23,15.769c5.172,0.029,8.029,0.32,8.438,3.18h-0.002
			c0.092,0.654,0.191,2.335,0.158,7.504c-0.049,7.568-0.281,7.879-0.906,8.708l-0.898,1.194l-1.521,0.016
			c-0.203,0-5.98-0.104-11.535-0.238c-2.834-0.069-5.658-0.148-7.773-0.229c-3.537-0.134-5.83-0.221-6.303-2.33
			C648.239,78.477,644.225,80.214,638.647,80.214z M638.948,28.911c-5.834,0-19.402,2.104-19.402,21.602
			c0,22.56,15.912,23.702,19.101,23.702c8.252,0,11.52-4.972,11.654-5.184l3.963-6.212l1.521,7.184
			c0.256,1.226,0.449,2.173,0.598,2.909c4.021,0.173,12.871,0.366,17.43,0.455c0.07-2.433,0.09-6.121,0.053-8.457
			c-0.986-0.058-2.428-0.102-4.428-0.102l-3.979,0.031l-0.109-2.955c-0.541-22.557-0.541-22.557,1.141-23.672l0.021,0.035
			c1.225-0.68,3.855-1.292,5.963-1.705c-0.094-2.081-0.244-5.054-0.342-6.971c-0.02-0.385-0.037-0.729-0.053-1.038
			c-0.23-0.001-0.486-0.002-0.766-0.002c-4.086,0-10.762,0.177-14.566,0.288v8.304l-4.865-3.862
			C651.834,33.224,646.239,28.911,638.948,28.911z M675.549,36.012c-0.328,0-0.639,0.051-0.924,0.144
			C675.186,36.063,675.536,36.012,675.549,36.012z M642.147,63.313c-5.357,0-10.9-4.676-10.9-12.5c0-7.477,4.541-12.5,11.301-12.5
			c5.734,0,10.4,5.697,10.4,12.7C652.948,58.14,648.407,63.313,642.147,63.313z M642.547,44.312c-4.611,0-5.301,4.073-5.301,6.5
			c0,4.069,2.492,6.5,4.9,6.5c2.916,0,4.801-2.473,4.801-6.301C646.948,47.443,644.891,44.312,642.547,44.312z"/>
	</g>
	<g>
		<path fill="#FFFFFF" d="M683.444,63.513l5.602-0.4l0.1-43.103c-0.199-0.2-8-1.1-8.199-1.1c-0.102,0,0.6-13.102,0.6-13.602
			s24.201-1,24.201-1v23.202c0,0,3.398-3.701,11.9-3.701c10.199,0,20.5,4.8,20.5,25.603l-0.1,13.101l4.201,0.9
			c0,0,0.699,9.801,0,13.001l-25.902-0.3c0,0-0.699-11-0.5-12.701l4.9-0.9l-0.1-10.701c0-6.701-2.801-10.101-7.602-10.101
			c-3.9,0-7.5,4.1-7.5,10.101l0.1,11l6,1.3l0.201,12c-0.5,0.5-27.803,0.2-27.703,0.2C684.145,76.314,683.344,69.914,683.444,63.513z
			"/>
		<path d="M744.657,79.442l-31.127-0.36l-0.027-0.425c-0.934,0.683-2.674,0.746-13.867,0.746c-3.723,0-7.604-0.021-10.553-0.044
			l-3.592-0.03c-1.373-0.014-4.191-0.041-4.342-2.785c-0.121-1.018-0.801-6.995-0.705-13.077l0.043-2.75l5.564-0.397l0.088-37.769
			c-1.977-0.262-4.633-0.574-5.318-0.64h-1.162l-0.889-0.934c-0.949-0.997-0.949-0.997-0.4-12.078
			c0.094-1.879,0.168-3.357,0.174-3.631c0-2.98,2.494-3.109,6.627-3.323c2.027-0.104,4.848-0.213,8.381-0.322
			c6.066-0.188,12.133-0.313,12.133-0.313l3.063-0.063v21.046c2.188-0.825,5.119-1.483,8.9-1.483c10.721,0,23.5,4.962,23.5,28.603
			l-0.08,10.68l4.014,0.86l0.16,2.248c0.123,1.709,0.693,10.407-0.063,13.855L744.657,79.442z M686.854,73.34
			c2.971,0.026,7.986,0.063,12.781,0.063c4.701,0,7.5-0.035,9.164-0.077l-0.113-6.784l-6.02-1.305l-0.121-13.396
			c0-7.374,4.611-13.128,10.5-13.128c6.639,0,10.602,4.896,10.602,13.101l0.123,13.196l-4.936,0.906
			c0.055,1.826,0.184,4.52,0.338,7.231l20.363,0.236c0.068-2.14-0.018-5.06-0.145-7.513l-4.363-0.936l0.117-15.545
			c0-20.236-9.986-22.579-17.5-22.579c-6.875,0-9.619,2.662-9.734,2.775l-5.209,5.671l0.043-7.746V7.376
			c-7.336,0.17-14.729,0.409-18.322,0.619c-0.018,0.352-0.037,0.75-0.061,1.203c-0.096,1.907-0.238,4.829-0.334,6.957
			c2.689,0.272,6.303,0.804,7.232,1.729l0.887,0.882l-0.109,47.142l-5.584,0.398C686.51,69.015,686.694,71.551,686.854,73.34z
			 M708.624,60.389l4.445,0.963l0.057-0.49l4.598-0.844l-0.076-8.178c0-7.128-3.342-7.128-4.602-7.128c-2.172,0-4.5,2.853-4.5,7.101
			L708.624,60.389z"/>
	</g>
	<g>
		<path fill="#FFFFFF" d="M748.444,40.612l-4.199-0.399c0,0-1.602-10.201-0.9-13.401l22.9-1.6c0,0,0,6.7,0.102,24.102
			c0,6.7,2.299,10.102,7.102,10.102c3.898,0,6.5-4.102,6.5-10.102l-0.102-7.101l-6.6-0.3l-0.801-14.201l24.801-1.9v34.302
			c0.201,0.2,6.201,1.301,6.4,1.301c0.102,0,0.102,14.601,0.102,15.101s-18.803,0.601-18.803,0.601l-1.699-4.4c0,0-5.4,4.9-13.9,4.9
			c-10.199,0-21.002-4.801-21.002-25.603L748.444,40.612z"/>
		<path d="M769.346,80.615c-8.965,0-24.002-3.717-24.002-28.603l0.076-8.675l-3.777-0.36l-0.361-2.301
			c-0.281-1.796-1.648-10.938-0.867-14.507l0.48-2.195l28.352-1.98v3.217c0,0.066,0,6.895,0.1,24.084
			c0,7.118,2.668,7.118,4.102,7.118c2.027,0,3.5-2.986,3.5-7.102l-0.061-4.231l-6.482-0.295l-1.117-19.842l30.961-2.372V57.74
			c1.393,0.277,3.082,0.591,3.646,0.679c2.76,0.143,2.787,2.739,2.813,5.252c0.016,1.382,0.023,3.229,0.031,5.095
			c0.012,3.717,0.012,7.498,0.012,7.748c0,3.04-2.818,3.167-5.803,3.302c-1.586,0.071-3.787,0.135-6.541,0.186
			c-4.723,0.088-9.441,0.113-9.441,0.113l-2.068,0.011l-1.084-2.808C779.045,78.874,774.745,80.615,769.346,80.615z M746.877,37.449
			l4.59,0.438l-0.123,14.153c0,15.182,5.889,22.575,18.002,22.575c7.156,0,11.852-4.093,11.896-4.134l3.232-2.867l2.521,6.485
			c5.309-0.043,10.746-0.145,13.75-0.277c-0.006-3.833-0.02-7.529-0.039-9.825c-2.133-0.365-4.777-0.96-5.578-1.757l-0.883-0.88
			V29.05l-18.643,1.428l0.482,8.562l6.719,0.305l0.141,9.927c0,7.878-3.818,13.144-9.5,13.144c-3.773,0-10.102-1.702-10.102-13.102
			c-0.063-10.649-0.086-17.329-0.096-20.885l-17.078,1.193C746.219,31.666,746.502,34.633,746.877,37.449z M802.926,64.328
			c0.229,0.056,0.469,0.085,0.721,0.085C803.635,64.413,803.366,64.384,802.926,64.328z"/>
	</g>
	<g>
		<path fill="#FFFFFF" d="M808.043,50.512c0-19.001,12.201-24.602,22.4-24.602c8.502,0,14.801,5,14.801,5v-5
			c0,0,21.201-0.7,21.201-0.2s0.701,13.301,0.602,13.301c-0.201,0-7.201,1.5-7.4,1.7c-0.301,0.2,0.199,21.101,0.199,21.101
			c0.102,0,8.303-0.1,8.4,0.601c0.201,0.699,0.201,14.001-0.199,14.001c-0.301,0-22.701-0.4-22.701-0.7s-1-5.1-1-5.1
			s-4.002,6.6-14.201,6.6C820.944,77.214,808.043,71.115,808.043,50.512z M841.446,51.012c0-5.3-3.301-9.7-7.4-9.7
			c-5,0-8.301,3.5-8.301,9.5c0,5.8,3.898,9.5,7.9,9.5C838.145,60.313,841.446,56.613,841.446,51.012z"/>
		<path d="M830.145,80.214c-12.494,0-25.102-9.184-25.102-29.702c0-20.351,13.121-27.602,25.4-27.602
			c4.738,0,8.848,1.366,11.801,2.756v-2.659l2.9-0.096c0.473-0.017,11.629-0.382,17.666-0.382c3.707,0,6.635,0,6.635,3.181
			c0.006,0.232,0.082,1.691,0.176,3.539c0.551,10.829,0.551,10.829-0.398,11.828l-0.887,0.933h-1.039
			c-0.754,0.144-3.061,0.641-4.748,1.031c-0.01,3.118,0.092,9.479,0.23,15.769c5.172,0.029,8.031,0.32,8.438,3.18h-0.002
			c0.092,0.651,0.191,2.327,0.158,7.504c-0.049,7.57-0.283,7.881-0.908,8.71l-0.9,1.192l-1.518,0.016
			c-0.205,0-5.982-0.104-11.537-0.238c-2.834-0.069-5.658-0.148-7.771-0.229c-3.539-0.134-5.832-0.221-6.303-2.33
			C839.735,78.477,835.721,80.214,830.145,80.214z M830.444,28.911c-5.832,0-19.4,2.104-19.4,21.602
			c0,22.56,15.912,23.702,19.102,23.702c8.25,0,11.52-4.972,11.652-5.184l3.963-6.212l1.521,7.184
			c0.256,1.226,0.449,2.173,0.598,2.909c4.021,0.173,12.871,0.366,17.43,0.455c0.072-2.433,0.092-6.12,0.055-8.457
			c-0.988-0.057-2.43-0.102-4.428-0.102l-3.979,0.031l-0.109-2.955c-0.539-22.554-0.539-22.554,1.137-23.669l0.021,0.033
			c1.219-0.68,3.854-1.294,5.967-1.707c-0.094-2.084-0.246-5.065-0.344-6.987c-0.02-0.377-0.035-0.716-0.051-1.021
			c-0.23-0.001-0.486-0.002-0.766-0.002c-4.086,0-10.762,0.177-14.566,0.288v8.304l-4.865-3.862
			C843.333,33.224,837.735,28.911,830.444,28.911z M867.047,36.012c-0.33,0-0.639,0.051-0.924,0.144
			C866.682,36.063,867.032,36.012,867.047,36.012z M833.645,63.313c-5.357,0-10.898-4.676-10.898-12.5
			c0-7.477,4.541-12.5,11.299-12.5c5.734,0,10.4,5.697,10.4,12.7C844.446,58.14,839.903,63.313,833.645,63.313z M834.045,44.312
			c-4.611,0-5.301,4.073-5.301,6.5c0,4.069,2.492,6.5,4.9,6.5c2.916,0,4.801-2.473,4.801-6.301
			C838.446,47.443,836.389,44.312,834.045,44.312z"/>
	</g>
	<g>
		<path fill="#FFFFFF" d="M873.942,63.513l6.602-0.4l0.1-23.9c-0.199-0.2-5.801,0.3-6,0.3c-0.102,0-1.602-13.501-1.602-14.001
			s19.803-2.6,19.803-2.6l3.199,7.2c0,0,4.6-6.301,13.102-6.301c10.199,0,20.5,4.8,20.5,25.603l-0.1,13.101l4.201,0.9
			c0,0,0.699,9.801,0,13.001l-25.902-0.3c0,0-0.699-11-0.5-12.701l4.9-0.9l-0.1-10.701c0-6.701-2.801-10.101-7.602-10.101
			c-3.9,0-7.5,4.1-7.5,10.101l0.1,11l6,1.3l0.201,12c-0.5,0.5-28.803,0.2-28.703,0.2C874.643,76.314,873.842,69.914,873.942,63.513z
			"/>
		<path d="M936.155,79.442l-31.127-0.36L905,78.656c-0.941,0.684-2.732,0.747-14.299,0.747c-3.857,0-7.879-0.021-10.938-0.044
			l-3.723-0.03c-1.498-0.015-4.25-0.04-4.395-2.787c-0.121-1.023-0.799-6.997-0.705-13.075l0.045-2.779l6.566-0.397l0.076-17.994
			c-0.771,0.055-1.523,0.114-1.994,0.15c-0.561,0.045-0.938,0.065-0.994,0.065c-2.691,0-2.961-2.204-3.27-4.755
			c-0.156-1.281-0.355-2.993-0.549-4.722c-0.52-4.6-0.781-7.132-0.781-7.524c0-2.771,2.377-3.113,5.666-3.586
			c1.668-0.24,3.98-0.536,6.881-0.88c4.969-0.589,9.938-1.117,9.938-1.117l2.172-0.229l2.348,5.282
			c2.609-2.008,6.678-4.169,12.098-4.169c10.723,0,23.502,4.962,23.502,28.603l-0.082,10.68l4.016,0.86l0.16,2.248
			c0.121,1.709,0.691,10.407-0.063,13.855L936.155,79.442z M877.352,73.339c3.066,0.026,8.324,0.063,13.352,0.063
			c4.961,0,7.879-0.037,9.596-0.08l-0.113-6.781l-6.02-1.305l-0.121-13.396c0-7.374,4.611-13.128,10.5-13.128
			c6.639,0,10.602,4.896,10.602,13.101l0.123,13.196l-4.936,0.906c0.055,1.826,0.184,4.52,0.338,7.231l20.363,0.236
			c0.068-2.14-0.018-5.061-0.145-7.513l-4.363-0.936l0.117-15.545c0-20.236-9.986-22.579-17.5-22.579
			c-6.896,0-10.641,5.02-10.678,5.07l-3.059,4.188l-4.418-9.941c-5.719,0.622-11.563,1.317-14.697,1.772
			c0.258,2.409,0.658,5.98,0.947,8.408c1.154-0.082,2.221-0.143,2.9-0.143c0.551,0,1.691,0,2.617,0.921l0.891,0.885l-0.117,27.968
			l-6.58,0.398C877.01,69.034,877.192,71.557,877.352,73.339z M900.122,60.389l4.443,0.963l0.059-0.49l4.598-0.844l-0.076-8.178
			c0-7.128-3.342-7.128-4.602-7.128c-2.172,0-4.5,2.853-4.5,7.101L900.122,60.389z"/>
	</g>
	<g>
		<path fill="#FFFFFF" d="M972.44,63.113l6.602-1.6c4.4-24.702,12.4-55.204,12.4-55.204c3.6-1.399,20.301,0.601,20.301,0.601
			l19.502,55.104h5.799v14.701c0,0-26.9,1.3-28,0.7c-1.002-0.7-2.002-14.102-1.4-14.302c0.602-0.3,5.102-0.3,5.102-0.3l-2.701-8.101
			l-13.5-0.2l-1.301,6.6l6.801,0.9c0,0,1.1,14.102,0.801,14.102l-29.002,1.399C972.44,74.514,972.44,63.113,972.44,63.113z
			 M1007.143,41.712l-5.002-13.001l-3.898,13.501L1007.143,41.712z"/>
		<path d="M971.973,80.608l-0.852-1.824c-1.561-3.345-1.682-12.84-1.682-15.669v-2.36l6.996-1.696
			c4.434-24.18,12.023-53.211,12.104-53.509l0.389-1.48l1.426-0.554c1.248-0.484,3.102-0.702,6.012-0.702
			c6.32,0,15.354,1.073,15.734,1.119l1.852,0.221l19.414,54.861h6.68v20.56l-2.855,0.138c-0.729,0.035-17.916,0.862-25.152,0.862
			c-2.99,0-3.697-0.125-4.432-0.525l-0.281-0.175c-0.65-0.456-1.166-0.979-1.617-2.741c-0.143,0.463-0.359,0.7-0.652,1.015
			l-0.891,0.963l-1.242,0.005L971.973,80.608z M1011.29,74.568c0.219,0.002,0.465,0.005,0.746,0.005
			c5.354,0,16.695-0.482,22.008-0.724v-8.836h-4.92l-19.58-55.329c-2.957-0.312-8.859-0.872-13.18-0.872
			c-1.107,0-1.914,0.038-2.492,0.087c-1.779,6.938-8.16,32.277-11.877,53.142l-0.344,1.928l-6.184,1.499
			c0.078,3.321,0.313,6.787,0.646,8.935l23.693-1.144c-0.115-2.146-0.332-5.355-0.574-8.589l-7.555-1l2.402-12.191l18.133,0.269
			l4.689,14.067h-4.162c-0.768,0-1.568,0.015-2.271,0.038C1010.559,68.355,1010.915,72.354,1011.29,74.568z M998.803,58.558
			l6.041,0.8l0.178,2.271c0.373-0.636,0.881-0.998,1.279-1.198l0,0c0.33-0.166,0.738-0.369,2.32-0.496l-0.752-2.253L999,57.551
			L998.803,58.558z M994.186,45.444l7.551-26.143l9.684,25.175L994.186,45.444z M1002.547,38.12l-0.248,0.858l0.566-0.031
			L1002.547,38.12z"/>
	</g>
	<g>
		<path fill="#FFFFFF" d="M1043.938,62.513l8.602-1.4l-0.301-41.901c-0.199-0.2-6.4-1.101-6.6-1.101
			c-0.102,0-1.602-13.101-1.602-13.601s20.102-2.5,26.9-0.9v58.204l8.201,0.7l0.199,13.602c-0.5,0.5-33.801,0.199-33.701,0.199
			C1045.639,76.314,1043.838,68.914,1043.938,62.513z"/>
		<path d="M1064.538,79.403c-4.531,0-9.264-0.021-12.861-0.044l-4.381-0.03c-1.756-0.015-4.365-0.035-4.633-2.57
			c-0.334-1.435-1.818-8.204-1.725-14.292l0.041-2.51l8.541-1.392l-0.264-36.891c-1.473-0.239-3.266-0.503-3.807-0.568
			c-2.508-0.104-2.785-2.328-3.08-4.678c-0.156-1.243-0.355-2.906-0.549-4.584c-0.52-4.472-0.783-6.938-0.783-7.334
			c0-3.063,2.463-3.285,9.045-3.878C1054.53,0.23,1059.225,0,1062.963,0c3.859,0,6.693,0.226,8.664,0.688l2.313,0.544v57.825
			l8.162,0.697l0.258,17.583l-0.896,0.896C1080.36,79.337,1080.293,79.403,1064.538,79.403z M1048.073,73.334
			c3.453,0.025,10.111,0.068,16.465,0.068c6.291,0,9.803-0.044,11.762-0.092l-0.117-8.04l-8.242-0.704V6.188
			c-1.188-0.108-2.801-0.188-4.977-0.188c-5.822,0-12.275,0.542-15.66,0.95c0.275,2.476,0.697,6.129,0.982,8.434
			c2.232,0.29,5.203,0.83,6.08,1.711l0.863,0.869l0.328,45.697l-8.564,1.395C1047.165,68.18,1047.68,71.305,1048.073,73.334z
			 M1045.639,15.11c0.012,0,0.182,0.013,0.469,0.037C1045.956,15.123,1045.799,15.11,1045.639,15.11z"/>
	</g>
	<g>
		<path fill="#FFFFFF" d="M1082.739,50.512c0-19.001,12.201-24.602,22.4-24.602c8.502,0,14.803,5,14.803,5v-5
			c0,0,21.201-0.7,21.201-0.2s0.699,13.301,0.6,13.301c-0.199,0-7.199,1.5-7.4,1.7c-0.299,0.2,0.201,21.101,0.201,21.101
			c0.1,0,8.301-0.1,8.4,0.601c0.199,0.699,0.199,14.001-0.201,14.001c-0.299,0-22.701-0.4-22.701-0.7s-1-5.1-1-5.1
			s-4,6.6-14.201,6.6C1095.641,77.214,1082.739,71.115,1082.739,50.512z M1116.141,51.012c0-5.3-3.299-9.7-7.398-9.7
			c-5,0-8.303,3.5-8.303,9.5c0,5.8,3.9,9.5,7.9,9.5C1112.842,60.313,1116.141,56.613,1116.141,51.012z"/>
		<path d="M1104.84,80.214c-12.494,0-25.102-9.184-25.102-29.702c0-20.351,13.121-27.602,25.4-27.602
			c4.74,0,8.85,1.366,11.803,2.757v-2.66l2.9-0.096c0.473-0.017,11.627-0.382,17.666-0.382c3.707,0,6.635,0,6.635,3.181
			c0.006,0.231,0.08,1.689,0.176,3.537c0.549,10.832,0.549,10.832-0.4,11.831l-0.887,0.933h-1.037
			c-0.756,0.145-3.063,0.641-4.748,1.031c-0.012,3.118,0.09,9.479,0.229,15.769c5.172,0.029,8.031,0.32,8.438,3.18h-0.002
			c0.092,0.651,0.191,2.327,0.158,7.504c-0.049,7.57-0.281,7.881-0.908,8.71l-0.9,1.192l-1.518,0.016
			c-0.203,0-5.98-0.104-11.535-0.238c-2.834-0.069-5.658-0.148-7.773-0.229c-3.537-0.134-5.832-0.221-6.303-2.33
			C1114.432,78.477,1110.417,80.214,1104.84,80.214z M1105.141,28.911c-5.834,0-19.4,2.104-19.4,21.602
			c0,22.56,15.912,23.702,19.102,23.702c8.252,0,11.518-4.972,11.652-5.183l3.963-6.214l1.521,7.185
			c0.256,1.226,0.449,2.173,0.598,2.909c4.021,0.173,12.871,0.366,17.43,0.455c0.072-2.433,0.09-6.12,0.053-8.457
			c-0.986-0.057-2.428-0.102-4.426-0.102l-3.979,0.031l-0.109-2.955c-0.539-22.554-0.539-22.554,1.137-23.669l0.021,0.033
			c1.219-0.68,3.854-1.294,5.967-1.707c-0.094-2.085-0.244-5.068-0.342-6.99c-0.021-0.376-0.037-0.714-0.053-1.019
			c-0.23-0.001-0.484-0.002-0.766-0.002c-4.086,0-10.76,0.177-14.566,0.288v8.303l-4.865-3.861
			C1118.03,33.224,1112.432,28.911,1105.141,28.911z M1141.743,36.012c-0.328,0-0.637,0.051-0.924,0.144
			C1141.379,36.063,1141.729,36.012,1141.743,36.012z M1108.34,63.313c-5.357,0-10.9-4.676-10.9-12.5
			c0-7.477,4.541-12.5,11.303-12.5c5.732,0,10.398,5.697,10.398,12.7C1119.141,58.14,1114.6,63.313,1108.34,63.313z
			 M1108.741,44.312c-4.611,0-5.301,4.073-5.301,6.5c0,4.069,2.49,6.5,4.9,6.5c2.916,0,4.801-2.473,4.801-6.301
			C1113.141,47.443,1111.084,44.312,1108.741,44.312z"/>
	</g>
	<g>
		<path fill="#FFFFFF" d="M1149.54,63.313l6.1-1l0.102-20.4c-0.199-0.2-6.801-0.5-7-0.5c-0.102,0-2-14.401-2-14.901
			s19.801-4.3,19.801-4.3l2.6,6.601c0,0,4.301-5.5,12.201-5.5c5.801,0,13,0.8,16.701,7c2.898-4.3,8.898-6.5,16.801-6.5
			c9.5,0,20.9,4.8,20.9,25.502c0,5.4-0.699,13-0.699,13l5.301,0.9c0,0,0.699,9.7,0,12.9l-27.803,0.1c0,0-0.6-10.9-0.398-12.601
			l4.1-1.301l-0.1-11.5c0-6.601-1.701-9.201-6.201-9.201c-2.898,0-6.1,2.5-6.301,7.5c-0.1,2.601-0.1,13.201-0.1,13.201l4.301,0.601
			c0,0,0.6,10.4,0,13.601l-25.803-0.7c0,0-0.6-10.9-0.398-12.601l4.699-0.9l-0.1-11.5c0-6.601-1.9-10-6.4-10
			c-3.6,0-6.201,4.101-6.201,10l0.102,11.802l4.199,1.3l0.199,11.9c-0.398,0.5-28,0.4-27.9,0.4
			C1150.239,76.214,1149.438,69.615,1149.54,63.313z"/>
		<path d="M1210.319,79.583l-31.121-0.846l-0.006-0.114c-1.814,0.555-6.656,0.6-23.527,0.6l-3.918-0.004
			c-1.645-0.003-4.367-0.009-4.502-2.785c-0.121-1.032-0.801-7.173-0.705-13.167l0.039-2.507l6.074-0.996l0.072-15.141
			c-1.658-0.104-3.633-0.199-4.047-0.21c0,0,0,0-0.002,0c-2.578,0-2.881-2.136-3.264-4.837c-0.191-1.365-0.441-3.189-0.686-5.03
			c-0.988-7.429-0.988-7.854-0.988-8.034c0-2.561,2.041-3.03,5.422-3.807c1.666-0.383,3.979-0.877,6.877-1.471
			c4.969-1.016,9.936-1.97,9.936-1.97l2.445-0.469l1.947,4.943c2.461-1.697,6.152-3.429,10.975-3.429
			c5.148,0,12.104,0.624,16.869,5.367c3.77-3.197,9.432-4.867,16.633-4.867c7.188,0,23.9,2.777,23.9,28.502
			c0,3.475-0.273,7.756-0.482,10.504l4.906,0.833l0.17,2.349c0.121,1.691,0.693,10.308-0.063,13.757l-0.516,2.35l-32.373,0.117
			L1210.319,79.583z M1184.893,72.89l20.195,0.548c0.061-2.236-0.012-5.301-0.119-7.896l-4.426-0.618v-2.61
			c0-0.435,0-10.688,0.102-13.314c0.271-6.748,4.992-10.387,9.299-10.387c9.199,0,9.199,8.864,9.199,12.201l0.119,13.69l-4.15,1.316
			c0.035,1.793,0.145,4.573,0.279,7.385l22.24-0.08c0.07-2.092-0.012-4.938-0.135-7.352l-5.693-0.967l0.254-2.767
			c0.008-0.075,0.688-7.529,0.688-12.727c0-18.598-9.734-22.502-17.9-22.502c-6.979,0-12.063,1.839-14.313,5.179l-2.645,3.917
			l-2.42-4.058c-2.316-3.882-6.541-5.538-14.125-5.538c-6.264,0-9.803,4.306-9.838,4.349l-3.23,4.134l-3.609-9.163
			c-5.771,1.125-11.613,2.325-14.648,3.034c0.344,2.705,0.924,7.096,1.301,9.793c5.418,0.202,6.25,1.038,6.549,1.337l0.883,0.884
			l-0.119,24.187l-6.082,0.996c0.053,2.798,0.244,5.479,0.408,7.36c0.779,0.001,1.697,0.002,2.711,0.002
			c10.236,0,16.357-0.078,19.43-0.175l-0.113-6.911l-4.221-1.305l-0.117-13.993c0-7.68,3.781-13.026,9.199-13.026
			c4.287,0,9.4,2.255,9.4,13l0.121,13.977l-4.748,0.91C1184.655,67.513,1184.762,70.191,1184.893,72.89z M1176.723,60.396
			l2.15,0.666l0.045-0.381l4.402-0.843l-0.08-8.999c0-7.027-2.211-7.027-3.4-7.027c-1.539,0-3.199,2.676-3.199,7L1176.723,60.396z
			 M1206.545,59.703l4.15,0.579l0.035,0.631l2.492-0.791l-0.08-9.285c0-6.228-1.412-6.228-3.199-6.228
			c-1.254,0-3.168,1.23-3.305,4.621C1206.575,50.951,1206.553,56.406,1206.545,59.703z"/>
	</g>
	<g>
		<path fill="#FFFFFF" d="M268.247,223.713c0.2-0.2,6.7-0.301,6.9-0.5c0.2-0.2,0.4-30.302,1-39.803c0-0.5-6,0.1-6.2,0
			c-0.2-0.101-1.3-15.102-0.3-15.701c0.6-0.3,33.602,0.6,33.602,0.7c0,0.1,0.7,14.601,0.1,14.801s-8.201,1.1-8.201,1.1
			c-1,7.201-1.6,38.802-1.5,38.802s10.201-0.199,10.301-0.398c0.1-0.2,3.4-12.501,3.4-12.901c0-0.399,13.001,1.5,13.301,1.7
			c0.3,0.2,0.6,27.002,0.3,27.002c-0.3,0-52.503,0.899-52.503-0.2C268.447,237.215,268.047,223.913,268.247,223.713z"/>
		<path d="M285.303,241.86c-5.149,0-9.191-0.04-12.015-0.117c-5.056-0.141-7.841-0.219-7.841-3.43c0-0.285-0.028-1.412-0.065-2.917
			c-0.313-12.754-0.313-12.754,0.749-13.81c0.917-0.918,1.431-0.941,5.438-1.121c0.212-0.01,0.447-0.021,0.689-0.031
			c0.048-2.147,0.102-5.413,0.155-8.607c0.135-8.195,0.312-18.967,0.586-25.556c-0.437,0.023-0.874,0.049-1.272,0.073
			c-0.737,0.045-1.342,0.078-1.627,0.078c-0.229,0-0.839,0-1.497-0.33c-1.61-0.805-1.9-0.95-2.294-11.201
			c-0.269-6.976,0.05-8.708,1.795-9.755l0.203-0.111c0.726-0.361,1.295-0.377,3.361-0.377c3.13,0,10.082,0.131,18.594,0.351
			c3.5,0.09,6.772,0.183,9.17,0.258c1.207,0.038,2.193,0.072,2.877,0.099c0.966,0.038,3.888,0.153,3.94,2.978l0.01,0.223
			c0.137,3.07,0.234,5.767,0.287,8.013c0.159,6.662,0.207,8.673-2.249,9.49c-0.275,0.092-0.764,0.254-6.415,0.946
			c-0.652,7.781-1.089,25.934-1.209,33.042c1.635-0.042,3.568-0.098,4.957-0.156c0.904-3.32,2.612-9.781,2.76-10.542
			c-0.045,0.234-0.039,0.395-0.039,0.465c0-1.228,0.886-3.055,3.328-3.055c0.112,0,13.103,1.237,14.636,2.259
			c1.539,1.025,1.539,1.025,1.708,15.686c0.156,13.533-0.041,14.184-0.185,14.658l-0.645,2.131l-2.818,0.033
			C306.648,241.741,294.193,241.86,285.303,241.86z M271.39,235.672c2.044,0.094,6.054,0.188,13.913,0.188
			c8.38,0,19.948-0.106,32.764-0.302c0.041-5.203-0.092-16.755-0.252-21.521c-2.271-0.357-5.835-0.854-8.134-1.111
			c-1.063,4.211-3.021,11.074-3.048,11.128c-0.836,1.664-1.034,2.058-12.984,2.058h-1.366l-0.897-1.029
			c-0.927-1.064-0.927-1.064-0.396-18.808c0.24-8.032,0.641-18.436,1.188-22.377l0.319-2.294l2.3-0.271
			c2.027-0.24,4.232-0.516,5.793-0.725c0.016-1.528-0.019-4.311-0.22-9.316c-6.2-0.203-21.74-0.616-28.136-0.642
			c-0.034,2.533,0.181,6.847,0.389,9.633c0.759-0.041,1.544-0.073,2.211-0.073c3.754,0,4.315,2.006,4.315,3.202l-0.006,0.188
			c-0.356,5.635-0.572,18.75-0.729,28.325c-0.205,12.47-0.205,12.47-1.141,13.407c-0.93,0.926-1.443,0.949-5.434,1.128
			c-0.198,0.009-0.415,0.019-0.639,0.029c0.031,2.622,0.13,6.664,0.181,8.761C271.383,235.394,271.387,235.535,271.39,235.672z
			 M310.349,209.813c0,0.16-0.06,0.508-0.164,0.994C310.29,210.507,310.349,210.175,310.349,209.813z"/>
	</g>
	<g>
		<path fill="#FFFFFF" d="M327.347,225.513l8.602-0.399l0.1-20.302c-0.2-0.2-7.8,0.3-8,0.3c-0.1,0-1.6-13.101-1.6-13.601
			s21.102-1.5,27.902,0.1v33.202l8.201,1.301l0.2,12.001c-0.5,0.5-34.802,0.199-34.702,0.199
			C328.046,238.314,327.247,231.914,327.347,225.513z M333.747,171.91c-0.1-6.4,4.5-10.4,9.8-10.4c5.4,0,10.401,4.6,10.401,9.9
			c0,5.399-2.5,10.7-9.301,10.7C337.747,182.11,333.947,178.21,333.747,171.91z"/>
		<path d="M347.513,241.403c-4.667,0-9.54-0.021-13.247-0.044l-4.512-0.03c-1.936-0.016-4.568-0.035-4.703-2.791
			c-0.123-1.033-0.799-7-0.704-13.071l0.044-2.819l8.57-0.398l0.07-14.407c-1.451,0.068-3.083,0.165-3.985,0.218
			c-0.578,0.034-0.954,0.052-1,0.052c-2.683,0-2.967-2.273-3.269-4.682c-0.155-1.243-0.354-2.906-0.548-4.584
			c-0.52-4.473-0.783-6.94-0.783-7.334c0-2.81,2.88-3.114,3.965-3.229c0.873-0.093,2.092-0.184,3.526-0.264
			c3.182-0.177,6.983-0.277,10.428-0.277c6.391,0,10.99,0.319,13.67,0.949l2.313,0.544v33.017l8.158,1.293l0.263,15.792l-0.9,0.898
			C363.746,241.359,363.702,241.403,347.513,241.403z M330.755,235.335c3.612,0.025,10.34,0.067,16.757,0.067
			c6.555,0,10.184-0.045,12.189-0.094l-0.11-6.627l-8.243-1.307v-33.216c-2.402-0.272-5.83-0.418-9.983-0.418
			c-4.645,0-9.01,0.183-11.637,0.364c0.258,2.32,0.637,5.594,0.913,7.854c1.688-0.094,3.692-0.193,4.757-0.193
			c0.735,0,1.847,0,2.773,0.929l0.882,0.885l-0.12,24.398l-8.576,0.399C330.417,231.057,330.597,233.562,330.755,235.335z
			 M344.647,185.11c-8.317,0-13.643-5.021-13.899-13.104c-0.06-3.83,1.249-7.274,3.685-9.749c2.379-2.417,5.616-3.747,9.114-3.747
			c7.139,0,13.401,6.028,13.401,12.9C356.948,179.732,352.12,185.11,344.647,185.11z M343.547,164.509
			c-1.878,0-3.597,0.695-4.839,1.957c-1.318,1.338-1.996,3.205-1.962,5.397c0.152,4.793,2.811,7.247,7.901,7.247
			c5.208,0,6.301-4.188,6.301-7.7C350.948,167.864,347.352,164.509,343.547,164.509z"/>
	</g>
	<g>
		<path fill="#FFFFFF" d="M368.946,220.114c4.5-0.801,11.101-0.7,12.399-0.5c1.2,3.8,4,5.801,6.102,5.801c2,0,3.7-0.9,3.7-2.602
			c0-3.199-4.3-4.199-8.301-6c-6-2.6-12.9-6.399-12.9-16.801c0-7,6.5-14.001,18.201-14.001c5.1,0,8.2,1.6,9.7,2.9l0.6-3.5
			c0,0,10-0.301,14.301,1.199c0.4,0.2-1,16.001-1,17.802c0,0.8-13.701-0.2-13.701-0.5c-0.3-3.2-3.1-4.4-5.2-4.4
			c-1.2,0-3.1,0.3-3.1,2.5c0,2,5.6,3.5,10.5,5.9c6,2.8,12.5,8.5,12.5,17.4c0,8.102-7.7,14.302-16.501,14.302
			c-9,0-11.701-2.101-13-3.301c-0.2,1.601-0.4,4.102-0.5,4.102c-0.4-0.102-13.601-1.102-13.601-1.102
			C368.946,237.814,368.946,223.013,368.946,220.114z"/>
		<path d="M382.747,243.415l-0.569-0.05c-1.205-0.132-8.668-0.712-13.258-1.061l-2.426-0.184l-0.321-2.412
			c-0.056-0.42-0.226-1.697-0.226-19.598v-2.514l2.475-0.439c2.436-0.434,5.248-0.597,7.292-0.656
			c-4.348-2.859-8.767-7.702-8.767-16.492c0-8.242,7.431-17.001,21.201-17.001c3.125,0,5.579,0.526,7.458,1.222l0.299-1.747
			l2.453-0.073c0,0,0.851-0.026,2.171-0.026c4.205,0,9.909,0.242,13.208,1.392l0.354,0.149c1.939,0.969,1.851,2.454,1.59,6.862
			c-0.136,2.295-0.352,5.22-0.542,7.806c-0.182,2.473-0.389,5.276-0.389,5.816c0,3.303-3.598,3.303-5.531,3.304
			c-0.948,0-2.13-0.033-3.424-0.092c6.298,4.328,9.955,10.692,9.955,17.688c0,9.54-8.748,17.301-19.501,17.301
			c-4.955,0-8.292-0.608-10.641-1.464C385.23,242.452,384.483,243.415,382.747,243.415z M372.04,236.525
			c3.892,0.299,6.428,0.499,8.092,0.638c0.045-0.428,0.092-0.849,0.139-1.222l0.725-5.791l4.287,3.959
			c0.742,0.686,2.712,2.504,10.965,2.504c7.444,0,13.501-5.068,13.501-11.301c0-8.716-7.531-13.171-10.769-14.682
			c-1.419-0.695-2.861-1.297-4.255-1.879c-4.457-1.862-7.977-3.333-7.977-6.74c0-2.537,1.598-5.5,6.1-5.5
			c3.036,0,6.254,1.615,7.589,4.727c2.12,0.202,5.82,0.456,8.459,0.477c0.066-0.949,0.153-2.131,0.258-3.561
			c0.201-2.717,0.499-6.764,0.618-9.182c-2.131-0.359-5.219-0.569-8.791-0.585l-1.076,6.278l-4.022-3.487
			c-0.587-0.509-2.878-2.167-7.735-2.167c-9.874,0-15.201,5.668-15.201,11.001c0,8.527,5.479,11.616,11.093,14.048
			c0.762,0.342,1.496,0.641,2.21,0.931c3.519,1.43,7.898,3.209,7.898,7.822c0,3.245-2.818,5.602-6.7,5.602
			c-3.242,0-6.396-2.354-8.167-5.924c-0.408-0.012-0.888-0.019-1.438-0.019c-1.117,0-3.506,0.032-5.895,0.265
			C371.956,230.324,371.998,234.37,372.04,236.525z M385.568,221.21c0.77,0.873,1.56,1.204,1.879,1.204
			c0.125,0,0.239-0.006,0.34-0.018C387.304,222.019,386.422,221.587,385.568,221.21z"/>
	</g>
	<g>
		<path fill="#FFFFFF" d="M425.646,203.812c0-0.2-6.899-0.1-7.101-0.3c-0.2-0.2,0.2-14.701,0.2-14.701l7.2-0.8
			c0,0,1.1-11.601,1.1-11.801c2.7-1.9,18.001-2.9,18.001-2.9l0.6,15.301l12.602-0.199c0,0,0.7,9.899-0.6,14.7l-13.201,0.7
			c0,0-1.101,16.901,2.699,16.901c3.101,0,7.4-3.101,7.4-3.101l7.2,14.4c0,0-9.2,8.501-20.201,8.501
			C424.946,240.514,425.646,222.913,425.646,203.812z"/>
		<path d="M441.547,243.514c-5.133,0-9.26-1.525-12.266-4.537c-6.571-6.581-6.656-19.041-6.638-32.309
			c-0.188-0.003-0.367-0.005-0.534-0.008c-4.187-0.061-4.725-0.067-5.686-1.028c-1.113-1.113-1.113-1.113-0.678-16.904l0.072-2.61
			l7.371-0.819c0.373-3.958,0.797-8.469,0.856-9.195v-1.451l1.273-0.896c3.06-2.152,14.679-3.123,19.531-3.44l3.073-0.2
			l0.605,15.448l12.51-0.197l0.201,2.833c0.074,1.064,0.695,10.555-0.697,15.695l-0.568,2.098l-12.656,0.671
			c-0.133,4.66,0.172,9.073,0.757,10.903c1.502-0.401,3.56-1.559,4.721-2.391l2.858-2.048l9.783,19.558l-1.654,1.53
			C463.374,234.596,453.584,243.514,441.547,243.514z M421.497,200.651c0.245,0.005,0.482,0.008,0.698,0.012
			c4.022,0.057,6.45,0.092,6.45,3.149l-0.002,2.235c-0.018,12.223-0.033,23.767,4.884,28.69c1.864,1.868,4.488,2.776,8.02,2.776
			c7.068,0,13.48-4.09,16.442-6.312l-4.665-9.33c-1.775,0.928-4.061,1.84-6.177,1.84c-1.196,0-2.332-0.508-3.195-1.43
			c-3.021-3.225-2.862-13.078-2.498-18.666l0.173-2.66l13.511-0.717c0.334-2.667,0.336-6.162,0.254-8.784l-12.628,0.2l-0.593-15.119
			c-4.902,0.425-9.936,1.095-12.297,1.734c-0.148,1.621-0.425,4.575-0.941,10.021l-0.229,2.429l-7.026,0.781
			C421.589,194.985,421.521,198.413,421.497,200.651z"/>
	</g>
	<g>
		<path fill="#FFFFFF" d="M468.047,224.513l6.601-0.399l0.101-23.502c-0.2-0.199-5.8,0.301-6,0.301
			c-0.101,0-1.601-12.5-1.601-13.001c0-0.5,20.201-3.5,20.201-3.5l3.2,6.8c0,0,3.4-4.8,11.901-4.8c9,0,15.801,7.101,15.701,7.801
			c-0.2,1.8-10.301,14.201-10.602,13.9c-1.3-1.3-4.1-4-7.601-4c-5.2,0-8.7,4.101-8.7,10.102c0,6.5,0.8,9.601,0.8,9.601l10.201,1.301
			l0.2,13.001c-0.5,0.5-33.803,0.199-33.702,0.199C468.747,238.314,467.947,230.914,468.047,224.513z"/>
		<path d="M487.646,241.403c-4.532,0-9.264-0.021-12.861-0.044l-4.38-0.03c-1.813-0.015-4.531-0.036-4.652-2.818
			c-0.109-1.047-0.799-7.917-0.704-14.043l0.043-2.779l6.569-0.397l0.075-17.593c-0.772,0.054-1.522,0.112-1.994,0.15
			c-0.562,0.044-0.938,0.065-0.994,0.065c-2.667,0-2.958-2.221-3.268-4.571c-0.155-1.188-0.354-2.776-0.549-4.38
			c-0.785-6.453-0.785-6.902-0.785-7.05c0-2.666,2.231-3.081,5.609-3.708c1.699-0.315,4.059-0.717,7.016-1.192
			c5.067-0.814,10.136-1.568,10.136-1.568l2.206-0.327l2.472,5.253c2.323-1.492,5.875-2.958,10.864-2.958
			c8.316,0,15.009,5.182,17.385,7.922c0.746,0.859,1.482,1.925,1.285,3.303c-0.079,0.726-0.216,1.964-5.78,9.048
			c-5.836,7.432-6.363,7.433-7.771,7.435l-1.244,0.001l-0.896-0.885c-0.854-0.855-3.122-3.124-5.48-3.124
			c-4.203,0-5.7,3.669-5.7,7.102c0,3.146,0.197,5.439,0.383,6.906l10.577,1.348l0.26,16.872l-0.897,0.896
			C503.468,241.337,503.402,241.403,487.646,241.403z M471.485,235.336c3.53,0.025,9.992,0.066,16.158,0.066
			c6.29,0,9.803-0.044,11.762-0.092l-0.116-7.551l-9.638-1.228l-0.509-1.97c-0.092-0.354-0.895-3.662-0.895-10.35
			c0-7.713,4.812-13.102,11.7-13.102c3.092,0,5.654,1.444,7.451,2.837c2.182-2.573,5.713-7.08,7.217-9.386
			c-1.865-1.751-6.439-5.151-12.167-5.151c-6.688,0-9.37,3.428-9.481,3.572l-2.973,4.197l-4.411-9.472
			c-5.943,0.897-12.014,1.878-15.178,2.475c0.252,2.171,0.632,5.315,0.913,7.526c1.165-0.082,2.24-0.146,2.927-0.146
			c0.551,0,1.696,0,2.622,0.927l0.884,0.884l-0.118,27.563l-6.58,0.399C471.116,230.331,471.318,233.297,471.485,235.336z"/>
	</g>
	<g>
		<path fill="#FFFFFF" d="M523.547,225.513l8.601-0.399l0.101-20.302c-0.2-0.2-7.8,0.3-8,0.3c-0.101,0-1.601-13.101-1.601-13.601
			s21.103-1.5,27.902,0.1v33.202l8.201,1.301l0.2,12.001c-0.5,0.5-34.802,0.199-34.702,0.199
			C524.247,238.314,523.447,231.914,523.547,225.513z M529.948,171.91c-0.101-6.4,4.5-10.4,9.8-10.4c5.399,0,10.401,4.6,10.401,9.9
			c0,5.399-2.5,10.7-9.302,10.7C533.948,182.11,530.147,178.21,529.948,171.91z"/>
		<path d="M543.713,241.403c-4.667,0-9.54-0.021-13.247-0.044l-4.512-0.03c-1.936-0.016-4.568-0.035-4.703-2.791
			c-0.123-1.033-0.799-7-0.704-13.071l0.044-2.819l8.57-0.398l0.07-14.407c-1.451,0.068-3.084,0.165-3.985,0.218
			c-0.579,0.034-0.954,0.052-1,0.052c-2.683,0-2.967-2.273-3.269-4.682c-0.155-1.243-0.354-2.906-0.549-4.584
			c-0.52-4.473-0.783-6.94-0.783-7.334c0-2.81,2.881-3.114,3.966-3.229c0.873-0.093,2.092-0.184,3.525-0.264
			c3.183-0.177,6.983-0.277,10.429-0.277c6.391,0,10.989,0.319,13.67,0.949l2.313,0.544v33.017l8.158,1.293l0.263,15.792
			l-0.898,0.898C559.946,241.359,559.902,241.403,543.713,241.403z M526.956,235.335c3.612,0.025,10.34,0.067,16.757,0.067
			c6.556,0,10.183-0.045,12.189-0.094l-0.11-6.627l-8.243-1.307v-33.216c-2.401-0.272-5.83-0.418-9.982-0.418
			c-4.645,0-9.011,0.183-11.638,0.364c0.258,2.32,0.638,5.594,0.913,7.854c1.688-0.094,3.692-0.193,4.757-0.193
			c0.735,0,1.848,0,2.773,0.929l0.882,0.885l-0.12,24.398l-8.576,0.399C526.617,231.057,526.798,233.562,526.956,235.335z
			 M540.848,185.11c-8.316,0-13.643-5.021-13.898-13.104c-0.061-3.83,1.249-7.274,3.685-9.749c2.379-2.417,5.616-3.747,9.114-3.747
			c7.139,0,13.401,6.028,13.401,12.9C553.149,179.732,548.321,185.11,540.848,185.11z M539.748,164.509
			c-1.878,0-3.597,0.695-4.839,1.957c-1.318,1.338-1.996,3.205-1.962,5.397c0.151,4.793,2.811,7.247,7.9,7.247
			c5.208,0,6.302-4.188,6.302-7.7C547.149,167.864,543.552,164.509,539.748,164.509z"/>
	</g>
	<g>
		<path fill="#FFFFFF" d="M564.747,224.914c0.5,0,7.201-0.5,7.201-0.5l-0.2-41.604c0,0-7.8-0.1-7.9-0.3
			c-0.1-0.2,0.3-12.801,0.4-13.101c0.1-0.301,22.401-3.4,22.901-3c2.699,2.1,1.6,26.9,1.6,40.603c0,0,10.4-5.601,10.4-6.201
			c0-0.6-4.199-1.1-4.5-1.6c-0.199-0.5-0.899-10.701-0.899-11.201s31.401,0.4,31.401,1s0.301,12.801,0,13.301
			c-0.299,0.5-6.5-0.399-6.799-0.2c-0.301,0.2-10.001,8-10.4,8.701c-0.399,0.8,14.2,14.3,14.7,14.5s6.501,0.7,6.601,0.8
			c0.1,0.102,0.9,11.901,0.6,12.103c-0.299,0.199-31.401,1.6-31.901,0.3c-0.5-1.399-1.4-12.501-1.2-12.501c0.3,0,3.8-0.6,3.8-0.899
			c-0.6-0.699-10.101-9.5-11.201-8.2c-0.399,0.5-0.3,6.899-0.3,7.501c0,0.5,4.2,1.1,4.2,1.3s-0.4,11.801-0.4,12.301
			s-27.502,0.5-27.502,0.5C565.247,238.314,564.247,224.914,564.747,224.914z"/>
		<path d="M605.415,242.061c-7.232,0-9.237-0.208-10.151-2.195c-0.925,1.15-2.692,1.264-3.405,1.309
			c-0.778,0.049-1.891,0.092-3.225,0.129c-2.299,0.063-5.499,0.113-9.508,0.149c-6.889,0.063-13.778,0.063-13.778,0.063h-1.854
			l-0.829-1.658c-0.274-0.549-0.4-0.799-0.821-7.771c-0.452-7.48-0.211-7.869,0.315-8.721l0.879-1.424l1.709-0.026
			c0.275-0.008,2.068-0.133,4.188-0.287l-0.173-35.857c-6.411-0.104-6.788-0.301-7.597-1.915
			c-0.773-1.547,0.204-15.299,0.236-15.394c0.667-1.997,0.667-1.997,12.717-3.647c3.162-0.433,10.729-1.439,12.71-1.439
			c0.363,0,1.328,0,2.194,0.692c2.212,1.721,2.946,6.008,2.933,21.485c1.151-0.687,3.026-0.687,5.172-0.687
			c4.01,0,10.909,0.158,17.167,0.396c3.193,0.121,5.895,0.25,7.813,0.375c3.376,0.22,6.044,0.395,6.044,3.374
			c0,0.105,0.008,0.489,0.02,1.062c0.248,12.625,0.113,12.847-0.447,13.781c-0.965,1.612-2.758,1.612-3.521,1.612
			c-1.026,0-2.456-0.128-3.717-0.241c-0.363-0.032-0.772-0.068-1.121-0.097c-1.609,1.281-5.163,4.168-7.348,6.022
			c3.041,3.183,9.819,9.556,11.904,11.341c0.785,0.101,2.169,0.242,3.08,0.336c3.305,0.339,3.574,0.366,4.371,1.165
			c0.896,0.903,0.896,0.903,1.289,7.367c0.348,5.725,0.252,6.667,0.221,6.978c-0.133,1.298-0.816,2.008-1.369,2.375
			c-0.838,0.557-0.904,0.602-10.325,0.975C617.657,241.826,610.915,242.061,605.415,242.061z M600.539,235.958
			c0.94,0.055,2.457,0.103,4.876,0.103c6.954,0,16.829-0.396,21.453-0.64c-0.084-1.966-0.25-4.696-0.389-6.615
			c-0.029-0.003-0.061-0.006-0.092-0.01c-3.672-0.376-4.262-0.461-4.853-0.698c-1.286-0.515-15.434-13.604-16.376-16.086
			c-0.324-0.852-0.287-1.754,0.104-2.54l0.08-0.148c0.902-1.577,11.25-9.646,11.344-9.709c0.795-0.532,1.619-0.532,1.931-0.532
			c0.515,0,1.248,0.063,2.399,0.167c0.4,0.036,0.838,0.075,1.267,0.109c0.005-1.529-0.018-3.941-0.086-7.707
			c-5.23-0.356-18.175-0.786-25.071-0.786c-0.066,0-0.132,0-0.196,0c0.139,1.966,0.328,4.484,0.474,6.117
			c0.011,0.002,0.021,0.006,0.031,0.008c2.1,0.503,4.713,1.13,4.713,3.82c0,1.934,0,2.393-11.979,8.842l-4.422,2.382v-5.022
			c0-2.938,0.05-6.356,0.103-9.977c0.129-8.793,0.334-22.924-0.606-27.552c-4.08,0.39-13.816,1.71-18.128,2.409
			c-0.085,2.169-0.189,5.496-0.246,7.813c1.438,0.044,3.271,0.083,4.916,0.104l2.947,0.038l0.228,47.35l-2.791,0.207
			c-1.499,0.112-3.161,0.234-4.537,0.331c0.077,2.202,0.281,5.485,0.451,7.776c8.688-0.015,17.685-0.101,21.847-0.25
			c0.043-1.332,0.104-3.172,0.186-5.59c0.02-0.585,0.038-1.143,0.055-1.645c-2.167-0.516-4.124-1.263-4.124-3.614l-0.002-0.323
			c-0.063-7.472,0.23-8.14,0.959-9.052c0.694-0.822,1.653-1.257,2.683-1.257c3.907,0,13.058,9.283,13.138,9.377l0.724,0.843v1.11
			c0,2.394-2.147,3.061-3.715,3.403C599.991,230.725,600.286,233.956,600.539,235.958z M592.038,222.301
			c0.168,0.037,0.323,0.071,0.446,0.098c0.229,0.051,0.478,0.104,0.732,0.169c-0.399-0.327-0.797-0.646-1.178-0.945
			C592.039,221.836,592.038,222.063,592.038,222.301z M591.807,200.15c-0.008,0.598-0.016,1.187-0.021,1.766
			c0.285-0.161,0.565-0.319,0.838-0.476c-0.204-0.193-0.386-0.418-0.546-0.685l-0.214-0.432
			C591.844,200.278,591.826,200.22,591.807,200.15z"/>
	</g>
	<g>
		<path fill="#FFFFFF" d="M670.245,213.712c6.801-1.5,13.701-1.8,15.701-1.5c1.801,6.8,5.9,10.399,9.1,10.399
			c2.9,0,5.502-1.6,5.502-4.6c0-5.7-6.4-7.5-12.402-10.801c-8.898-4.7-17.5-9.8-17.5-24.102c0-9.9,8.199-18.001,21.602-18.001
			c5.801,0,9.4,2.2,11.102,4l0.699-4.8c0,0,10.402-0.399,15.301,1.7c0.502,0.2-1.199,19.501-1.199,22.701
			c0,1.5-15.602,1.399-15.602,1c-0.5-5.8-3.9-8-7-8c-1.801,0-5.5,0.899-5.5,4.899c0,3.601,7.5,5.801,14.9,10.201
			c8.9,5.2,16.4,10.5,16.4,22.801c0,11.302-9.801,19.802-19.801,19.802c-10.301,0-14.002-3.899-15.502-5.601
			c-0.199,2.2-0.4,6.2-0.5,6.2c-0.5-0.2-15.102-0.9-15.102-0.9C670.245,236.914,670.245,218.913,670.245,213.712z"/>
		<path d="M685.545,243.014h-0.578l-0.213-0.085c-1.521-0.152-8.326-0.525-14.453-0.819l-2.607-0.125l-0.236-2.601
			c-0.145-1.593-0.211-9.75-0.211-25.672v-2.411l2.354-0.519c5.605-1.236,11.215-1.676,14.313-1.676
			c0.553,0,1.047,0.014,1.479,0.039c-7.854-4.192-17.744-10.258-17.744-26.036c0-12.169,10.346-21.001,24.6-21.001
			c3.768,0,6.672,0.812,8.826,1.815l0.367-2.516l2.492-0.098c0,0,0.836-0.033,2.154-0.033c4.488,0,10.639,0.343,14.443,1.974
			c2.133,0.849,2.043,2.482,1.773,7.333c-0.145,2.583-0.377,5.884-0.602,9.077c-0.273,3.875-0.555,7.88-0.555,9.049
			c0,3.34-2.963,4.255-13.773,4.255c-1.205,0-2.336-0.021-3.232-0.06c0.773,0.42,1.557,0.86,2.34,1.326
			c9.406,5.496,17.867,11.582,17.867,25.38c0,13.64-11.791,22.802-22.803,22.802c-6.068,0-10.186-1.292-12.955-2.775
			C688.315,241.733,687.69,243.014,685.545,243.014z M673.348,236.251c4.607,0.227,7.557,0.392,9.471,0.519
			c0.074-1.116,0.156-2.321,0.24-3.229l0.631-6.935l4.605,5.222c1.105,1.254,4.045,4.584,13.252,4.584
			c7.947,0,16.801-6.9,16.801-16.802c0-10.672-6.182-15.107-14.914-20.211c-2.174-1.292-4.313-2.366-6.383-3.406
			c-5.59-2.809-10.006-5.026-10.006-9.385c0-5.187,4.277-7.899,8.5-7.899c3.967,0,8.184,2.565,9.582,8.227
			c0.604,0.018,1.354,0.029,2.246,0.029c3.611,0,6.313-0.176,7.854-0.371c0.104-1.841,0.287-4.467,0.49-7.354
			c0.248-3.516,0.594-8.405,0.695-11.024c-2.365-0.574-5.813-0.906-9.768-0.935l-1.227,8.396l-4.254-4.509
			c-0.678-0.718-3.324-3.061-8.92-3.061c-10.951,0-18.602,6.169-18.602,15.001c0,12.115,6.592,16.531,15.902,21.448
			c1.148,0.632,2.299,1.202,3.412,1.752c4.963,2.458,10.588,5.243,10.588,11.701c0,4.404-3.576,7.6-8.502,7.6
			c-4.594,0-9.057-4.223-11.334-10.504c-2.391,0.017-6.297,0.31-10.465,1.063C673.252,227.62,673.299,233.385,673.348,236.251z
			 M688.7,210.892l0.146,0.553c1.475,5.572,4.57,8.168,6.199,8.168c0.418,0,2.5-0.076,2.5-1.6c0-2.476-2.209-3.828-7.25-6.325
			C689.77,211.428,689.239,211.165,688.7,210.892z M693.047,186.528c0.504,0.985,4.135,2.818,6.604,4.06
			c-0.055-0.213-0.09-0.446-0.102-0.701c-0.305-3.291-1.762-5.176-4.004-5.176C694.807,184.71,693.102,184.89,693.047,186.528z"/>
	</g>
	<g>
		<path fill="#FFFFFF" d="M731.645,203.812c0-0.2-6.9-0.1-7.102-0.3c-0.199-0.2,0.201-14.701,0.201-14.701l7.199-0.8
			c0,0,1.1-11.601,1.1-11.801c2.701-1.9,18.002-2.9,18.002-2.9l0.6,15.301l12.604-0.199c0,0,0.699,9.899-0.602,14.7l-13.199,0.7
			c0,0-1.102,16.901,2.697,16.901c3.102,0,7.4-3.101,7.4-3.101l7.201,14.4c0,0-9.201,8.501-20.201,8.501
			C730.944,240.514,731.645,222.913,731.645,203.812z"/>
		<path d="M747.545,243.514c-5.133,0-9.26-1.525-12.266-4.537c-6.57-6.581-6.656-19.041-6.639-32.309
			c-0.188-0.003-0.367-0.005-0.535-0.008c-4.186-0.061-4.723-0.067-5.684-1.028c-1.113-1.115-1.113-1.115-0.678-16.905l0.072-2.61
			l7.369-0.819c0.373-3.958,0.797-8.469,0.855-9.194v-1.452l1.275-0.896c3.059-2.152,14.678-3.123,19.531-3.44l3.072-0.2
			l0.605,15.448l12.51-0.197l0.201,2.833c0.074,1.064,0.693,10.555-0.697,15.695l-0.568,2.098l-12.656,0.671
			c-0.133,4.66,0.172,9.073,0.758,10.903c1.502-0.402,3.559-1.559,4.721-2.391l2.857-2.048l9.785,19.558l-1.654,1.53
			C769.372,234.596,759.581,243.514,747.545,243.514z M727.495,200.651c0.246,0.005,0.482,0.008,0.699,0.012
			c4.021,0.057,6.449,0.092,6.449,3.149l-0.002,2.235c-0.018,12.222-0.033,23.767,4.883,28.69c1.865,1.868,4.49,2.776,8.021,2.776
			c7.109,0,13.498-4.085,16.445-6.306l-4.668-9.335c-1.775,0.928-4.061,1.84-6.178,1.84c-1.195,0-2.332-0.508-3.195-1.43
			c-3.021-3.225-2.861-13.079-2.498-18.666l0.174-2.66l13.51-0.717c0.334-2.665,0.336-6.161,0.256-8.784l-12.629,0.2l-0.592-15.119
			c-4.902,0.425-9.938,1.095-12.299,1.735c-0.148,1.621-0.424,4.575-0.941,10.021l-0.229,2.429l-7.025,0.781
			C727.586,194.985,727.518,198.413,727.495,200.651z"/>
	</g>
	<g>
		<path fill="#FFFFFF" d="M771.645,212.512c0-19.001,12.199-24.602,22.4-24.602c8.5,0,14.801,5,14.801,5v-5
			c0,0,21.201-0.7,21.201-0.2s0.701,13.301,0.6,13.301c-0.197,0-7.197,1.5-7.398,1.7c-0.299,0.2,0.201,21.101,0.201,21.101
			c0.1,0,8.299-0.1,8.398,0.602c0.199,0.698,0.199,14-0.201,14c-0.299,0-22.699-0.399-22.699-0.699c0-0.301-1-5.102-1-5.102
			s-4,6.602-14.201,6.602C784.545,239.214,771.645,233.115,771.645,212.512z M805.045,213.012c0-5.3-3.299-9.7-7.4-9.7
			c-5,0-8.299,3.5-8.299,9.5c0,5.8,3.898,9.5,7.9,9.5C801.747,222.313,805.045,218.614,805.045,213.012z"/>
		<path d="M793.745,242.214c-12.494,0-25.102-9.184-25.102-29.702c0-20.351,13.121-27.602,25.402-27.602
			c4.738,0,8.848,1.366,11.801,2.757v-2.66l2.9-0.096c0.473-0.017,11.627-0.381,17.666-0.381c3.707,0,6.635,0,6.635,3.18
			c0.006,0.231,0.08,1.689,0.174,3.537c0.551,10.832,0.551,10.832-0.398,11.831l-0.889,0.933h-1.037
			c-0.754,0.146-3.061,0.641-4.746,1.031c-0.012,3.119,0.092,9.479,0.229,15.769c5.17,0.03,8.027,0.321,8.438,3.175h-0.002
			c0.092,0.647,0.191,2.316,0.158,7.509c-0.051,7.57-0.285,7.882-0.91,8.711l-0.898,1.191l-1.52,0.016
			c-0.203,0-5.98-0.104-11.535-0.238c-2.832-0.069-5.656-0.147-7.773-0.229c-3.537-0.134-5.83-0.221-6.301-2.33
			C803.336,240.478,799.321,242.214,793.745,242.214z M794.045,190.911c-5.832,0-19.4,2.104-19.4,21.602
			c0,22.561,15.91,23.702,19.102,23.702c8.279,0,11.604-5.104,11.635-5.155l3.949-6.516l1.553,7.459
			c0.256,1.226,0.451,2.173,0.6,2.909c4.02,0.173,12.869,0.365,17.43,0.454c0.07-2.432,0.09-6.119,0.053-8.456
			c-0.988-0.058-2.432-0.102-4.434-0.102l-3.973,0.031l-0.107-2.955c-0.541-22.551-0.541-22.551,1.131-23.667l0.02,0.032
			c1.217-0.681,3.855-1.295,5.973-1.708c-0.094-2.085-0.244-5.067-0.344-6.99c-0.02-0.376-0.035-0.714-0.051-1.019
			c-0.23-0.001-0.484-0.002-0.766-0.002c-4.086,0-10.76,0.177-14.566,0.288v8.303l-4.865-3.861
			C806.934,195.224,801.336,190.911,794.045,190.911z M830.647,198.012c-0.328,0-0.639,0.051-0.924,0.144
			C830.284,198.063,830.633,198.012,830.647,198.012z M797.247,225.313c-5.359,0-10.9-4.676-10.9-12.5
			c0-7.477,4.541-12.5,11.299-12.5c5.734,0,10.4,5.697,10.4,12.7C808.045,220.14,803.504,225.313,797.247,225.313z M797.645,206.312
			c-4.609,0-5.299,4.073-5.299,6.5c0,4.069,2.49,6.5,4.9,6.5c2.916,0,4.799-2.473,4.799-6.301
			C802.045,209.443,799.989,206.312,797.645,206.312z"/>
	</g>
	<g>
		<path fill="#FFFFFF" d="M844.543,203.812c0-0.2-6.9-0.1-7.102-0.3c-0.199-0.2,0.199-14.701,0.199-14.701l7.201-0.8
			c0,0,1.1-11.601,1.1-11.801c2.701-1.9,18.002-2.9,18.002-2.9l0.6,15.301l12.602-0.199c0,0,0.699,9.899-0.6,14.7l-13.201,0.7
			c0,0-1.1,16.901,2.699,16.901c3.102,0,7.4-3.101,7.4-3.101l7.201,14.4c0,0-9.201,8.501-20.201,8.501
			C843.842,240.514,844.543,222.913,844.543,203.812z"/>
		<path d="M860.444,243.514c-5.133,0-9.26-1.525-12.268-4.537c-6.57-6.581-6.654-19.041-6.637-32.309
			c-0.189-0.003-0.367-0.005-0.535-0.008c-4.188-0.061-4.723-0.067-5.684-1.028c-1.113-1.115-1.113-1.115-0.68-16.905l0.072-2.61
			l7.371-0.819c0.373-3.958,0.797-8.469,0.855-9.194v-1.452l1.273-0.896c3.061-2.152,14.68-3.123,19.533-3.44l3.072-0.2
			l0.604,15.448l12.512-0.197l0.199,2.833c0.076,1.064,0.695,10.555-0.697,15.695l-0.566,2.098l-12.656,0.671
			c-0.133,4.66,0.17,9.073,0.756,10.903c1.502-0.402,3.561-1.559,4.721-2.391l2.859-2.048l9.785,19.558l-1.656,1.53
			C882.27,234.596,872.479,243.514,860.444,243.514z M840.393,200.651c0.246,0.005,0.482,0.008,0.699,0.012
			c4.021,0.057,6.451,0.092,6.451,3.149l-0.002,2.235c-0.02,12.222-0.035,23.767,4.883,28.69c1.865,1.868,4.488,2.776,8.021,2.776
			c7.107,0,13.496-4.085,16.443-6.306l-4.668-9.335c-1.775,0.928-4.061,1.84-6.178,1.84c-1.195,0-2.332-0.508-3.195-1.43
			c-3.02-3.225-2.861-13.079-2.498-18.666l0.174-2.66l13.512-0.717c0.334-2.665,0.336-6.161,0.254-8.784l-12.627,0.2l-0.594-15.119
			c-4.902,0.425-9.938,1.095-12.299,1.735c-0.146,1.621-0.424,4.575-0.939,10.021l-0.23,2.429l-7.025,0.781
			C840.485,194.985,840.417,198.413,840.393,200.651z"/>
	</g>
	<g>
		<path fill="#FFFFFF" d="M889.243,225.513l8.6-0.399l0.1-20.302c-0.197-0.2-7.799,0.3-8,0.3c-0.1,0-1.6-13.101-1.6-13.601
			s21.104-1.5,27.902,0.1v33.202l8.199,1.301l0.199,12.001c-0.5,0.5-34.801,0.199-34.701,0.199
			C889.942,238.314,889.143,231.914,889.243,225.513z M895.643,171.91c-0.1-6.4,4.5-10.4,9.801-10.4c5.4,0,10.4,4.6,10.4,9.9
			c0,5.399-2.5,10.7-9.301,10.7C899.643,182.11,895.842,178.21,895.643,171.91z"/>
		<path d="M909.409,241.403c-4.668,0-9.541-0.021-13.246-0.044l-4.512-0.03c-1.938-0.016-4.57-0.035-4.703-2.791
			c-0.123-1.033-0.801-7-0.705-13.072l0.045-2.818l8.568-0.398l0.07-14.407c-1.451,0.068-3.082,0.165-3.982,0.218
			c-0.58,0.034-0.955,0.052-1.002,0.052c-2.684,0-2.969-2.273-3.27-4.682c-0.154-1.243-0.354-2.906-0.549-4.585
			c-0.52-4.472-0.781-6.94-0.781-7.333c0-2.81,2.881-3.114,3.965-3.229c0.871-0.093,2.092-0.184,3.525-0.264
			c3.182-0.177,6.982-0.277,10.428-0.277c6.393,0,10.99,0.319,13.67,0.949l2.314,0.544v33.017l8.158,1.293l0.262,15.792
			l-0.898,0.898C925.641,241.359,925.598,241.403,909.409,241.403z M892.651,235.335c3.611,0.025,10.34,0.067,16.758,0.067
			c6.555,0,10.182-0.045,12.188-0.094l-0.109-6.627l-8.242-1.307v-33.216c-2.402-0.272-5.83-0.418-9.982-0.418
			c-4.645,0-9.01,0.183-11.637,0.364c0.258,2.32,0.635,5.594,0.912,7.854c1.688-0.094,3.689-0.193,4.756-0.193
			c0.736,0,1.85,0,2.775,0.932l0.879,0.884l-0.119,24.396l-8.574,0.399C892.313,231.057,892.493,233.562,892.651,235.335z
			 M906.543,185.11c-8.316,0-13.643-5.021-13.898-13.105c-0.061-3.829,1.248-7.273,3.686-9.748c2.379-2.417,5.615-3.748,9.113-3.748
			c7.139,0,13.4,6.028,13.4,12.9C918.844,179.732,914.016,185.11,906.543,185.11z M905.444,164.509c-1.879,0-3.598,0.695-4.84,1.957
			c-1.316,1.338-1.996,3.205-1.961,5.396c0.15,4.794,2.811,7.248,7.9,7.248c5.207,0,6.301-4.188,6.301-7.7
			C912.844,167.864,909.249,164.509,905.444,164.509z"/>
	</g>
	<g>
		<path fill="#FFFFFF" d="M930.842,220.114c4.5-0.801,11.102-0.7,12.4-0.5c1.199,3.8,4,5.801,6.1,5.801c2,0,3.701-0.9,3.701-2.602
			c0-3.199-4.301-4.199-8.301-6c-6-2.6-12.9-6.399-12.9-16.801c0-7,6.5-14.001,18.201-14.001c5.1,0,8.199,1.6,9.699,2.9l0.602-3.5
			c0,0,10-0.301,14.301,1.199c0.4,0.2-1,16.001-1,17.802c0,0.8-13.699-0.2-13.699-0.5c-0.303-3.2-3.102-4.4-5.201-4.4
			c-1.199,0-3.102,0.3-3.102,2.5c0,2,5.602,3.5,10.5,5.9c6.002,2.8,12.502,8.5,12.502,17.4c0,8.102-7.699,14.302-16.502,14.302
			c-9,0-11.699-2.101-13-3.301c-0.199,1.601-0.398,4.102-0.5,4.102c-0.398-0.102-13.602-1.102-13.602-1.102
			C930.842,237.814,930.842,223.013,930.842,220.114z"/>
		<path d="M944.643,243.415l-0.568-0.05c-1.203-0.132-8.668-0.712-13.258-1.061l-2.428-0.184l-0.32-2.413
			c-0.057-0.42-0.227-1.697-0.227-19.597v-2.514l2.477-0.439c2.436-0.434,5.246-0.597,7.291-0.656
			c-4.348-2.859-8.768-7.702-8.768-16.492c0-8.242,7.432-17.001,21.201-17.001c3.125,0,5.578,0.526,7.459,1.223l0.299-1.747
			l2.453-0.073c0,0,0.852-0.026,2.17-0.026c4.205,0,9.91,0.242,13.209,1.392l0.354,0.149c1.938,0.969,1.852,2.454,1.59,6.862
			c-0.135,2.295-0.352,5.22-0.541,7.806c-0.184,2.473-0.391,5.276-0.391,5.816c0,3.303-3.598,3.303-5.529,3.304
			c-0.949,0-2.131-0.033-3.426-0.092c6.299,4.328,9.955,10.692,9.955,17.688c0,9.54-8.748,17.301-19.502,17.301
			c-4.955,0-8.289-0.607-10.639-1.463C947.129,242.451,946.383,243.415,944.643,243.415z M933.936,236.525
			c3.893,0.298,6.428,0.499,8.092,0.638c0.047-0.429,0.094-0.85,0.141-1.224l0.727-5.788l4.285,3.959
			c0.742,0.686,2.709,2.503,10.965,2.503c7.443,0,13.5-5.068,13.5-11.301c0-8.716-7.529-13.171-10.77-14.682
			c-1.418-0.695-2.859-1.297-4.254-1.879c-4.457-1.862-7.979-3.333-7.979-6.74c0-3.341,2.396-5.5,6.102-5.5
			c3.035,0,6.254,1.614,7.59,4.727c2.119,0.202,5.82,0.456,8.459,0.477c0.064-0.949,0.15-2.131,0.258-3.561
			c0.199-2.717,0.498-6.764,0.617-9.182c-2.131-0.359-5.219-0.569-8.791-0.585l-1.076,6.277l-4.021-3.486
			c-0.588-0.509-2.879-2.167-7.734-2.167c-9.873,0-15.201,5.668-15.201,11.001c0,8.527,5.48,11.616,11.094,14.048
			c0.764,0.342,1.496,0.641,2.211,0.932c3.52,1.43,7.896,3.209,7.896,7.821c0,3.245-2.818,5.602-6.701,5.602
			c-3.242,0-6.395-2.354-8.166-5.924c-0.408-0.012-0.887-0.019-1.438-0.019c-1.117,0-3.506,0.032-5.896,0.265
			C933.852,230.324,933.895,234.37,933.936,236.525z M947.463,221.209c0.771,0.874,1.561,1.204,1.879,1.204
			c0.127,0,0.24-0.006,0.342-0.018C949.2,222.019,948.317,221.586,947.463,221.209z"/>
	</g>
</g>
<line fill="none" stroke="#000000" stroke-width="5.9796" stroke-miterlimit="10" x1="0" y1="110.46" x2="1247.493" y2="110.46"/>
</svg>
