<?xml version="1.0" encoding="utf-8"?>
<!-- Generator: Adobe Illustrator 16.0.0, SVG Export Plug-In . SVG Version: 6.00 Build 0)  -->
<!DOCTYPE svg PUBLIC "-//W3C//DTD SVG 1.1//EN" "http://www.w3.org/Graphics/SVG/1.1/DTD/svg11.dtd">
<svg version="1.1" id="Layer_1" xmlns="http://www.w3.org/2000/svg" xmlns:xlink="http://www.w3.org/1999/xlink" x="0px" y="0px"
	 width="1422.043px" height="166.998px" viewBox="0 0 1422.043 166.998" enable-background="new 0 0 1422.043 166.998"
	 xml:space="preserve">
<text transform="matrix(1 0 0 1 1280.0005 720)" font-family="'MyriadPro-Regular'" font-size="12">.no1, .no2, .no3 {</text>
<g>
	<g>
		<g>
			<path fill="#FFFFFF" d="M4.604,128.897c0.4-0.399,13.399-0.6,13.8-1c0.4-0.399,0.8-60.599,2-79.599c0-1-12,0.2-12.4,0
				c-0.4-0.2-2.6-30.2-0.6-31.399c1.2-0.6,67.199,1.2,67.199,1.4c0,0.2,1.4,29.2,0.2,29.6c-1.2,0.4-16.4,2.2-16.4,2.2
				c-2,14.4-3.2,77.599-3,77.599c0.2,0,20.4-0.4,20.6-0.8c0.2-0.4,6.8-25,6.8-25.799c0-0.801,26,3,26.6,3.399s1.2,53.999,0.6,53.999
				s-104.999,1.8-104.999-0.4C5.004,155.899,4.204,129.298,4.604,128.897z"/>
		</g>
		<g>
			<path d="M38.701,163.69c-10.282,0-18.35-0.08-23.979-0.235c-3.276-0.091-5.714-0.206-7.454-0.351
				c-2.024-0.168-6.765-0.563-6.765-5.008c0-0.529-0.061-3.007-0.131-5.873c-0.609-24.853-0.609-24.853,1.051-26.511
				c1.434-1.433,2.071-1.462,9.875-1.812c0.836-0.037,1.84-0.082,2.793-0.129c0.104-4.116,0.221-11.234,0.343-18.637
				c0.281-17.078,0.654-39.756,1.243-52.692c-1.388,0.055-2.899,0.146-4.205,0.225c-1.61,0.098-2.551,0.153-3.165,0.153
				c-0.396,0-1.322,0-2.318-0.499c-2.438-1.22-3.017-1.51-3.768-21.213C1.668,16.572,2.619,14.522,5.089,13.041l0.302-0.166
				c1.061-0.53,1.74-0.597,6.058-0.597c6.25,0,20.135,0.261,37.145,0.698c6.995,0.18,13.536,0.365,18.327,0.516
				c2.407,0.076,4.375,0.143,5.741,0.197c0.707,0.028,1.258,0.052,1.632,0.072c4.331,0.233,4.764,3.556,4.804,4.39H79.1l0.022,0.505
				c0.274,6.129,0.467,11.51,0.574,15.993c0.312,13.118,0.386,16.234-3.471,17.519c-0.411,0.137-1.447,0.482-13.744,1.974
				c-1.419,15.469-2.356,55.636-2.558,68.958c3.948-0.096,9.376-0.248,12.599-0.401c1.724-6.279,5.552-20.739,5.833-22.251
				c-0.06,0.32-0.052,0.544-0.052,0.65c0-1.596,1.078-4.611,5.157-4.611c2.694,0,10.499,1.043,14.911,1.664
				c12.199,1.718,12.615,1.994,13.527,2.603c2.417,1.611,2.417,1.611,2.746,30.136c0.31,26.834-0.09,28.154-0.304,28.862
				l-0.967,3.196l-4.547,0.066C81.378,163.452,56.475,163.69,38.701,163.69z M9.425,154.244c3.701,0.217,11.759,0.446,29.276,0.446
				c17.087,0,40.794-0.223,67.022-0.627c0.133-10.027-0.173-36.668-0.535-45.793c-4.771-0.771-13.915-2.07-18.867-2.574
				c-1.973,7.937-6.236,23.1-6.292,23.212c-1.247,2.493-3.319,2.595-7.082,2.778c-1.736,0.084-4.129,0.172-7.111,0.26
				c-4.983,0.146-10.208,0.252-10.433,0.252h-2.048l-1.347-1.545c-1.44-1.654-1.467-1.687-0.425-36.582
				c0.479-16.028,1.278-36.775,2.363-44.591l0.478-3.441l3.45-0.409c4.665-0.552,9.763-1.192,12.894-1.626
				c0.079-3.429-0.02-10.232-0.483-21.394c-11.718-0.399-46.593-1.333-58.835-1.333c-0.118,0-0.232,0-0.342,0
				c-0.22,5.277,0.368,16.401,0.862,22.345c1.914-0.113,4.073-0.228,5.805-0.228c4.731,0,7.13,1.65,7.13,4.903l-0.009,0.284
				c-0.714,11.301-1.146,37.542-1.461,56.702c-0.105,6.417-0.198,12.056-0.285,16.11c-0.177,8.299-0.177,8.299-1.563,9.685
				c-1.436,1.437-2.074,1.464-9.884,1.813c-0.811,0.036-1.78,0.08-2.708,0.125C9.032,138.142,9.259,147.39,9.371,152
				C9.391,152.84,9.409,153.586,9.425,154.244z M87.303,101.099c0,0.228-0.091,0.752-0.252,1.506
				C87.21,102.151,87.303,101.647,87.303,101.099z"/>
		</g>
	</g>
</g>
<g>
	<g>
		<g>
			<path fill="#FFFFFF" d="M122.803,132.498l17.2-0.8l0.2-40.6c-0.4-0.4-15.6,0.6-16,0.6c-0.2,0-3.2-26.2-3.2-27.2
				s42.199-3,55.799,0.2v66.398l16.4,2.601l0.4,24c-1,1-69.599,0.399-69.399,0.399C124.203,158.099,122.604,145.298,122.803,132.498
				z M135.603,25.3c-0.2-12.8,9-20.8,19.6-20.8c10.8,0,20.8,9.2,20.8,19.8c0,10.8-5,21.399-18.6,21.399
				C143.603,45.699,136.003,37.899,135.603,25.3z"/>
		</g>
		<g>
			<path d="M163.152,162.776c-9.659,0-19.739-0.049-26.494-0.09c-3.707-0.021-6.83-0.043-9.026-0.061l-2.558-0.021
				c-4.396-0.037-5.216-2.701-5.348-4.047c-0.161-1.315-1.617-13.61-1.422-26.13l0.066-4.229l17.154-0.798l0.157-31.811
				c-3.229,0.131-7.423,0.381-9.564,0.506c-1.106,0.066-1.825,0.102-1.914,0.102c-2.619,0-4.184-1.682-4.651-5
				c-0.104-0.735-0.24-1.786-0.398-3.051c-0.311-2.482-0.706-5.804-1.095-9.155c-0.581-5.002-1.555-13.536-1.555-14.494
				c0-4.27,4.285-4.723,6.587-4.966c1.72-0.182,4.133-0.362,6.977-0.521c6.337-0.353,13.908-0.555,20.771-0.555
				c8.707,0,20.458,0.323,26.995,1.861l3.469,0.816v66.12l16.336,2.59l0.495,29.687l-1.349,1.349
				C195.067,162.597,194.888,162.776,163.152,162.776z M128.253,153.63c6.809,0.051,21.251,0.146,34.899,0.146
				c14.775,0,22.177-0.111,25.88-0.228l-0.267-15.998l-16.463-2.61V68.47c-4.918-0.658-12.335-1.012-21.464-1.012
				c-10.387,0-19.918,0.444-24.932,0.848c0.555,5.08,1.546,13.687,2.167,18.662c3.578-0.205,8.437-0.463,10.835-0.463
				c1.365,0,3.065,0,4.477,1.412l1.328,1.327l-0.23,46.751l-17.182,0.799C127.388,143.469,127.883,149.762,128.253,153.63z
				 M157.403,50.199c-15.975,0-25.806-9.255-26.297-24.757c-0.114-7.229,2.351-13.737,6.938-18.396
				C142.518,2.502,148.611,0,155.203,0c13.478,0,25.3,11.355,25.3,24.3C180.502,40.033,171.435,50.199,157.403,50.199z M155.203,9
				c-4.161,0-7.977,1.548-10.745,4.36c-2.924,2.97-4.43,7.074-4.355,11.869c0.332,10.422,6.314,15.97,17.3,15.97
				c12.268,0,14.1-10.588,14.1-16.899C171.502,16.292,163.733,9,155.203,9z"/>
		</g>
	</g>
</g>
<g>
	<g>
		<g>
			<path fill="#FFFFFF" d="M206.002,121.698c9-1.6,22.2-1.4,24.8-1c2.4,7.6,8,11.6,12.2,11.6c4,0,7.4-1.8,7.4-5.199
				c0-6.4-8.6-8.4-16.6-12c-12-5.201-25.8-12.801-25.8-33.6c0-14,13-28,36.399-28c10.2,0,16.4,3.2,19.4,5.8l1.2-7
				c0,0,20-0.6,28.6,2.4c0.8,0.4-2,32-2,35.6c0,1.601-27.399-0.399-27.399-1c-0.6-6.4-6.2-8.8-10.4-8.8c-2.399,0-6.2,0.6-6.2,5
				c0,4,11.2,7,21,11.8c12,5.601,25,17,25,34.8c0,16.199-15.399,28.6-33,28.6c-18,0-23.399-4.2-26-6.6c-0.4,3.199-0.8,8.199-1,8.199
				c-0.8-0.199-27.2-2.199-27.2-2.199C206.002,157.099,206.002,127.498,206.002,121.698z"/>
		</g>
		<g>
			<path d="M233.602,166.797h-0.553l-0.315-0.079c-2.099-0.242-17.313-1.425-26.671-2.134l-3.639-0.276l-0.482-3.617
				c-0.109-0.814-0.439-3.295-0.439-38.993v-3.771l3.712-0.659c6.86-1.221,15.276-1.352,18.576-1.352
				c0.397,0,0.787,0.001,1.167,0.005c-9.558-5.055-21.456-14.478-21.456-34.422c0-15.755,14.334-32.5,40.899-32.5
				c7.05,0,12.304,1.371,16.081,3.03l0.705-4.116l3.679-0.111c0,0,1.687-0.051,4.301-0.051c8.292,0,19.519,0.468,25.916,2.7
				l0.529,0.224c2.994,1.496,2.871,3.569,2.354,12.292c-0.272,4.596-0.703,10.436-1.083,15.588
				c-0.385,5.216-0.783,10.61-0.783,11.745c0,5.107-5.754,5.107-9.563,5.107c-3.268,0-7.938-0.195-12.756-0.528
				c9.172,5.003,24.319,16.432,24.319,37.221c0,18.252-16.822,33.101-37.5,33.101c-10.901,0-17.737-1.483-22.314-3.451
				C237.827,165.099,236.251,166.797,233.602,166.797z M210.716,155.913c9.894,0.754,15.631,1.213,18.993,1.5
				c0.136-1.314,0.282-2.71,0.427-3.873l1.085-8.686l6.433,5.937c1.602,1.479,5.857,5.407,22.947,5.407
				c15.715,0,28.5-10.812,28.5-24.1c0-18.293-15.667-27.578-22.402-30.722c-2.854-1.397-5.759-2.61-8.568-3.785
				c-8.396-3.508-15.028-6.278-15.028-12.093c0-5.771,4.2-9.5,10.7-9.5c5.638,0,11.922,2.955,14.133,9.359
				c4.233,0.438,12.76,1.047,18.604,1.047c0.272,0,0.525,0,0.759-0.004c0.137-2.074,0.344-4.896,0.611-8.509
				c0.44-5.967,1.113-15.084,1.296-19.71c-4.53-0.919-11.575-1.432-20.037-1.432c-0.124,0-0.245,0-0.364,0l-1.916,11.179
				l-6.034-5.229c-1.631-1.413-6.499-4.701-16.453-4.701c-20.719,0-31.899,12.108-31.899,23.5c0,17.962,11.406,24.408,23.089,29.47
				c1.497,0.673,2.999,1.283,4.451,1.874c6.965,2.831,14.859,6.039,14.859,14.256c0,5.711-4.894,9.699-11.9,9.699
				c-5.119,0-11.764-3.721-15.382-11.816c-1.012-0.039-2.299-0.064-3.829-0.064c-2.468,0-8.007,0.077-13.287,0.68
				C210.516,141.617,210.606,151.163,210.716,155.913z M235.604,120.753c1.975,4.797,5.465,7.045,7.397,7.045
				c1.688,0,2.654-0.48,2.897-0.707c-0.068-2.181-4.732-4.076-9.245-5.91C236.306,121.04,235.956,120.897,235.604,120.753z
				 M252.634,85.088c1.43,0.95,4.189,2.183,6.799,3.29c-1.161-3.273-5.132-3.378-5.632-3.378
				C253.294,84.999,252.913,85.039,252.634,85.088z"/>
		</g>
	</g>
</g>
<g>
	<g>
		<g>
			<path fill="#FFFFFF" d="M319.402,89.099c0-0.399-13.8-0.199-14.2-0.6c-0.4-0.4,0.4-29.399,0.4-29.399l14.4-1.6
				c0,0,2.2-23.2,2.2-23.6c5.4-3.8,36-5.8,36-5.8l1.2,30.6l25.2-0.4c0,0,1.4,19.799-1.2,29.399l-26.399,1.399
				c0,0-2.2,33.801,5.4,33.801c6.2,0,14.8-6.2,14.8-6.2l14.399,28.8c0,0-18.399,17-40.399,17
				C318.002,162.498,319.402,127.298,319.402,89.099z"/>
		</g>
		<g>
			<path d="M351.201,166.998c-9.853,0-17.749-2.904-23.469-8.632c-12.909-12.928-12.873-38.131-12.835-64.813v-0.214
				c-0.879-0.016-1.781-0.029-2.545-0.04c-8.176-0.116-8.844-0.126-10.335-1.618c-1.768-1.769-1.768-1.769-0.914-32.705l0.108-3.916
				l14.655-1.628c0.785-8.301,1.729-18.349,1.834-19.682v-2.185l1.91-1.344c5.97-4.201,30.821-6.122,38.296-6.61l4.609-0.301
				l1.209,30.822l25.064-0.397l0.3,4.25c0.06,0.839,1.422,20.676-1.346,30.893l-0.852,3.145l-25.604,1.357
				c-0.424,11.252,0.427,21.918,2.031,24.954c3.483-0.479,8.614-3.392,11.254-5.286l4.289-3.078l18.275,36.542l-2.483,2.294
				C393.85,149.546,374.692,166.998,351.201,166.998z M309.591,84.252c0.989,0.019,2.025,0.034,2.89,0.046
				c1.788,0.025,3.565,0.051,4.896,0.096c1.953,0.065,6.525,0.219,6.525,4.705l-0.004,4.467
				c-0.036,24.763-0.069,48.152,10.204,58.439c4.026,4.032,9.62,5.992,17.1,5.992c15.478,0,29.255-9.363,34.78-13.678
				l-10.586-21.172c-3.52,1.978-8.536,4.25-12.994,4.25c-1.396,0-3.449-0.414-5.297-2.385c-5.866-6.26-5.167-27.406-4.594-36.207
				l0.26-3.988l26.922-1.428c0.921-6.067,0.866-14.743,0.642-20.521l-25.258,0.401l-1.19-30.339
				c-11.101,0.906-22.801,2.474-27.43,3.943c-0.266,2.928-0.82,8.863-1.975,21.051l-0.346,3.644l-14.14,1.571
				C309.804,70.646,309.62,79.39,309.591,84.252z"/>
		</g>
	</g>
</g>
<g>
	<g>
		<g>
			<path fill="#FFFFFF" d="M404.204,130.498l13.2-0.8l0.2-47c-0.4-0.4-11.6,0.6-12,0.6c-0.2,0-3.2-25-3.2-26s40.398-7,40.398-7
				l6.4,13.6c0,0,6.8-9.6,23.8-9.6c18,0,31.6,14.2,31.399,15.6c-0.4,3.6-20.601,28.399-21.2,27.8c-2.601-2.6-8.2-8-15.2-8
				c-10.4,0-17.4,8.199-17.4,20.199c0,13,1.601,19.201,1.601,19.201l20.398,2.6l0.4,26c-1,1-67.599,0.4-67.399,0.4
				C405.604,158.099,404.004,143.298,404.204,130.498z"/>
		</g>
		<g>
			<path d="M443.417,162.776c-9.38,0-19.167-0.049-25.724-0.09c-3.598-0.021-6.63-0.043-8.763-0.061l-2.482-0.021
				c-4.443-0.037-5.214-2.787-5.326-4.111c-0.146-1.37-1.612-15.51-1.417-28.066l0.065-4.169l13.153-0.797l0.162-38.201
				c-2.006,0.128-4.242,0.304-5.611,0.412c-1.47,0.116-1.614,0.126-1.869,0.126c-2.602,0-4.165-1.654-4.647-4.919
				c-0.104-0.703-0.241-1.708-0.399-2.917c-0.311-2.371-0.707-5.542-1.096-8.745c-0.582-4.786-1.558-12.958-1.558-13.918
				c0-3.744,3.647-4.602,5.206-4.968c1.131-0.266,2.697-0.584,4.785-0.972c3.386-0.629,8.094-1.429,13.994-2.378
				c10.011-1.611,20.152-3.118,20.253-3.133l3.31-0.491l5.212,11.075c4.339-3.139,11.585-6.633,22.34-6.633
				c16.089,0,29.036,10.024,33.634,15.324c1.313,1.513,2.488,3.202,2.234,5.304c-0.146,1.299-0.495,3.773-11.27,17.49
				c-11.223,14.288-12.206,14.29-14.363,14.292l-1.866,0.002l-1.35-1.33c-1.83-1.829-6.684-6.683-12.02-6.683
				c-7.836,0-12.9,6.162-12.9,15.699c0,7.236,0.518,12.266,0.937,15.152l21.003,2.678l0.49,31.805l-1.348,1.347
				C474.468,162.597,474.289,162.776,443.417,162.776z M409.701,153.631c6.675,0.052,20.574,0.146,33.716,0.146
				c14.216,0,21.396-0.109,25.021-0.224l-0.275-17.884l-19.555-2.493l-0.764-2.954c-0.07-0.275-1.742-6.906-1.742-20.324
				c0-14.543,9.004-24.699,21.899-24.699c6.4,0,11.657,3.376,15.091,6.257c4.579-5.279,13.358-16.481,16.153-21.077
				c-3.276-3.378-13.281-11.58-26.244-11.58c-14.222,0-19.923,7.428-20.159,7.744l-4.459,6.295l-3.254-7.023l-4.974-10.57
				c-13.175,1.983-26.818,4.191-32.883,5.391c0.54,4.731,1.533,12.988,2.166,17.857c2.534-0.189,5.524-0.389,7.164-0.389
				c1.036,0,2.769,0,4.182,1.412l1.326,1.326l-0.227,53.092l-13.187,0.799C408.786,141.954,409.324,149.276,409.701,153.631z"/>
		</g>
	</g>
</g>
<g>
	<g>
		<g>
			<path fill="#FFFFFF" d="M515.204,132.498l17.2-0.8l0.2-40.6c-0.4-0.4-15.601,0.6-16,0.6c-0.2,0-3.2-26.2-3.2-27.2
				s42.198-3,55.799,0.2v66.398l16.399,2.601l0.4,24c-1,1-69.599,0.399-69.398,0.399
				C516.604,158.099,515.004,145.298,515.204,132.498z M528.004,25.3c-0.2-12.8,9-20.8,19.601-20.8c10.8,0,20.8,9.2,20.8,19.8
				c0,10.8-5,21.399-18.601,21.399C536.004,45.699,528.404,37.899,528.004,25.3z"/>
		</g>
		<g>
			<path d="M555.553,162.776c-9.659,0-19.739-0.049-26.494-0.09c-3.706-0.021-6.829-0.043-9.025-0.061l-2.559-0.021
				c-4.396-0.037-5.216-2.701-5.348-4.047c-0.161-1.315-1.617-13.61-1.422-26.13l0.065-4.229l17.154-0.798l0.157-31.811
				c-3.229,0.131-7.424,0.381-9.566,0.508c-1.104,0.064-1.822,0.101-1.911,0.101c-2.619,0-4.185-1.683-4.651-5
				c-0.104-0.735-0.24-1.786-0.398-3.05c-0.311-2.483-0.706-5.805-1.095-9.156c-0.581-5.002-1.555-13.536-1.555-14.494
				c0-4.27,4.285-4.723,6.587-4.966c1.72-0.182,4.133-0.362,6.977-0.52c6.337-0.353,13.908-0.555,20.771-0.555
				c8.707,0,20.458,0.323,26.995,1.861l3.469,0.816v66.12l16.336,2.59l0.495,29.687l-1.349,1.349
				C587.468,162.597,587.289,162.776,555.553,162.776z M520.654,153.63c6.809,0.051,21.251,0.146,34.898,0.146
				c14.775,0,22.177-0.111,25.88-0.228l-0.267-15.998l-16.463-2.61V68.47c-4.918-0.658-12.335-1.012-21.464-1.012
				c-10.388,0-19.918,0.444-24.933,0.848c0.556,5.08,1.546,13.687,2.167,18.662c3.578-0.205,8.438-0.463,10.834-0.463
				c1.366,0,3.065,0,4.479,1.412l1.328,1.327l-0.23,46.751l-17.182,0.799C519.789,143.469,520.284,149.762,520.654,153.63z
				 M549.804,50.199c-15.975,0-25.806-9.255-26.297-24.757c-0.113-7.229,2.352-13.737,6.938-18.396
				C534.918,2.502,541.012,0,547.604,0c13.478,0,25.3,11.355,25.3,24.3C572.903,40.033,563.836,50.199,549.804,50.199z M547.604,9
				c-4.161,0-7.978,1.548-10.745,4.36c-2.925,2.97-4.431,7.074-4.355,11.869c0.332,10.422,6.314,15.97,17.3,15.97
				c12.269,0,14.101-10.588,14.101-16.899C563.903,16.292,556.134,9,547.604,9z"/>
		</g>
	</g>
</g>
<g>
	<g>
		<g>
			<path fill="#FFFFFF" d="M597.604,131.298c1,0,14.399-1,14.399-1l-0.399-83.199c0,0-15.601-0.2-15.8-0.6
				c-0.2-0.4,0.601-25.6,0.8-26.2c0.2-0.6,44.8-6.8,45.8-6c5.399,4.2,3.2,53.799,3.2,81.199c0,0,20.8-11.2,20.8-12.4
				c0-1.2-8.4-2.2-9-3.2c-0.4-1-1.8-21.4-1.8-22.4s62.798,0.8,62.798,2s0.6,25.601,0,26.601s-13-0.801-13.6-0.4
				c-0.6,0.4-20,16-20.8,17.4c-0.8,1.6,28.4,28.6,29.4,29c1,0.399,13,1.399,13.199,1.6c0.201,0.199,1.801,23.799,1.201,24.199
				c-0.6,0.399-62.799,3.199-63.799,0.6c-1-2.8-2.8-25-2.399-25c0.6,0,7.6-1.2,7.6-1.8c-1.2-1.4-20.2-19-22.399-16.4
				c-0.8,1-0.6,13.8-0.6,15c0,1,8.4,2.2,8.4,2.601c0,0.399-0.8,23.6-0.8,24.6s-55,1-55,1
				C598.604,158.099,596.604,131.298,597.604,131.298z"/>
		</g>
		<g>
			<path d="M678.94,164.091c-15.14,0-17.822-0.558-19.139-3.979l-0.038-0.103c-0.168-0.472-0.604-1.694-1.297-7.87
				c-0.093,2.852-0.162,5.025-0.165,5.371c0,4.389-4.441,4.672-6.578,4.807c-1.479,0.095-3.63,0.181-6.394,0.257
				c-4.589,0.125-10.978,0.226-18.988,0.298c-13.612,0.124-27.403,0.125-27.541,0.125h-2.782l-1.243-2.49
				c-0.384-0.768-0.661-1.322-1.484-14.958c-0.875-14.487-0.418-15.225,0.41-16.563l1.319-2.133l2.58-0.055
				c0.615-0.015,5.025-0.324,9.881-0.679l-0.359-74.594c-1.081-0.021-2.27-0.047-3.461-0.077c-9.353-0.238-10.553-0.27-11.887-2.938
				c-0.629-1.256-0.653-1.306-0.222-15.175c0.416-13.371,0.538-13.735,0.779-14.459c0.932-2.801,2.305-3.016,9.922-4.208
				c3.826-0.599,8.901-1.335,14.291-2.073c4.909-0.672,21.234-2.866,25.216-2.866c0.637,0,2.128,0,3.45,1.057
				c5.142,3.999,5.763,18.955,5.093,64.914c-0.062,4.239-0.122,8.34-0.16,12.18c2.153-1.199,4.238-2.379,6.089-3.449
				c-1.181-0.5-2.055-1.155-2.69-2.215l-0.186-0.31l-0.135-0.335c-0.893-2.232-2.121-23.883-2.121-24.071
				c0-2.966,2.065-4.554,6.141-4.718c1.197-0.048,2.918-0.073,5.119-0.073c8.003,0,21.776,0.317,34.273,0.791
				c6.371,0.241,11.76,0.5,15.583,0.749c2.129,0.139,3.795,0.276,4.949,0.408c1.418,0.162,5.732,0.655,5.732,4.844
				c0,0.2,0.016,0.979,0.039,2.15c0.488,24.818,0.193,25.309-0.682,26.765c-1.494,2.491-4.373,2.491-5.758,2.491
				c-1.986,0-4.809-0.252-7.298-0.475c-0.981-0.089-2.048-0.184-2.848-0.24c-3.185,2.529-11.995,9.68-16.396,13.473
				c5.687,6.182,21.422,20.924,25.346,24.219c1.49,0.207,4.619,0.528,6.627,0.734c6.506,0.667,6.631,0.68,7.852,1.898
				c1.387,1.389,1.387,1.389,2.139,13.748c0.455,7.5,0.605,12.111,0.447,13.707c-0.16,1.627-0.859,2.862-2.074,3.672
				c-1.232,0.824-1.457,0.974-19.878,1.703C703.374,163.623,689.917,164.091,678.94,164.091z M667.858,154.796
				c1.778,0.146,5.069,0.295,11.082,0.295c14.996,0,35.99-0.879,44.455-1.361c-0.15-4.396-0.605-11.731-0.928-16.011
				c-0.488-0.051-0.984-0.102-1.451-0.149c-6.998-0.717-8.299-0.898-9.285-1.293c-2.376-0.951-30.176-26.756-31.908-31.312
				c-0.498-1.308-0.442-2.687,0.154-3.879l0.117-0.221c1.538-2.689,22.027-18.789,22.211-18.911c1.223-0.814,2.489-0.814,3.03-0.814
				c0.967,0,2.404,0.124,4.668,0.327c1.313,0.117,2.819,0.252,4.155,0.341c0.033-3.068-0.002-8.616-0.188-18.422
				c-9.504-0.74-36.977-1.677-51.609-1.677c-0.762,0-1.426,0.003-2.003,0.008c0.306,4.502,0.816,11.347,1.159,14.931
				c0.387,0.096,0.776,0.189,1.108,0.269c4.256,1.02,8.275,1.983,8.275,6.183c0,3.024-1.304,4.11-12.681,10.564
				c-5.183,2.94-10.434,5.771-10.486,5.798l-6.633,3.572V95.5c0-5.866,0.1-12.698,0.205-19.931
				c0.271-18.544,0.709-48.684-1.543-56.721c-7.711,0.642-30.531,3.737-38.875,5.142c-0.198,4.676-0.469,13.326-0.574,18.353
				c3.026,0.11,7.435,0.208,11.345,0.258l4.421,0.057l0.442,91.817l-4.186,0.312c-3.021,0.226-7.315,0.542-10.508,0.761
				c0.11,4.796,0.665,13.424,1.06,18.449c18.864-0.025,38.688-0.217,46.53-0.559c0.089-2.737,0.228-6.886,0.417-12.576
				c0.057-1.674,0.108-3.229,0.151-4.519c-4.695-1.036-8.287-2.045-8.287-6.044l-0.005-0.656
				c-0.127-15.006,0.482-15.769,1.591-17.153l0.079-0.097c1.012-1.197,2.473-1.854,4.114-1.854c7.006,0,24.981,18.052,25.138,18.233
				l1.083,1.265v1.664c0,4.06-3.975,4.876-7.169,5.532c-0.026,0.006-0.15,0.031-0.343,0.069
				C666.504,142.11,667.263,150.565,667.858,154.796z M662.201,137.961c-0.232,0.022-0.436,0.037-0.595,0.037
				C661.812,137.998,662.01,137.985,662.201,137.961z M650.685,127.269c0.757,0.18,1.547,0.352,2.071,0.465
				c2.204,0.481,4.461,0.974,5.597,2.554l0.903-1.281l0.417-0.001c-2.918-2.539-6.309-5.35-8.952-7.268
				C650.693,123.153,650.677,124.961,650.685,127.269z"/>
		</g>
	</g>
</g>
<g>
	<g>
		<g>
			<path fill="#FFFFFF" d="M808.598,108.897c13.602-3,27.4-3.6,31.4-3c3.6,13.601,11.799,20.801,18.199,20.801
				c5.801,0,11-3.2,11-9.2c0-11.399-12.801-15-24.801-21.601c-17.799-9.399-34.998-19.6-34.998-48.198c0-19.8,16.398-36,43.199-36
				c11.6,0,18.799,4.4,22.199,8l1.4-9.6c0,0,20.799-0.8,30.6,3.4c1,0.4-2.4,38.999-2.4,45.399c0,3-31.199,2.8-31.199,2
				c-1-11.6-7.801-16-14-16c-3.6,0-11,1.8-11,9.8c0,7.2,15,11.6,29.799,20.4c17.801,10.399,32.801,21,32.801,45.599
				c0,22.6-19.6,39.6-39.6,39.6c-20.6,0-28-7.8-31-11.2c-0.4,4.4-0.801,12.4-1,12.4c-1-0.4-30.199-1.8-30.199-1.8
				C808.598,155.298,808.598,119.298,808.598,108.897z"/>
		</g>
		<g>
			<path d="M839.2,165.998h-0.867l-0.354-0.142c-2.715-0.301-16.756-1.067-29.195-1.664l-3.91-0.188l-0.355-3.899
				c-0.281-3.098-0.418-19.848-0.418-51.207v-3.615l3.529-0.779c11.092-2.445,22.178-3.314,28.301-3.314
				c1.998,0,3.592,0.088,4.736,0.26l2.926,0.439l0.758,2.858c3.188,12.037,10.018,17.452,13.85,17.452c0.666,0,6.5-0.133,6.5-4.7
				c0-6.101-5.539-9.142-15.332-13.991c-2.324-1.15-4.729-2.341-7.139-3.666c-15.715-8.298-37.328-19.713-37.328-52.142
				c0-23.467,20.061-40.5,47.697-40.5c8.418,0,14.578,2.081,18.832,4.406l0.855-5.859l3.74-0.144
				c0.066-0.003,1.699-0.064,4.256-0.064c8.818,0,20.875,0.662,28.254,3.81c3.02,1.252,2.977,4.297,2.939,6.748
				c-0.02,1.517-0.107,3.631-0.266,6.465c-0.285,5.151-0.748,11.746-1.197,18.123c-0.549,7.779-1.115,15.823-1.115,18.214
				c0,5.391-6.604,6-11.424,6.444c-3.893,0.359-9.223,0.565-14.621,0.565c-2.703,0-5.219-0.054-7.078-0.15
				c-2.426-0.126-6.896-0.358-7.07-4.602c-0.672-7.365-4.219-11.757-9.506-11.757c-1.523,0-6.5,0.382-6.5,5.3
				c0,2.24,8.557,6.539,14.219,9.383c4.104,2.062,8.754,4.398,13.381,7.149c18.43,10.767,35,22.667,35,49.467
				c0,26.379-22.803,44.1-44.1,44.1c-13.385,0-21.855-3.202-27.156-6.512c-0.049,0.678-0.094,1.297-0.137,1.821
				C843.774,161.719,843.424,165.998,839.2,165.998z M813.334,155.401c11.434,0.562,17.982,0.938,21.801,1.211
				c0.029-0.435,0.061-0.87,0.088-1.284c0.15-2.229,0.322-4.753,0.494-6.638l0.945-10.4l6.91,7.83
				c2.336,2.646,8.539,9.678,27.625,9.678c16.602,0,35.1-14.415,35.1-35.1c0-22.098-13.25-31.594-30.57-41.713
				c-4.383-2.606-8.881-4.866-12.852-6.86c-10.715-5.383-19.178-9.635-19.178-17.425c0-9.388,7.799-14.3,15.5-14.3
				c7.047,0,15.549,4.381,17.963,16.413c1.381,0.055,3.271,0.097,5.691,0.097c8.34,0,14.25-0.464,17.141-0.933
				c0.178-3.655,0.586-9.461,1.041-15.924c0.537-7.617,1.297-18.409,1.436-23.302c-5-1.417-12.85-2.212-22.188-2.212
				c-0.063,0-0.123,0-0.184,0l-2.189,15.008l-6.383-6.757c-1.461-1.546-7.141-6.59-18.928-6.59c-22.785,0-38.699,12.953-38.699,31.5
				c0,25.066,13.512,34.139,32.6,44.22c2.307,1.269,4.621,2.414,6.859,3.522c10,4.951,20.34,10.072,20.34,22.056
				c0,7.938-6.52,13.7-15.5,13.7c-8.795,0-17.385-8.487-21.605-21.006c-0.207-0.002-0.428-0.004-0.662-0.004
				c-5.025,0-13.693,0.639-22.83,2.379C813.11,137.741,813.213,149.865,813.334,155.401z"/>
		</g>
	</g>
</g>
<g>
	<g>
		<g>
			<path fill="#FFFFFF" d="M931.397,89.099c0-0.399-13.799-0.199-14.197-0.6c-0.4-0.4,0.398-29.399,0.398-29.399l14.4-1.6
				c0,0,2.199-23.2,2.199-23.6c5.398-3.8,36-5.8,36-5.8l1.199,30.6l25.199-0.4c0,0,1.4,19.799-1.199,29.399l-26.4,1.399
				c0,0-2.199,33.801,5.4,33.801c6.199,0,14.801-6.2,14.801-6.2l14.398,28.8c0,0-18.398,17-40.398,17
				C929.999,162.498,931.397,127.298,931.397,89.099z"/>
		</g>
		<g>
			<path d="M963.198,166.998c-9.854,0-17.748-2.904-23.469-8.632c-12.91-12.93-12.875-38.131-12.836-64.814v-0.213
				c-0.879-0.016-1.779-0.029-2.545-0.04c-8.174-0.116-8.842-0.126-10.332-1.616c-1.77-1.769-1.77-1.769-0.916-32.707l0.107-3.916
				l14.656-1.628c0.783-8.301,1.729-18.349,1.834-19.682v-2.185l1.91-1.344c5.971-4.201,30.82-6.122,38.295-6.61l4.609-0.301
				l1.209,30.822l25.063-0.397l0.301,4.25c0.059,0.839,1.422,20.676-1.344,30.893l-0.854,3.145l-25.604,1.357
				c-0.426,11.252,0.426,21.918,2.031,24.954c3.48-0.479,8.611-3.392,11.254-5.286l4.287-3.076l18.275,36.541l-2.482,2.295
				C1005.846,149.546,986.688,166.998,963.198,166.998z M921.586,84.252c0.99,0.019,2.025,0.034,2.891,0.046
				c1.787,0.025,3.564,0.051,4.896,0.096c1.953,0.065,6.523,0.219,6.523,4.705l-0.004,4.465
				c-0.035,24.764-0.068,48.153,10.203,58.441c4.027,4.032,9.621,5.992,17.102,5.992c15.479,0,29.256-9.363,34.779-13.678
				l-10.586-21.172c-3.52,1.978-8.535,4.25-12.994,4.25c-1.395,0-3.447-0.414-5.297-2.385c-5.863-6.26-5.166-27.406-4.594-36.207
				l0.26-3.99l26.924-1.427c0.924-6.072,0.865-14.745,0.643-20.521l-25.258,0.401l-1.191-30.339
				c-11.1,0.906-22.799,2.474-27.43,3.943c-0.266,2.928-0.818,8.863-1.977,21.051l-0.344,3.644l-14.141,1.571
				C921.801,70.646,921.618,79.39,921.586,84.252z"/>
		</g>
	</g>
</g>
<g>
	<g>
		<g>
			<path fill="#FFFFFF" d="M1011.397,106.499c0-38,24.4-49.199,44.801-49.199c17,0,29.6,10,29.6,10v-10c0,0,42.4-1.4,42.4-0.4
				s1.398,26.6,1.197,26.6c-0.398,0-14.396,3-14.799,3.399c-0.6,0.4,0.4,42.199,0.4,42.199c0.199,0,16.6-0.199,16.799,1.2
				c0.4,1.4,0.4,28-0.4,28c-0.6,0-45.396-0.8-45.396-1.399c0-0.601-2-10.2-2-10.2s-8,13.2-28.4,13.2
				C1037.2,159.897,1011.397,147.698,1011.397,106.499z M1078.198,107.499c0-10.6-6.602-19.4-14.799-19.4c-10,0-16.602,7-16.602,19
				c0,11.601,7.799,19,15.799,19C1071.596,126.099,1078.198,118.698,1078.198,107.499z"/>
		</g>
		<g>
			<path d="M1055.596,164.397c-11.93,0-23.621-4.545-32.076-12.467c-10.875-10.19-16.621-25.9-16.621-45.433
				c0-39.592,25.467-53.699,49.299-53.699c10.436,0,19.295,3.402,25.1,6.42v-6.274l4.354-0.144
				c0.229-0.008,23.23-0.763,35.283-0.763c2.383,0,4.166,0.028,5.457,0.086c1.559,0.07,6.307,0.283,6.307,4.774
				c0.01,0.401,0.184,3.831,0.352,7.148c0.199,3.923,0.441,8.703,0.619,12.519c0.398,8.554,0.398,8.554-1.008,10.032l-1.33,1.4
				l-1.572,0.001c-1.535,0.285-7.334,1.539-10.846,2.372c-0.057,5.966,0.17,20.307,0.482,34.222
				c12.143,0.054,16.229,0.648,16.857,5.072h-0.006c0.158,1.14,0.371,4.367,0.305,14.787c-0.096,14.643-0.541,15.233-1.516,16.524
				l-1.35,1.791l-2.289,0.03c-0.406,0-11.936-0.206-23.035-0.478c-6.543-0.159-11.766-0.313-15.525-0.454
				c-2.25-0.085-4-0.168-5.201-0.246c-1.637-0.106-5.908-0.382-6.127-4.396c-0.037-0.231-0.111-0.646-0.217-1.195
				C1076.176,160.088,1067.858,164.397,1055.596,164.397z M1056.198,61.799c-12.117,0-40.301,4.355-40.301,44.699
				c0,36.092,21.387,48.899,39.699,48.899c17.41,0,24.287-10.612,24.572-11.063l5.939-9.438l2.295,10.885
				c0.656,3.16,1.109,5.381,1.42,6.957c7.85,0.383,28.596,0.826,37.545,0.994c0.201-5.242,0.244-14.903,0.131-19.844
				c-1.986-0.158-5.283-0.299-10.32-0.299c-1.066,0-1.824,0.008-2.063,0.01h-0.119h-4.393l-0.105-4.393
				c-0.002-0.104-0.252-10.586-0.426-20.982c-0.371-22.273-0.391-23.396,1.68-24.833c0.83-0.749,1.85-1.085,9.27-2.734
				c1.535-0.341,2.777-0.613,3.781-0.828c-0.178-4.156-0.525-11.04-0.744-15.324c-0.068-1.38-0.127-2.514-0.174-3.445
				c-0.785-0.012-1.754-0.02-2.953-0.02c-8.736,0-23.377,0.404-30.635,0.622v14.954L1083,70.824
				C1082.893,70.741,1071.333,61.799,1056.198,61.799z M1129.208,79.003c-0.271,0.011-0.531,0.045-0.783,0.1
				C1128.838,79.034,1129.055,79.01,1129.208,79.003z M1062.596,130.599c-9.977,0-20.299-8.791-20.299-23.5
				c0-14.276,8.283-23.5,21.102-23.5c10.641,0,19.299,10.721,19.299,23.9C1082.698,120.883,1074.245,130.599,1062.596,130.599z
				 M1063.397,92.599c-7.688,0-12.1,5.285-12.1,14.5c0,9.076,5.746,14.5,11.299,14.5c6.641,0,11.102-5.666,11.102-14.1
				C1073.698,99.422,1068.981,92.599,1063.397,92.599z"/>
		</g>
	</g>
</g>
<g>
	<g>
		<g>
			<path fill="#FFFFFF" d="M1157.196,89.099c0-0.399-13.801-0.199-14.199-0.6c-0.4-0.4,0.398-29.399,0.398-29.399l14.398-1.6
				c0,0,2.201-23.2,2.201-23.6c5.398-3.8,35.998-5.8,35.998-5.8l1.201,30.6l25.199-0.4c0,0,1.4,19.799-1.199,29.399l-26.4,1.399
				c0,0-2.199,33.801,5.4,33.801c6.199,0,14.799-6.2,14.799-6.2l14.4,28.8c0,0-18.4,17-40.4,17
				C1155.793,162.498,1157.196,127.298,1157.196,89.099z"/>
		</g>
		<g>
			<path d="M1188.995,166.998c-9.854,0-17.75-2.904-23.469-8.632c-12.91-12.928-12.873-38.131-12.834-64.813v-0.216
				c-0.881-0.016-1.781-0.028-2.547-0.04c-8.176-0.117-8.844-0.126-10.336-1.621c-1.766-1.764-1.766-1.764-0.912-32.702l0.107-3.916
				l14.654-1.628c0.785-8.301,1.729-18.349,1.836-19.682v-2.185l1.91-1.344c5.969-4.201,30.82-6.122,38.295-6.61l4.607-0.301
				l1.211,30.822l25.063-0.397l0.301,4.25c0.059,0.839,1.422,20.676-1.346,30.894l-0.854,3.145l-25.604,1.357
				c-0.424,11.252,0.428,21.918,2.031,24.954c3.482-0.479,8.611-3.392,11.254-5.286l4.287-3.078l18.277,36.542l-2.482,2.294
				C1231.643,149.546,1212.483,166.998,1188.995,166.998z M1147.383,84.252c0.988,0.019,2.025,0.034,2.893,0.046
				c1.785,0.025,3.563,0.051,4.895,0.096c1.953,0.065,6.525,0.219,6.525,4.705l-0.004,4.467
				c-0.037,24.764-0.07,48.152,10.201,58.439c4.025,4.032,9.619,5.992,17.102,5.992c15.408,0,29.23-9.37,34.775-13.684
				l-10.582-21.166c-3.52,1.977-8.537,4.25-12.994,4.25c-1.395,0-3.447-0.414-5.297-2.387c-5.865-6.26-5.166-27.406-4.594-36.207
				l0.26-3.988l26.924-1.428c0.924-6.072,0.865-14.745,0.643-20.521l-25.258,0.401l-1.191-30.339
				c-11.1,0.906-22.801,2.474-27.43,3.943c-0.268,2.928-0.82,8.863-1.977,21.051l-0.346,3.644l-14.139,1.571
				C1147.596,70.646,1147.415,79.39,1147.383,84.252z"/>
		</g>
	</g>
</g>
<g>
	<g>
		<g>
			<path fill="#FFFFFF" d="M1246.594,132.498l17.199-0.8l0.201-40.6c-0.4-0.4-15.602,0.6-16,0.6c-0.201,0-3.201-26.2-3.201-27.2
				s42.199-3,55.799,0.2v66.398l16.4,2.601l0.4,24c-1,1-69.6,0.399-69.398,0.399
				C1247.995,158.099,1246.395,145.298,1246.594,132.498z M1259.393,25.3c-0.197-12.8,9-20.8,19.602-20.8
				c10.801,0,20.801,9.2,20.801,19.8c0,10.8-5,21.399-18.6,21.399C1267.393,45.699,1259.793,37.899,1259.393,25.3z"/>
		</g>
		<g>
			<path d="M1286.944,162.776c-9.66,0-19.738-0.049-26.494-0.09c-3.705-0.021-6.83-0.043-9.025-0.061l-2.559-0.021
				c-4.396-0.037-5.217-2.701-5.35-4.047c-0.16-1.315-1.617-13.61-1.42-26.13l0.064-4.229l17.154-0.798l0.156-31.811
				c-3.23,0.131-7.426,0.381-9.566,0.508c-1.105,0.064-1.822,0.101-1.91,0.101c-2.619,0-4.186-1.683-4.652-5
				c-0.104-0.735-0.24-1.786-0.398-3.05c-0.311-2.483-0.705-5.805-1.096-9.156c-0.58-5.001-1.555-13.536-1.555-14.494
				c0-4.27,4.285-4.723,6.588-4.966c1.721-0.182,4.133-0.362,6.977-0.52c6.338-0.353,13.908-0.555,20.771-0.555
				c8.707,0,20.459,0.323,26.994,1.861l3.471,0.816v66.12l16.336,2.59l0.496,29.686l-1.35,1.35
				C1318.858,162.597,1318.678,162.776,1286.944,162.776z M1252.043,153.63c6.809,0.051,21.25,0.146,34.898,0.146
				c14.775,0,22.178-0.111,25.881-0.228l-0.268-15.998l-16.463-2.61V68.47c-4.918-0.658-12.336-1.012-21.465-1.012
				c-10.387,0-19.918,0.444-24.932,0.848c0.555,5.081,1.547,13.688,2.166,18.662c3.578-0.205,8.438-0.463,10.836-0.463
				c1.365,0,3.066,0,4.479,1.414l1.324,1.327l-0.23,46.75l-17.182,0.799C1251.18,143.469,1251.674,149.762,1252.043,153.63z
				 M1281.194,50.199c-15.975,0-25.805-9.255-26.299-24.756c-0.111-7.23,2.354-13.738,6.939-18.397
				c4.475-4.544,10.568-7.046,17.16-7.046c13.477,0,25.301,11.355,25.301,24.3C1304.293,40.033,1295.227,50.199,1281.194,50.199z
				 M1278.995,9c-4.162,0-7.979,1.548-10.746,4.36c-2.924,2.97-4.43,7.074-4.355,11.87c0.332,10.422,6.316,15.969,17.303,15.969
				c12.268,0,14.1-10.588,14.1-16.899C1295.293,16.292,1287.524,9,1278.995,9z"/>
		</g>
	</g>
</g>
<g>
	<g>
		<g>
			<path fill="#FFFFFF" d="M1329.793,121.698c9-1.6,22.199-1.4,24.799-1c2.4,7.6,8,11.6,12.199,11.6c4,0,7.4-1.8,7.4-5.199
				c0-6.4-8.6-8.4-16.6-12c-12-5.201-25.801-12.801-25.801-33.6c0-14,13-28,36.398-28c10.199,0,16.4,3.2,19.4,5.8l1.199-7
				c0,0,20-0.6,28.6,2.4c0.801,0.4-2,32-2,35.6c0,1.601-27.398-0.399-27.398-1c-0.602-6.4-6.199-8.8-10.398-8.8
				c-2.4,0-6.201,0.6-6.201,5c0,4,11.201,7,21,11.8c12,5.601,25,17,25,34.8c0,16.199-15.398,28.6-33,28.6c-18,0-23.398-4.2-26-6.6
				c-0.398,3.199-0.799,8.199-1,8.199c-0.799-0.199-27.199-2.199-27.199-2.199C1329.793,157.099,1329.793,127.498,1329.793,121.698z
				"/>
		</g>
		<g>
			<path d="M1357.393,166.797h-0.555l-0.314-0.079c-2.1-0.242-17.313-1.425-26.672-2.134l-3.639-0.276l-0.482-3.617
				c-0.107-0.815-0.438-3.295-0.438-38.993v-3.771l3.713-0.659c6.859-1.221,15.275-1.352,18.576-1.352
				c0.396,0,0.787,0.001,1.166,0.005c-9.559-5.055-21.455-14.478-21.455-34.422c0-15.755,14.334-32.5,40.9-32.5
				c7.049,0,12.305,1.371,16.078,3.029l0.705-4.116l3.682-0.111c0,0,1.686-0.051,4.301-0.051c8.291,0,19.518,0.468,25.916,2.7
				l0.527,0.223c2.994,1.496,2.871,3.569,2.355,12.293c-0.271,4.597-0.703,10.437-1.084,15.59
				c-0.385,5.215-0.783,10.607-0.783,11.742c0,5.106-5.754,5.106-9.563,5.106c-3.268,0-7.938-0.194-12.756-0.527
				c9.172,5.003,24.318,16.432,24.318,37.221c0,18.252-16.822,33.101-37.5,33.101c-10.9,0-17.736-1.483-22.313-3.451
				C1361.62,165.099,1360.042,166.797,1357.393,166.797z M1334.506,155.913c9.895,0.754,15.633,1.213,18.994,1.5
				c0.137-1.314,0.281-2.71,0.426-3.872l1.086-8.687l6.432,5.937c1.604,1.479,5.859,5.407,22.947,5.407
				c15.715,0,28.5-10.812,28.5-24.1c0-18.293-15.666-27.578-22.402-30.722c-2.854-1.397-5.76-2.612-8.568-3.786
				c-8.396-3.508-15.027-6.279-15.027-12.093c0-5.771,4.201-9.5,10.701-9.5c5.637,0,11.92,2.955,14.133,9.358
				c4.232,0.439,12.76,1.049,18.604,1.049c0.271,0,0.523-0.002,0.76-0.004c0.137-2.074,0.344-4.895,0.609-8.507
				c0.439-5.968,1.113-15.086,1.297-19.712c-4.529-0.919-11.574-1.432-20.037-1.432c-0.123,0-0.244,0-0.363,0l-1.914,11.179
				l-6.035-5.229c-1.631-1.413-6.498-4.701-16.453-4.701c-20.719,0-31.898,12.108-31.898,23.5c0,17.962,11.406,24.408,23.09,29.47
				c1.496,0.674,2.998,1.283,4.451,1.874c6.965,2.831,14.857,6.039,14.857,14.255c0,5.711-4.893,9.7-11.898,9.7
				c-5.119,0-11.764-3.721-15.383-11.817c-1.012-0.037-2.299-0.063-3.828-0.063c-2.469,0-8.008,0.077-13.287,0.68
				C1334.307,141.616,1334.397,151.163,1334.506,155.913z M1359.395,120.753c1.977,4.796,5.465,7.044,7.396,7.044
				c1.688,0,2.654-0.479,2.896-0.707c-0.066-2.181-4.73-4.077-9.244-5.909C1360.098,121.04,1359.749,120.897,1359.395,120.753z
				 M1376.426,85.088c1.43,0.95,4.188,2.183,6.797,3.29c-1.16-3.273-5.131-3.378-5.631-3.378
				C1377.084,84.999,1376.706,85.039,1376.426,85.088z"/>
		</g>
	</g>
</g>
</svg>
