<svg width="725.882568359375px" height="172.4052734375px" xmlns="http://www.w3.org/2000/svg" viewBox="-112.9412841796875 -11.20263671875 725.882568359375 172.4052734375" style="background: none;" preserveAspectRatio="xMidYMid"><defs><filter id="editing-lego" x="-100%" y="-100%" width="300%" height="300%"><feFlood flood-color="#000000" result="f1"></feFlood><feFlood flood-color="#fbfbee" result="f2"></feFlood><feMorphology operator="dilate" radius="3" in="SourceAlpha"></feMorphology><feConvolveMatrix order="5,5" divisor="1" result="cm1" kernelMatrix="0 1 1 1 0  1 0 0 0 1  1 0 0 0 1  1 0 0 0 1  0 1 1 1 0"></feConvolveMatrix><feComposite operator="in" in="f1" in2="cm1" result="c1"></feComposite><feMorphology operator="dilate" radius="3"></feMorphology><feConvolveMatrix order="5,5" divisor="1" result="cm2" kernelMatrix="0 1 1 1 0  1 0 0 0 1  1 0 0 0 1  1 0 0 0 1  0 1 1 1 0"></feConvolveMatrix><feComposite operator="in" in="f2" in2="cm2" result="c2"></feComposite><feMerge><feMergeNode in="c2"></feMergeNode><feMergeNode in="c1"></feMergeNode><feMergeNode in="SourceGraphic"></feMergeNode></feMerge></filter></defs><g filter="url(#editing-lego)"><g transform="translate(-46.344971656799316, 109.91500091552734)"><path d="M8.78-7.30L8.78-57.70L8.78-57.70Q8.78-59.82 8.98-61.84L8.98-61.84L8.98-61.84Q9.17-63.86 9.94-65.47L9.94-65.47L9.94-65.47Q10.70-67.07 12.18-68.06L12.18-68.06L12.18-68.06Q13.66-69.04 16.27-69.04L16.27-69.04L16.27-69.04Q19.09-69.04 20.66-68.06L20.66-68.06L20.66-68.06Q22.24-67.07 22.98-65.47L22.98-65.47L22.98-65.47Q23.72-63.86 23.89-61.84L23.89-61.84L23.89-61.84Q24.07-59.82 24.07-57.70L24.07-57.70L24.07-14.50L33.73-14.50L33.73-14.50Q35.75-14.50 37.73-14.30L37.73-14.30L37.73-14.30Q39.70-14.10 41.25-13.36L41.25-13.36L41.25-13.36Q42.81-12.63 43.74-11.19L43.74-11.19L43.74-11.19Q44.68-9.76 44.68-7.30L44.68-7.30L44.68-7.30Q44.68-4.78 43.74-3.33L43.74-3.33L43.74-3.33Q42.81-1.87 41.25-1.13L41.25-1.13L41.25-1.13Q39.70-0.39 37.73-0.20L37.73-0.20L37.73-0.20Q35.75 0 33.73 0L33.73 0L19.73 0L19.73 0Q17.11 0 15.09-0.20L15.09-0.20L15.09-0.20Q13.07-0.39 11.66-1.13L11.66-1.13L11.66-1.13Q10.26-1.87 9.52-3.33L9.52-3.33L9.52-3.33Q8.78-4.78 8.78-7.30L8.78-7.30ZM55.33-11.05L55.33-38.27L55.33-38.27Q55.33-40.34 55.55-42.31L55.55-42.31L55.55-42.31Q55.78-44.29 56.57-45.84L56.57-45.84L56.57-45.84Q57.35-47.39 58.83-48.35L58.83-48.35L58.83-48.35Q60.31-49.32 62.83-49.32L62.83-49.32L62.83-49.32Q65.34-49.32 66.82-48.35L66.82-48.35L66.82-48.35Q68.30-47.39 69.09-45.84L69.09-45.84L69.09-45.84Q69.88-44.29 70.10-42.31L70.10-42.31L70.10-42.31Q70.33-40.34 70.33-38.27L70.33-38.27L70.33-11.05L70.33-11.05Q70.33-8.98 70.10-6.98L70.10-6.98L70.10-6.98Q69.88-4.98 69.09-3.43L69.09-3.43L69.09-3.43Q68.30-1.87 66.82-0.94L66.82-0.94L66.82-0.94Q65.34 0 62.83 0L62.83 0L62.83 0Q60.31 0 58.83-0.94L58.83-0.94L58.83-0.94Q57.35-1.87 56.57-3.43L56.57-3.43L56.57-3.43Q55.78-4.98 55.55-6.98L55.55-6.98L55.55-6.98Q55.33-8.98 55.33-11.05L55.33-11.05ZM70.42-61.55L70.42-61.55L70.42-61.55Q70.42-57.75 68.45-55.90L68.45-55.90L68.45-55.90Q66.48-54.05 62.93-54.05L62.93-54.05L62.93-54.05Q59.38-54.05 57.40-55.90L57.40-55.90L57.40-55.90Q55.43-57.75 55.43-61.55L55.43-61.55L55.43-61.55Q55.43-65.49 57.40-67.27L57.40-67.27L57.40-67.27Q59.38-69.04 62.93-69.04L62.93-69.04L62.93-69.04Q66.73-69.04 68.57-67.27L68.57-67.27L68.57-67.27Q70.42-65.49 70.42-61.55ZM97.65-36.40L97.65-36.40L97.65-36.40Q97.65-35.41 98.29-34.57L98.29-34.57L98.29-34.57Q98.93-33.73 100.04-32.97L100.04-32.97L100.04-32.97Q101.15-32.20 102.60-31.46L102.60-31.46L102.60-31.46Q104.06-30.72 105.64-29.98L105.64-29.98L105.64-29.98Q108.05-28.80 110.57-27.44L110.57-27.44L110.57-27.44Q113.08-26.09 115.15-24.26L115.15-24.26L115.15-24.26Q117.23-22.44 118.53-20.05L118.53-20.05L118.53-20.05Q119.84-17.66 119.84-14.40L119.84-14.40L119.84-14.40Q119.84-11.44 118.98-9.17L118.98-9.17L118.98-9.17Q118.11-6.90 116.68-5.25L116.68-5.25L116.68-5.25Q115.25-3.60 113.35-2.52L113.35-2.52L113.35-2.52Q111.46-1.43 109.36-0.79L109.36-0.79L109.36-0.79Q107.26-0.15 105.09 0.12L105.09 0.12L105.09 0.12Q102.92 0.39 101 0.39L101 0.39L101 0.39Q97.20 0.39 94.39-0.25L94.39-0.25L94.39-0.25Q91.58-0.89 89.56-1.95L89.56-1.95L89.56-1.95Q87.54-3.01 86.23-4.36L86.23-4.36L86.23-4.36Q84.92-5.72 84.18-7.20L84.18-7.20L84.18-7.20Q83.44-8.68 83.15-10.13L83.15-10.13L83.15-10.13Q82.85-11.59 82.85-12.82L82.85-12.82L82.85-12.82Q82.85-15.78 84.50-17.16L84.50-17.16L84.50-17.16Q86.16-18.54 89.56-18.54L89.56-18.54L89.56-18.54Q92.02-18.54 93.60-17.21L93.60-17.21L93.60-17.21Q95.18-15.88 95.28-12.92L95.28-12.92L95.28-12.92Q95.33-11.93 95.85-11.34L95.85-11.34L95.85-11.34Q96.36-10.75 97.18-10.38L97.18-10.38L97.18-10.38Q97.99-10.01 98.98-9.89L98.98-9.89L98.98-9.89Q99.96-9.76 100.90-9.76L100.90-9.76L100.90-9.76Q102.82-9.76 104.03-10.78L104.03-10.78L104.03-10.78Q105.24-11.79 105.24-13.41L105.24-13.41L105.24-13.41Q105.24-14.79 104.43-16.00L104.43-16.00L104.43-16.00Q103.61-17.21 102.28-18.25L102.28-18.25L102.28-18.25Q100.95-19.28 99.25-20.24L99.25-20.24L99.25-20.24Q97.55-21.21 95.77-22.19L95.77-22.19L95.77-22.19Q93.55-23.38 91.31-24.71L91.31-24.71L91.31-24.71Q89.07-26.04 87.24-27.67L87.24-27.67L87.24-27.67Q85.42-29.29 84.28-31.34L84.28-31.34L84.28-31.34Q83.15-33.39 83.15-36.00L83.15-36.00L83.15-36.00Q83.15-39.85 84.41-42.44L84.41-42.44L84.41-42.44Q85.66-45.03 88.08-46.63L88.08-46.63L88.08-46.63Q90.50-48.23 93.97-48.92L93.97-48.92L93.97-48.92Q97.45-49.61 101.89-49.71L101.89-49.71L102.68-49.71L102.68-49.71Q106.67-49.71 109.46-49.02L109.46-49.02L109.46-49.02Q112.24-48.33 114.09-47.22L114.09-47.22L114.09-47.22Q115.94-46.11 117.00-44.73L117.00-44.73L117.00-44.73Q118.06-43.35 118.58-41.94L118.58-41.94L118.58-41.94Q119.10-40.54 119.22-39.26L119.22-39.26L119.22-39.26Q119.35-37.97 119.35-37.09L119.35-37.09L119.35-37.09Q119.35-35.61 118.73-34.64L118.73-34.64L118.73-34.64Q118.11-33.68 117.10-33.12L117.10-33.12L117.10-33.12Q116.09-32.55 114.81-32.33L114.81-32.33L114.81-32.33Q113.53-32.10 112.15-32.06L112.15-32.06L112.15-32.06Q110.96-32.06 110.00-32.45L110.00-32.45L110.00-32.45Q109.04-32.84 108.35-33.44L108.35-33.44L108.35-33.44Q107.66-34.03 107.29-34.77L107.29-34.77L107.29-34.77Q106.92-35.51 106.92-36.20L106.92-36.20L106.92-36.20Q106.82-38.07 105.41-39.06L105.41-39.06L105.41-39.06Q104.01-40.04 101.99-40.04L101.99-40.04L101.99-40.04Q101.15-40.04 100.38-39.87L100.38-39.87L100.38-39.87Q99.62-39.70 99.00-39.28L99.00-39.28L99.00-39.28Q98.39-38.86 98.02-38.17L98.02-38.17L98.02-38.17Q97.65-37.48 97.65-36.40ZM133.45-49.32L136.21-49.32L136.21-58.00L136.21-58.00Q136.21-60.07 136.43-62.04L136.43-62.04L136.43-62.04Q136.66-64.01 137.44-65.57L137.44-65.57L137.44-65.57Q138.23-67.12 139.71-68.08L139.71-68.08L139.71-68.08Q141.19-69.04 143.71-69.04L143.71-69.04L143.71-69.04Q146.17-69.04 147.65-68.08L147.65-68.08L147.65-68.08Q149.13-67.12 149.90-65.57L149.90-65.57L149.90-65.57Q150.66-64.01 150.88-62.04L150.88-62.04L150.88-62.04Q151.11-60.07 151.11-58.00L151.11-58.00L151.11-49.32L155.15-49.32L155.15-49.32Q156.43-49.32 157.71-49.19L157.71-49.19L157.71-49.19Q159.00-49.07 160.01-48.48L160.01-48.48L160.01-48.48Q161.02-47.89 161.63-46.70L161.63-46.70L161.63-46.70Q162.25-45.52 162.25-43.40L162.25-43.40L162.25-43.40Q162.25-41.38 161.63-40.19L161.63-40.19L161.63-40.19Q161.02-39.01 160.01-38.42L160.01-38.42L160.01-38.42Q159.00-37.83 157.71-37.65L157.71-37.65L157.71-37.65Q156.43-37.48 155.15-37.48L155.15-37.48L151.11-37.48L151.11-20.22L151.11-20.22Q151.11-19.23 151.18-18.12L151.18-18.12L151.18-18.12Q151.25-17.01 151.70-16.08L151.70-16.08L151.70-16.08Q152.14-15.14 153.03-14.52L153.03-14.52L153.03-14.52Q153.92-13.91 155.54-13.91L155.54-13.91L155.54-13.91Q157.32-13.91 158.58-13.64L158.58-13.64L158.58-13.64Q159.83-13.36 160.65-12.67L160.65-12.67L160.65-12.67Q161.46-11.98 161.86-10.75L161.86-10.75L161.86-10.75Q162.25-9.52 162.25-7.59L162.25-7.59L162.25-7.59Q162.25-5.62 161.34-4.19L161.34-4.19L161.34-4.19Q160.43-2.76 158.90-1.82L158.90-1.82L158.90-1.82Q157.37-0.89 155.35-0.44L155.35-0.44L155.35-0.44Q153.32 0 151.11 0L151.11 0L151.11 0Q147.60 0 145.11-0.74L145.11-0.74L145.11-0.74Q142.62-1.48 140.97-2.84L140.97-2.84L140.97-2.84Q139.32-4.19 138.36-6.09L138.36-6.09L138.36-6.09Q137.40-7.99 136.93-10.36L136.93-10.36L136.93-10.36Q136.46-12.72 136.34-15.46L136.34-15.46L136.34-15.46Q136.21-18.20 136.21-21.21L136.21-21.21L136.21-37.48L133.45-37.48L133.45-37.48Q132.17-37.48 130.91-37.65L130.91-37.65L130.91-37.65Q129.65-37.83 128.67-38.42L128.67-38.42L128.67-38.42Q127.68-39.01 127.06-40.19L127.06-40.19L127.06-40.19Q126.45-41.38 126.45-43.40L126.45-43.40L126.45-43.40Q126.45-45.52 127.06-46.70L127.06-46.70L127.06-46.70Q127.68-47.89 128.67-48.48L128.67-48.48L128.67-48.48Q129.65-49.07 130.91-49.19L130.91-49.19L130.91-49.19Q132.17-49.32 133.45-49.32L133.45-49.32ZM204.37-41.92L204.37-41.92L204.37-41.92Q204.37-38.07 202.47-36.30L202.47-36.30L202.47-36.30Q200.57-34.52 197.07-34.52L197.07-34.52L197.07-34.52Q196.58-34.52 195.66-34.45L195.66-34.45L195.66-34.45Q194.75-34.37 193.71-34.05L193.71-34.05L193.71-34.05Q192.68-33.73 191.62-33.12L191.62-33.12L191.62-33.12Q190.56-32.50 189.67-31.44L189.67-31.44L189.67-31.44Q188.78-30.38 188.24-28.75L188.24-28.75L188.24-28.75Q187.70-27.12 187.70-24.86L187.70-24.86L187.70-10.75L187.70-10.75Q187.70-8.73 187.48-6.81L187.48-6.81L187.48-6.81Q187.25-4.88 186.47-3.38L186.47-3.38L186.47-3.38Q185.68-1.87 184.20-0.94L184.20-0.94L184.20-0.94Q182.72 0 180.20 0L180.20 0L180.20 0Q177.74 0 176.31-0.94L176.31-0.94L176.31-0.94Q174.88-1.87 174.11-3.38L174.11-3.38L174.11-3.38Q173.35-4.88 173.13-6.81L173.13-6.81L173.13-6.81Q172.90-8.73 172.90-10.75L172.90-10.75L172.90-38.37L172.90-38.37Q172.90-40.44 173.13-42.39L173.13-42.39L173.13-42.39Q173.35-44.34 174.11-45.86L174.11-45.86L174.11-45.86Q174.88-47.39 176.31-48.31L176.31-48.31L176.31-48.31Q177.74-49.22 180.20-49.22L180.20-49.22L180.20-49.22Q182.72-49.22 184.07-48.11L184.07-48.11L184.07-48.11Q185.43-47.00 186.07-45.25L186.07-45.25L186.07-45.25Q186.71-43.50 186.81-41.35L186.81-41.35L186.81-41.35Q186.91-39.21 186.91-37.18L186.91-37.18L187.70-37.18L187.70-37.18Q188.39-39.95 189.52-42.19L189.52-42.19L189.52-42.19Q190.66-44.43 192.04-45.99L192.04-45.99L192.04-45.99Q193.42-47.54 195.00-48.38L195.00-48.38L195.00-48.38Q196.58-49.22 198.15-49.22L198.15-49.22L198.15-49.22Q200.08-49.22 201.28-48.80L201.28-48.80L201.28-48.80Q202.49-48.38 203.18-47.49L203.18-47.49L203.18-47.49Q203.87-46.60 204.12-45.22L204.12-45.22L204.12-45.22Q204.37-43.84 204.37-41.92ZM213.05-11.05L213.05-38.27L213.05-38.27Q213.05-40.34 213.27-42.31L213.27-42.31L213.27-42.31Q213.49-44.29 214.28-45.84L214.28-45.84L214.28-45.84Q215.07-47.39 216.55-48.35L216.55-48.35L216.55-48.35Q218.03-49.32 220.54-49.32L220.54-49.32L220.54-49.32Q223.06-49.32 224.54-48.35L224.54-48.35L224.54-48.35Q226.02-47.39 226.81-45.84L226.81-45.84L226.81-45.84Q227.60-44.29 227.82-42.31L227.82-42.31L227.82-42.31Q228.04-40.34 228.04-38.27L228.04-38.27L228.04-11.05L228.04-11.05Q228.04-8.98 227.82-6.98L227.82-6.98L227.82-6.98Q227.60-4.98 226.81-3.43L226.81-3.43L226.81-3.43Q226.02-1.87 224.54-0.94L224.54-0.94L224.54-0.94Q223.06 0 220.54 0L220.54 0L220.54 0Q218.03 0 216.55-0.94L216.55-0.94L216.55-0.94Q215.07-1.87 214.28-3.43L214.28-3.43L214.28-3.43Q213.49-4.98 213.27-6.98L213.27-6.98L213.27-6.98Q213.05-8.98 213.05-11.05L213.05-11.05ZM228.14-61.55L228.14-61.55L228.14-61.55Q228.14-57.75 226.17-55.90L226.17-55.90L226.17-55.90Q224.19-54.05 220.64-54.05L220.64-54.05L220.64-54.05Q217.09-54.05 215.12-55.90L215.12-55.90L215.12-55.90Q213.15-57.75 213.15-61.55L213.15-61.55L213.15-61.55Q213.15-65.49 215.12-67.27L215.12-67.27L215.12-67.27Q217.09-69.04 220.64-69.04L220.64-69.04L220.64-69.04Q224.44-69.04 226.29-67.27L226.29-67.27L226.29-67.27Q228.14-65.49 228.14-61.55ZM243.72-11.05L243.72-58.09L243.72-58.09Q243.72-60.17 243.87-62.14L243.87-62.14L243.87-62.14Q244.02-64.11 244.71-65.64L244.71-65.64L244.71-65.64Q245.40-67.17 246.80-68.11L246.80-68.11L246.80-68.11Q248.21-69.04 250.72-69.04L250.72-69.04L250.72-69.04Q253.29-69.04 254.69-68.11L254.69-68.11L254.69-68.11Q256.10-67.17 256.77-65.64L256.77-65.64L256.77-65.64Q257.43-64.11 257.58-62.14L257.58-62.14L257.58-62.14Q257.73-60.17 257.73-58.09L257.73-58.09L257.73-38.66L258.52-38.66L268.68-50.60L268.68-50.60Q269.56-51.63 270.75-52.10L270.75-52.10L270.75-52.10Q271.93-52.57 273.21-52.57L273.21-52.57L273.21-52.57Q274.45-52.57 275.70-52.10L275.70-52.10L275.70-52.10Q276.96-51.63 277.92-50.77L277.92-50.77L277.92-50.77Q278.88-49.91 279.50-48.70L279.50-48.70L279.50-48.70Q280.12-47.49 280.12-45.96L280.12-45.96L280.12-45.96Q280.12-43.99 278.74-42.31L278.74-42.31L269.86-31.86L279.53-13.41L279.53-13.41Q280.41-11.64 281.05-9.84L281.05-9.84L281.05-9.84Q281.70-8.04 281.70-6.41L281.70-6.41L281.70-6.41Q281.70-4.83 281.00-3.60L281.00-3.60L281.00-3.60Q280.31-2.37 279.20-1.55L279.20-1.55L279.20-1.55Q278.10-0.74 276.74-0.32L276.74-0.32L276.74-0.32Q275.38 0.10 274.10 0.10L274.10 0.10L274.10 0.10Q272.47 0.10 271.19-0.69L271.19-0.69L271.19-0.69Q269.91-1.48 268.95-2.64L268.95-2.64L268.95-2.64Q267.99-3.80 267.25-5.13L267.25-5.13L267.25-5.13Q266.51-6.46 266.01-7.59L266.01-7.59L260.49-19.33L257.73-19.33L257.73-11.05L257.73-11.05Q257.73-8.98 257.58-6.98L257.58-6.98L257.58-6.98Q257.43-4.98 256.77-3.43L256.77-3.43L256.77-3.43Q256.10-1.87 254.69-0.94L254.69-0.94L254.69-0.94Q253.29 0 250.72 0L250.72 0L250.72 0Q248.21 0 246.80-0.94L246.80-0.94L246.80-0.94Q245.40-1.87 244.71-3.43L244.71-3.43L244.71-3.43Q244.02-4.98 243.87-6.98L243.87-6.98L243.87-6.98Q243.72-8.98 243.72-11.05L243.72-11.05ZM345.31-51.68L345.31-51.68L345.31-51.68Q345.36-49.61 346.52-47.96L346.52-47.96L346.52-47.96Q347.68-46.31 349.58-44.83L349.58-44.83L349.58-44.83Q351.48-43.35 353.89-41.94L353.89-41.94L353.89-41.94Q356.31-40.54 358.85-38.98L358.85-38.98L358.85-38.98Q361.39-37.43 363.81-35.61L363.81-35.61L363.81-35.61Q366.22-33.78 368.15-31.46L368.15-31.46L368.15-31.46Q370.07-29.15 371.25-26.24L371.25-26.24L371.25-26.24Q372.44-23.33 372.54-19.63L372.54-19.63L372.54-19.23L372.54-19.23Q372.54-15.19 371.55-12.18L371.55-12.18L371.55-12.18Q370.56-9.17 368.94-7.00L368.94-7.00L368.94-7.00Q367.31-4.83 365.14-3.43L365.14-3.43L365.14-3.43Q362.97-2.02 360.58-1.18L360.58-1.18L360.58-1.18Q358.19-0.35 355.74 0L355.74 0L355.74 0Q353.30 0.35 351.13 0.39L351.13 0.39L350.64 0.39L350.64 0.39Q346.45 0.39 343.29-0.44L343.29-0.44L343.29-0.44Q340.14-1.28 337.87-2.69L337.87-2.69L337.87-2.69Q335.60-4.09 334.09-5.92L334.09-5.92L334.09-5.92Q332.59-7.74 331.70-9.69L331.70-9.69L331.70-9.69Q330.81-11.64 330.42-13.56L330.42-13.56L330.42-13.56Q330.03-15.49 330.03-17.16L330.03-17.16L330.03-17.16Q330.03-18.89 330.62-20.17L330.62-20.17L330.62-20.17Q331.21-21.45 332.17-22.27L332.17-22.27L332.17-22.27Q333.13-23.08 334.39-23.47L334.39-23.47L334.39-23.47Q335.65-23.87 337.03-23.87L337.03-23.87L337.03-23.87Q338.31-23.87 339.67-23.47L339.67-23.47L339.67-23.47Q341.02-23.08 342.13-22.27L342.13-22.27L342.13-22.27Q343.24-21.45 343.96-20.20L343.96-20.20L343.96-20.20Q344.67-18.94 344.72-17.26L344.72-17.26L344.72-17.26Q344.82-13.56 346.40-12.21L346.40-12.21L346.40-12.21Q347.98-10.85 350.94-10.85L350.94-10.85L350.94-10.85Q352.42-10.90 353.67-11.22L353.67-11.22L353.67-11.22Q354.93-11.54 355.82-12.35L355.82-12.35L355.82-12.35Q356.71-13.17 357.22-14.52L357.22-14.52L357.22-14.52Q357.74-15.88 357.74-17.95L357.74-17.95L357.74-17.95Q357.74-20.52 356.58-22.59L356.58-22.59L356.58-22.59Q355.42-24.66 353.55-26.43L353.55-26.43L353.55-26.43Q351.68-28.21 349.26-29.81L349.26-29.81L349.26-29.81Q346.84-31.41 344.33-33.02L344.33-33.02L344.33-33.02Q341.81-34.62 339.42-36.37L339.42-36.37L339.42-36.37Q337.03-38.12 335.10-40.19L335.10-40.19L335.10-40.19Q333.18-42.26 332.02-44.78L332.02-44.78L332.02-44.78Q330.86-47.29 330.81-50.50L330.81-50.50L330.81-51.29L330.81-51.29Q330.86-56.57 332.22-60.07L332.22-60.07L332.22-60.07Q333.58-63.57 336.21-65.64L336.21-65.64L336.21-65.64Q338.85-67.71 342.70-68.57L342.70-68.57L342.70-68.57Q346.55-69.44 351.53-69.44L351.53-69.44L352.81-69.44L352.81-69.44Q357.35-69.44 360.50-68.45L360.50-68.45L360.50-68.45Q363.66-67.46 365.76-65.94L365.76-65.94L365.76-65.94Q367.85-64.41 369.06-62.48L369.06-62.48L369.06-62.48Q370.27-60.56 370.86-58.69L370.86-58.69L370.86-58.69Q371.45-56.81 371.60-55.19L371.60-55.19L371.60-55.19Q371.75-53.56 371.75-52.57L371.75-52.57L371.75-52.57Q371.75-51.09 371.18-49.88L371.18-49.88L371.18-49.88Q370.61-48.68 369.65-47.84L369.65-47.84L369.65-47.84Q368.69-47.00 367.38-46.53L367.38-46.53L367.38-46.53Q366.08-46.06 364.55-46.06L364.55-46.06L364.55-46.06Q363.36-46.06 362.18-46.53L362.18-46.53L362.18-46.53Q361.00-47.00 360.06-47.74L360.06-47.74L360.06-47.74Q359.12-48.48 358.53-49.44L358.53-49.44L358.53-49.44Q357.94-50.40 357.94-51.39L357.94-51.39L357.94-51.39Q357.94-55.43 356.48-57.01L356.48-57.01L356.48-57.01Q355.03-58.59 352.22-58.59L352.22-58.59L352.22-58.59Q350.89-58.59 349.63-58.44L349.63-58.44L349.63-58.44Q348.37-58.29 347.41-57.63L347.41-57.63L347.41-57.63Q346.45-56.96 345.88-55.58L345.88-55.58L345.88-55.58Q345.31-54.20 345.31-51.68ZM385.65-49.32L388.42-49.32L388.42-58.00L388.42-58.00Q388.42-60.07 388.64-62.04L388.64-62.04L388.64-62.04Q388.86-64.01 389.65-65.57L389.65-65.57L389.65-65.57Q390.44-67.12 391.92-68.08L391.92-68.08L391.92-68.08Q393.40-69.04 395.91-69.04L395.91-69.04L395.91-69.04Q398.38-69.04 399.86-68.08L399.86-68.08L399.86-68.08Q401.34-67.12 402.10-65.57L402.10-65.57L402.10-65.57Q402.87-64.01 403.09-62.04L403.09-62.04L403.09-62.04Q403.31-60.07 403.31-58.00L403.31-58.00L403.31-49.32L407.35-49.32L407.35-49.32Q408.64-49.32 409.92-49.19L409.92-49.19L409.92-49.19Q411.20-49.07 412.21-48.48L412.21-48.48L412.21-48.48Q413.22-47.89 413.84-46.70L413.84-46.70L413.84-46.70Q414.46-45.52 414.46-43.40L414.46-43.40L414.46-43.40Q414.46-41.38 413.84-40.19L413.84-40.19L413.84-40.19Q413.22-39.01 412.21-38.42L412.21-38.42L412.21-38.42Q411.20-37.83 409.92-37.65L409.92-37.65L409.92-37.65Q408.64-37.48 407.35-37.48L407.35-37.48L403.31-37.48L403.31-20.22L403.31-20.22Q403.31-19.23 403.38-18.12L403.38-18.12L403.38-18.12Q403.46-17.01 403.90-16.08L403.90-16.08L403.90-16.08Q404.35-15.14 405.23-14.52L405.23-14.52L405.23-14.52Q406.12-13.91 407.75-13.91L407.75-13.91L407.75-13.91Q409.52-13.91 410.78-13.64L410.78-13.64L410.78-13.64Q412.04-13.36 412.85-12.67L412.85-12.67L412.85-12.67Q413.67-11.98 414.06-10.75L414.06-10.75L414.06-10.75Q414.46-9.52 414.46-7.59L414.46-7.59L414.46-7.59Q414.46-5.62 413.54-4.19L413.54-4.19L413.54-4.19Q412.63-2.76 411.10-1.82L411.10-1.82L411.10-1.82Q409.57-0.89 407.55-0.44L407.55-0.44L407.55-0.44Q405.53 0 403.31 0L403.31 0L403.31 0Q399.81 0 397.32-0.74L397.32-0.74L397.32-0.74Q394.83-1.48 393.18-2.84L393.18-2.84L393.18-2.84Q391.52-4.19 390.56-6.09L390.56-6.09L390.56-6.09Q389.60-7.99 389.13-10.36L389.13-10.36L389.13-10.36Q388.66-12.72 388.54-15.46L388.54-15.46L388.54-15.46Q388.42-18.20 388.42-21.21L388.42-21.21L388.42-37.48L385.65-37.48L385.65-37.48Q384.37-37.48 383.11-37.65L383.11-37.65L383.11-37.65Q381.86-37.83 380.87-38.42L380.87-38.42L380.87-38.42Q379.88-39.01 379.27-40.19L379.27-40.19L379.27-40.19Q378.65-41.38 378.65-43.40L378.65-43.40L378.65-43.40Q378.65-45.52 379.27-46.70L379.27-46.70L379.27-46.70Q379.88-47.89 380.87-48.48L380.87-48.48L380.87-48.48Q381.86-49.07 383.11-49.19L383.11-49.19L383.11-49.19Q384.37-49.32 385.65-49.32L385.65-49.32ZM463.57-38.07L463.57-11.15L463.57-11.15Q463.57-9.07 463.43-7.08L463.43-7.08L463.43-7.08Q463.28-5.08 462.54-3.50L462.54-3.50L462.54-3.50Q461.80-1.92 460.32-0.96L460.32-0.96L460.32-0.96Q458.84 0 456.18 0L456.18 0L456.18 0Q453.46 0 451.94-0.91L451.94-0.91L451.94-0.91Q450.41-1.82 449.67-3.13L449.67-3.13L449.67-3.13Q448.93-4.44 448.75-5.87L448.75-5.87L448.75-5.87Q448.58-7.30 448.58-8.29L448.58-8.29L448.58-8.29Q448.14-6.85 447.32-5.38L447.32-5.38L447.32-5.38Q446.51-3.90 445.23-2.71L445.23-2.71L445.23-2.71Q443.95-1.53 442.15-0.76L442.15-0.76L442.15-0.76Q440.35 0 437.93 0L437.93 0L437.93 0Q435.22 0 432.50-0.89L432.50-0.89L432.50-0.89Q429.79-1.78 427.62-3.85L427.62-3.85L427.62-3.85Q425.45-5.92 424.10-9.25L424.10-9.25L424.10-9.25Q422.74-12.58 422.74-17.46L422.74-17.46L422.74-31.76L422.74-31.76Q422.74-36.69 424.10-40.02L424.10-40.02L424.10-40.02Q425.45-43.35 427.62-45.40L427.62-45.40L427.62-45.40Q429.79-47.44 432.50-48.33L432.50-48.33L432.50-48.33Q435.22-49.22 437.93-49.22L437.93-49.22L437.93-49.22Q440.35-49.22 442.15-48.48L442.15-48.48L442.15-48.48Q443.95-47.74 445.23-46.55L445.23-46.55L445.23-46.55Q446.51-45.37 447.32-43.89L447.32-43.89L447.32-43.89Q448.14-42.41 448.58-40.93L448.58-40.93L448.58-40.93Q448.58-43.40 449.27-45.03L449.27-45.03L449.27-45.03Q449.96-46.65 451.05-47.61L451.05-47.61L451.05-47.61Q452.13-48.58 453.49-48.95L453.49-48.95L453.49-48.95Q454.85-49.32 456.18-49.32L456.18-49.32L456.18-49.32Q458.64-49.32 460.12-48.35L460.12-48.35L460.12-48.35Q461.60-47.39 462.37-45.84L462.37-45.84L462.37-45.84Q463.13-44.29 463.35-42.24L463.35-42.24L463.35-42.24Q463.57-40.19 463.57-38.07L463.57-38.07ZM437.93-30.67L437.93-18.74L437.93-18.74Q437.93-17.41 438.03-16.13L438.03-16.13L438.03-16.13Q438.13-14.84 438.57-13.81L438.57-13.81L438.57-13.81Q439.01-12.77 439.88-12.16L439.88-12.16L439.88-12.16Q440.74-11.54 442.27-11.54L442.27-11.54L442.27-11.54Q444.19-11.54 445.40-12.40L445.40-12.40L445.40-12.40Q446.61-13.27 447.30-15.07L447.30-15.07L447.30-15.07Q447.99-16.87 448.26-19.60L448.26-19.60L448.26-19.60Q448.53-22.34 448.58-26.14L448.58-26.14L448.58-26.14Q448.58-27.67 448.31-29.66L448.31-29.66L448.31-29.66Q448.04-31.66 447.35-33.44L447.35-33.44L447.35-33.44Q446.66-35.21 445.43-36.44L445.43-36.44L445.43-36.44Q444.19-37.68 442.27-37.68L442.27-37.68L442.27-37.68Q440.74-37.68 439.88-37.06L439.88-37.06L439.88-37.06Q439.01-36.44 438.57-35.46L438.57-35.46L438.57-35.46Q438.13-34.47 438.03-33.21L438.03-33.21L438.03-33.21Q437.93-31.96 437.93-30.67L437.93-30.67ZM478.86-49.32L481.62-49.32L481.62-58.00L481.62-58.00Q481.62-60.07 481.85-62.04L481.85-62.04L481.85-62.04Q482.07-64.01 482.86-65.57L482.86-65.57L482.86-65.57Q483.65-67.12 485.13-68.08L485.13-68.08L485.13-68.08Q486.60-69.04 489.12-69.04L489.12-69.04L489.12-69.04Q491.59-69.04 493.07-68.08L493.07-68.08L493.07-68.08Q494.54-67.12 495.31-65.57L495.31-65.57L495.31-65.57Q496.07-64.01 496.30-62.04L496.30-62.04L496.30-62.04Q496.52-60.07 496.52-58.00L496.52-58.00L496.52-49.32L500.56-49.32L500.56-49.32Q501.84-49.32 503.13-49.19L503.13-49.19L503.13-49.19Q504.41-49.07 505.42-48.48L505.42-48.48L505.42-48.48Q506.43-47.89 507.05-46.70L507.05-46.70L507.05-46.70Q507.66-45.52 507.66-43.40L507.66-43.40L507.66-43.40Q507.66-41.38 507.05-40.19L507.05-40.19L507.05-40.19Q506.43-39.01 505.42-38.42L505.42-38.42L505.42-38.42Q504.41-37.83 503.13-37.65L503.13-37.65L503.13-37.65Q501.84-37.48 500.56-37.48L500.56-37.48L496.52-37.48L496.52-20.22L496.52-20.22Q496.52-19.23 496.59-18.12L496.59-18.12L496.59-18.12Q496.67-17.01 497.11-16.08L497.11-16.08L497.11-16.08Q497.55-15.14 498.44-14.52L498.44-14.52L498.44-14.52Q499.33-13.91 500.96-13.91L500.96-13.91L500.96-13.91Q502.73-13.91 503.99-13.64L503.99-13.64L503.99-13.64Q505.25-13.36 506.06-12.67L506.06-12.67L506.06-12.67Q506.87-11.98 507.27-10.75L507.27-10.75L507.27-10.75Q507.66-9.52 507.66-7.59L507.66-7.59L507.66-7.59Q507.66-5.62 506.75-4.19L506.75-4.19L506.75-4.19Q505.84-2.76 504.31-1.82L504.31-1.82L504.31-1.82Q502.78-0.89 500.76-0.44L500.76-0.44L500.76-0.44Q498.74 0 496.52 0L496.52 0L496.52 0Q493.02 0 490.53-0.74L490.53-0.74L490.53-0.74Q488.04-1.48 486.38-2.84L486.38-2.84L486.38-2.84Q484.73-4.19 483.77-6.09L483.77-6.09L483.77-6.09Q482.81-7.99 482.34-10.36L482.34-10.36L482.34-10.36Q481.87-12.72 481.75-15.46L481.75-15.46L481.75-15.46Q481.62-18.20 481.62-21.21L481.62-21.21L481.62-37.48L478.86-37.48L478.86-37.48Q477.58-37.48 476.32-37.65L476.32-37.65L476.32-37.65Q475.06-37.83 474.08-38.42L474.08-38.42L474.08-38.42Q473.09-39.01 472.48-40.19L472.48-40.19L472.48-40.19Q471.86-41.38 471.86-43.40L471.86-43.40L471.86-43.40Q471.86-45.52 472.48-46.70L472.48-46.70L472.48-46.70Q473.09-47.89 474.08-48.48L474.08-48.48L474.08-48.48Q475.06-49.07 476.32-49.19L476.32-49.19L476.32-49.19Q477.58-49.32 478.86-49.32L478.86-49.32ZM519.40-11.05L519.40-38.27L519.40-38.27Q519.40-40.34 519.62-42.31L519.62-42.31L519.62-42.31Q519.84-44.29 520.63-45.84L520.63-45.84L520.63-45.84Q521.42-47.39 522.90-48.35L522.90-48.35L522.90-48.35Q524.38-49.32 526.90-49.32L526.90-49.32L526.90-49.32Q529.41-49.32 530.89-48.35L530.89-48.35L530.89-48.35Q532.37-47.39 533.16-45.84L533.16-45.84L533.16-45.84Q533.95-44.29 534.17-42.31L534.17-42.31L534.17-42.31Q534.39-40.34 534.39-38.27L534.39-38.27L534.39-11.05L534.39-11.05Q534.39-8.98 534.17-6.98L534.17-6.98L534.17-6.98Q533.95-4.98 533.16-3.43L533.16-3.43L533.16-3.43Q532.37-1.87 530.89-0.94L530.89-0.94L530.89-0.94Q529.41 0 526.90 0L526.90 0L526.90 0Q524.38 0 522.90-0.94L522.90-0.94L522.90-0.94Q521.42-1.87 520.63-3.43L520.63-3.43L520.63-3.43Q519.84-4.98 519.62-6.98L519.62-6.98L519.62-6.98Q519.40-8.98 519.40-11.05L519.40-11.05ZM534.49-61.55L534.49-61.55L534.49-61.55Q534.49-57.75 532.52-55.90L532.52-55.90L532.52-55.90Q530.55-54.05 527.00-54.05L527.00-54.05L527.00-54.05Q523.44-54.05 521.47-55.90L521.47-55.90L521.47-55.90Q519.50-57.75 519.50-61.55L519.50-61.55L519.50-61.55Q519.50-65.49 521.47-67.27L521.47-67.27L521.47-67.27Q523.44-69.04 527.00-69.04L527.00-69.04L527.00-69.04Q530.79-69.04 532.64-67.27L532.64-67.27L532.64-67.27Q534.49-65.49 534.49-61.55ZM561.71-36.40L561.71-36.40L561.71-36.40Q561.71-35.41 562.35-34.57L562.35-34.57L562.35-34.57Q563.00-33.73 564.11-32.97L564.11-32.97L564.11-32.97Q565.22-32.20 566.67-31.46L566.67-31.46L566.67-31.46Q568.13-30.72 569.70-29.98L569.70-29.98L569.70-29.98Q572.12-28.80 574.63-27.44L574.63-27.44L574.63-27.44Q577.15-26.09 579.22-24.26L579.22-24.26L579.22-24.26Q581.29-22.44 582.60-20.05L582.60-20.05L582.60-20.05Q583.91-17.66 583.91-14.40L583.91-14.40L583.91-14.40Q583.91-11.44 583.04-9.17L583.04-9.17L583.04-9.17Q582.18-6.90 580.75-5.25L580.75-5.25L580.75-5.25Q579.32-3.60 577.42-2.52L577.42-2.52L577.42-2.52Q575.52-1.43 573.43-0.79L573.43-0.79L573.43-0.79Q571.33-0.15 569.16 0.12L569.16 0.12L569.16 0.12Q566.99 0.39 565.07 0.39L565.07 0.39L565.07 0.39Q561.27 0.39 558.46-0.25L558.46-0.25L558.46-0.25Q555.65-0.89 553.63-1.95L553.63-1.95L553.63-1.95Q551.60-3.01 550.30-4.36L550.30-4.36L550.30-4.36Q548.99-5.72 548.25-7.20L548.25-7.20L548.25-7.20Q547.51-8.68 547.21-10.13L547.21-10.13L547.21-10.13Q546.92-11.59 546.92-12.82L546.92-12.82L546.92-12.82Q546.92-15.78 548.57-17.16L548.57-17.16L548.57-17.16Q550.22-18.54 553.63-18.54L553.63-18.54L553.63-18.54Q556.09-18.54 557.67-17.21L557.67-17.21L557.67-17.21Q559.25-15.88 559.35-12.92L559.35-12.92L559.35-12.92Q559.40-11.93 559.91-11.34L559.91-11.34L559.91-11.34Q560.43-10.75 561.25-10.38L561.25-10.38L561.25-10.38Q562.06-10.01 563.05-9.89L563.05-9.89L563.05-9.89Q564.03-9.76 564.97-9.76L564.97-9.76L564.97-9.76Q566.89-9.76 568.10-10.78L568.10-10.78L568.10-10.78Q569.31-11.79 569.31-13.41L569.31-13.41L569.31-13.41Q569.31-14.79 568.49-16.00L568.49-16.00L568.49-16.00Q567.68-17.21 566.35-18.25L566.35-18.25L566.35-18.25Q565.02-19.28 563.32-20.24L563.32-20.24L563.32-20.24Q561.62-21.21 559.84-22.19L559.84-22.19L559.84-22.19Q557.62-23.38 555.38-24.71L555.38-24.71L555.38-24.71Q553.13-26.04 551.31-27.67L551.31-27.67L551.31-27.67Q549.48-29.29 548.35-31.34L548.35-31.34L548.35-31.34Q547.21-33.39 547.21-36.00L547.21-36.00L547.21-36.00Q547.21-39.85 548.47-42.44L548.47-42.44L548.47-42.44Q549.73-45.03 552.15-46.63L552.15-46.63L552.15-46.63Q554.56-48.23 558.04-48.92L558.04-48.92L558.04-48.92Q561.52-49.61 565.96-49.71L565.96-49.71L566.74-49.71L566.74-49.71Q570.74-49.71 573.53-49.02L573.53-49.02L573.53-49.02Q576.31-48.33 578.16-47.22L578.16-47.22L578.16-47.22Q580.01-46.11 581.07-44.73L581.07-44.73L581.07-44.73Q582.13-43.35 582.65-41.94L582.65-41.94L582.65-41.94Q583.17-40.54 583.29-39.26L583.29-39.26L583.29-39.26Q583.41-37.97 583.41-37.09L583.41-37.09L583.41-37.09Q583.41-35.61 582.80-34.64L582.80-34.64L582.80-34.64Q582.18-33.68 581.17-33.12L581.17-33.12L581.17-33.12Q580.16-32.55 578.88-32.33L578.88-32.33L578.88-32.33Q577.59-32.10 576.21-32.06L576.21-32.06L576.21-32.06Q575.03-32.06 574.07-32.45L574.07-32.45L574.07-32.45Q573.11-32.84 572.42-33.44L572.42-33.44L572.42-33.44Q571.73-34.03 571.36-34.77L571.36-34.77L571.36-34.77Q570.99-35.51 570.99-36.20L570.99-36.20L570.99-36.20Q570.89-38.07 569.48-39.06L569.48-39.06L569.48-39.06Q568.08-40.04 566.05-40.04L566.05-40.04L566.05-40.04Q565.22-40.04 564.45-39.87L564.45-39.87L564.45-39.87Q563.69-39.70 563.07-39.28L563.07-39.28L563.07-39.28Q562.45-38.86 562.08-38.17L562.08-38.17L562.08-38.17Q561.71-37.48 561.71-36.40Z" fill="#fff"></path></g></g><style>text {
  font-size: 64px;
  font-family: 'Averia Serif Libre',cursive;
  dominant-baseline: central;
  text-anchor: middle;
}</style></svg>