<?xml version="1.0" encoding="utf-8"?>
<!-- Generator: Adobe Illustrator 16.0.0, SVG Export Plug-In . SVG Version: 6.00 Build 0)  -->
<!DOCTYPE svg PUBLIC "-//W3C//DTD SVG 1.1//EN" "http://www.w3.org/Graphics/SVG/1.1/DTD/svg11.dtd">
<svg version="1.1" id="Layer_1" xmlns="http://www.w3.org/2000/svg" xmlns:xlink="http://www.w3.org/1999/xlink" x="0px" y="0px"
	 width="473.856px" height="81.6px" viewBox="0 0 473.856 81.6" enable-background="new 0 0 473.856 81.6" xml:space="preserve">
<g>
	<path fill="#FFFFFF" stroke="#000000" stroke-width="2" stroke-miterlimit="10" d="M3.48,43.68c0.48-0.24,4.2-0.06,4.2-0.24
		S7.56,20.761,7.5,20.341c-0.06-0.42-3.06,0.06-3.66-0.3c-0.6-0.36-0.78-9.48-0.48-9.84c0.3-0.36,13.919-0.24,14.219-0.06
		c0.3,0.18,6.48,10.26,6.78,10.8c0.3-0.54,7.2-10.44,7.56-10.74c0.36-0.3,14.819-0.12,14.819,0s0.12,8.7,0.12,9.18
		s-4.32,0.6-4.38,0.6c-0.06,0-0.06,23.279,0.18,23.699c0.24,0.42,4.62,0.12,4.62,0.54s0.66,8.82,0.48,8.76
		c-0.18-0.06-20.159,0.18-20.159-0.6c0-0.78-0.18-8.16,0.12-8.22c0.3-0.06,4.02,0,4.02-0.18l0.12-16.739c0,0-4.2,6.299-4.32,6.299
		s-5.34,0.6-5.52,0.42c-0.18-0.18-4.32-6.72-4.38-6.72s0.42,15.779,0.42,16.139s4.26,0.48,4.26,0.66c0,0.18,0.54,8.58,0.36,8.58
		s-18.899-0.3-18.899-0.3C3.78,52.5,3,43.92,3.48,43.68z"/>
	<path fill="#FFFFFF" stroke="#000000" stroke-width="2" stroke-miterlimit="10" d="M51.899,31.081l-2.52-0.24
		c0,0-0.96-6.12-0.54-8.04l13.739-0.96c0,0,0,4.02,0.06,14.459c0,4.02,1.38,6.06,4.26,6.06c2.34,0,3.9-2.46,3.9-6.06l-0.06-4.26
		l-3.96-0.18l-0.48-8.52l14.879-1.14V42.78c0.12,0.12,3.72,0.78,3.84,0.78c0.06,0,0.06,8.759,0.06,9.06
		c0,0.3-11.279,0.36-11.279,0.36l-1.02-2.64c0,0-3.24,2.939-8.34,2.939c-6.12,0-12.6-2.88-12.6-15.359L51.899,31.081z"/>
	<path fill="#FFFFFF" stroke="#000000" stroke-width="2" stroke-miterlimit="10" d="M87.659,37.02
		c0-11.399,7.32-14.759,13.439-14.759c5.1,0,8.88,3,8.88,3v-3c0,0,12.719-0.42,12.719-0.12c0,0.3,0.42,7.98,0.36,7.98
		c-0.12,0-4.319,0.9-4.439,1.02c-0.18,0.12,0.12,12.659,0.12,12.659c0.06,0,4.979-0.06,5.04,0.36c0.12,0.42,0.12,8.4-0.12,8.4
		c-0.18,0-13.619-0.24-13.619-0.42c0-0.18-0.6-3.06-0.6-3.06s-2.4,3.96-8.52,3.96C95.399,53.04,87.659,49.38,87.659,37.02z
		 M107.698,37.32c0-3.18-1.979-5.82-4.439-5.82c-3,0-4.98,2.1-4.98,5.7c0,3.48,2.34,5.7,4.74,5.7
		C105.719,42.9,107.698,40.68,107.698,37.32z"/>
	<path fill="#FFFFFF" stroke="#000000" stroke-width="2" stroke-miterlimit="10" d="M131.398,31.8c0-0.12-4.14-0.06-4.26-0.18
		c-0.12-0.12,0.12-8.819,0.12-8.819l4.32-0.48c0,0,0.66-6.96,0.66-7.08c1.62-1.14,10.8-1.74,10.8-1.74l0.36,9.18l7.56-0.12
		c0,0,0.42,5.94-0.36,8.82l-7.919,0.42c0,0-0.66,10.14,1.62,10.14c1.86,0,4.44-1.86,4.44-1.86l4.32,8.64c0,0-5.52,5.1-12.12,5.1
		C130.978,53.819,131.398,43.26,131.398,31.8z"/>
	<path fill="#FFFFFF" stroke="#000000" stroke-width="2" stroke-miterlimit="10" d="M155.398,37.02
		c0-11.399,7.32-14.759,13.439-14.759c5.1,0,8.88,3,8.88,3v-3c0,0,12.719-0.42,12.719-0.12c0,0.3,0.42,7.98,0.36,7.98
		c-0.12,0-4.32,0.9-4.44,1.02c-0.18,0.12,0.12,12.659,0.12,12.659c0.06,0,4.98-0.06,5.04,0.36c0.12,0.42,0.12,8.4-0.12,8.4
		c-0.18,0-13.619-0.24-13.619-0.42c0-0.18-0.6-3.06-0.6-3.06s-2.4,3.96-8.52,3.96C163.138,53.04,155.398,49.38,155.398,37.02z
		 M175.438,37.32c0-3.18-1.98-5.82-4.44-5.82c-3,0-4.98,2.1-4.98,5.7c0,3.48,2.34,5.7,4.74,5.7
		C173.458,42.9,175.438,40.68,175.438,37.32z"/>
	<path fill="#FFFFFF" stroke="#000000" stroke-width="2" stroke-miterlimit="10" d="M194.938,44.82l3.959-0.24l0.06-14.34
		c-0.12-0.12-3.48,0.18-3.6,0.18c-0.06,0-0.96-8.1-0.96-8.4c0-0.3,11.879-1.56,11.879-1.56l1.92,4.32c0,0,2.76-3.78,7.86-3.78
		c6.12,0,12.299,2.88,12.299,15.359l-0.06,7.859l2.52,0.54c0,0,0.42,5.88,0,7.8l-15.54-0.18c0,0-0.42-6.6-0.3-7.62l2.94-0.54
		l-0.06-6.419c0-4.02-1.68-6.06-4.56-6.06c-2.34,0-4.5,2.46-4.5,6.06l0.06,6.6l3.6,0.78l0.12,7.2c-0.3,0.3-17.279,0.12-17.219,0.12
		C195.357,52.5,194.877,48.66,194.938,44.82z"/>
	<path fill="#FFFFFF" stroke="#000000" stroke-width="2" stroke-miterlimit="10" d="M253.856,43.74c0.12-0.12,4.02-0.18,4.14-0.3
		c0.12-0.12,0.24-18.179,0.6-23.879c0-0.3-3.6,0.06-3.72,0s-0.78-9.06-0.18-9.42c0.36-0.18,20.159,0.36,20.159,0.42
		s0.42,8.76,0.06,8.88c-0.36,0.12-4.92,0.66-4.92,0.66c-0.6,4.32-0.96,23.279-0.9,23.279s6.12-0.12,6.18-0.24
		c0.06-0.12,2.04-7.5,2.04-7.739c0-0.24,7.8,0.9,7.98,1.02c0.18,0.12,0.36,16.2,0.18,16.2c-0.18,0-31.499,0.54-31.499-0.12
		S253.736,43.86,253.856,43.74z"/>
	<path fill="#FFFFFF" stroke="#000000" stroke-width="2" stroke-miterlimit="10" d="M289.316,44.82l5.16-0.24l0.06-12.18
		c-0.12-0.12-4.68,0.18-4.8,0.18c-0.06,0-0.96-7.859-0.96-8.159c0-0.3,12.66-0.9,16.739,0.06V44.4l4.92,0.78l0.12,7.2
		c-0.3,0.3-20.879,0.12-20.819,0.12C289.736,52.5,289.256,48.66,289.316,44.82z M293.156,12.661c-0.06-3.84,2.7-6.24,5.88-6.24
		c3.24,0,6.24,2.76,6.24,5.94c0,3.24-1.5,6.419-5.58,6.419C295.556,18.781,293.276,16.441,293.156,12.661z"/>
	<path fill="#FFFFFF" stroke="#000000" stroke-width="2" stroke-miterlimit="10" d="M314.275,41.58c2.7-0.48,6.66-0.42,7.44-0.3
		c0.72,2.28,2.4,3.48,3.66,3.48c1.2,0,2.22-0.54,2.22-1.56c0-1.92-2.58-2.52-4.98-3.6c-3.6-1.56-7.74-3.84-7.74-10.08
		c0-4.2,3.9-8.4,10.919-8.4c3.06,0,4.92,0.96,5.82,1.74l0.36-2.1c0,0,6-0.18,8.58,0.72c0.24,0.12-0.6,9.6-0.6,10.679
		c0,0.48-8.22-0.12-8.22-0.3c-0.18-1.92-1.86-2.64-3.12-2.64c-0.72,0-1.86,0.18-1.86,1.5c0,1.2,3.36,2.1,6.3,3.54
		c3.6,1.68,7.5,5.1,7.5,10.439c0,4.86-4.62,8.58-9.9,8.58c-5.4,0-7.02-1.26-7.799-1.979c-0.12,0.96-0.24,2.459-0.3,2.459
		c-0.24-0.06-8.16-0.66-8.16-0.66C314.275,52.2,314.275,43.32,314.275,41.58z"/>
	<path fill="#FFFFFF" stroke="#000000" stroke-width="2" stroke-miterlimit="10" d="M348.295,31.8c0-0.12-4.14-0.06-4.26-0.18
		c-0.12-0.12,0.12-8.819,0.12-8.819l4.32-0.48c0,0,0.66-6.96,0.66-7.08c1.62-1.14,10.8-1.74,10.8-1.74l0.36,9.18l7.56-0.12
		c0,0,0.42,5.94-0.36,8.82l-7.919,0.42c0,0-0.66,10.14,1.62,10.14c1.86,0,4.44-1.86,4.44-1.86l4.32,8.64c0,0-5.52,5.1-12.12,5.1
		C347.875,53.819,348.295,43.26,348.295,31.8z"/>
	<path fill="#FFFFFF" stroke="#000000" stroke-width="2" stroke-miterlimit="10" d="M373.736,44.22l3.959-0.24l0.06-14.1
		c-0.12-0.12-3.48,0.18-3.6,0.18c-0.06,0-0.96-7.5-0.96-7.8s12.119-2.1,12.119-2.1l1.92,4.08c0,0,2.04-2.88,7.14-2.88
		c5.4,0,9.48,4.26,9.42,4.68c-0.12,1.08-6.18,8.52-6.36,8.34c-0.78-0.78-2.46-2.4-4.56-2.4c-3.12,0-5.22,2.46-5.22,6.06
		c0,3.9,0.48,5.76,0.48,5.76l6.12,0.78l0.12,7.799c-0.3,0.3-20.279,0.12-20.219,0.12C374.156,52.5,373.676,48.06,373.736,44.22z"/>
	<path fill="#FFFFFF" stroke="#000000" stroke-width="2" stroke-miterlimit="10" d="M407.036,44.82l5.16-0.24l0.06-12.18
		c-0.12-0.12-4.68,0.18-4.8,0.18c-0.06,0-0.96-7.859-0.96-8.159c0-0.3,12.66-0.9,16.739,0.06V44.4l4.92,0.78l0.12,7.2
		c-0.3,0.3-20.879,0.12-20.819,0.12C407.456,52.5,406.976,48.66,407.036,44.82z M410.876,12.661c-0.06-3.84,2.7-6.24,5.88-6.24
		c3.24,0,6.24,2.76,6.24,5.94c0,3.24-1.5,6.419-5.58,6.419C413.276,18.781,410.996,16.441,410.876,12.661z"/>
	<path fill="#FFFFFF" stroke="#000000" stroke-width="2" stroke-miterlimit="10" d="M431.756,44.46c0.3,0,4.32-0.3,4.32-0.3
		l-0.12-24.959c0,0-4.68-0.06-4.74-0.18c-0.06-0.12,0.18-7.68,0.24-7.86c0.06-0.18,13.439-2.04,13.739-1.8
		c1.62,1.26,0.96,16.139,0.96,24.359c0,0,6.24-3.36,6.24-3.72s-2.52-0.66-2.7-0.96c-0.12-0.3-0.54-6.42-0.54-6.72
		c0-0.3,18.839,0.24,18.839,0.6c0,0.36,0.18,7.68,0,7.979c-0.18,0.3-3.899-0.24-4.08-0.12s-6,4.8-6.24,5.22
		c-0.24,0.48,8.52,8.58,8.819,8.7c0.3,0.12,3.9,0.42,3.96,0.48s0.54,7.14,0.36,7.26c-0.18,0.12-18.839,0.96-19.14,0.18
		c-0.3-0.84-0.84-7.5-0.72-7.5c0.18,0,2.28-0.36,2.28-0.54c-0.36-0.42-6.06-5.7-6.72-4.92c-0.24,0.3-0.18,4.14-0.18,4.5
		c0,0.3,2.52,0.66,2.52,0.78c0,0.12-0.24,7.08-0.24,7.379c0,0.3-16.5,0.3-16.5,0.3C432.056,52.5,431.456,44.46,431.756,44.46z"/>
</g>
<g>
</g>
<g>
</g>
<g>
</g>
<g>
</g>
<g>
</g>
<g>
</g>
</svg>
